<?xml version="1.0" encoding="utf-8"?>
<!-- Generator: Adobe Illustrator 24.1.3, SVG Export Plug-In . SVG Version: 6.00 Build 0)  -->
<svg version="1.1" id="Layer_1" xmlns="http://www.w3.org/2000/svg" xmlns:xlink="http://www.w3.org/1999/xlink" x="0px" y="0px"
	 viewBox="0 0 111.3 48.8" style="enable-background:new 0 0 111.3 48.8;" xml:space="preserve">
<style type="text/css">
	.st0{fill-rule:evenodd;clip-rule:evenodd;fill:#383B43;}
</style>
<g>
	<path class="st0" d="M5.5,1.9c1.4,0,3.1,0.5,4.2,1.9c0.5,0.5,1.5,2.9,1.5,2.9l5.6,14.9c0.7,1.8,2.9,1.9,3.6,0.1l1.7-4.7l3,7.8
		c-1.5,2.6-2.9,3.3-4.5,3.9c-1.9,0.6-4.2,0.4-5.9-0.6c-0.5-0.4-2-1.3-3-3.7L5.7,7.9V23l2.2-6.4l2.9,8c-0.4,1.8-1.7,3.3-3.3,4.1
		c-1.7,0.8-3.7,0.5-5.2-0.5c-1.5-1.1-2-2.4-2-4.7V7.2C0.5,4.4,2.2,3,3.7,2.3C4.4,2,4.7,2,5.5,1.9L5.5,1.9z M31.4,29.1
		c-1.4,0-3.1-0.5-4.2-1.9c-0.5-0.5-1.5-2.9-1.5-2.9L20.2,9.4c-0.7-1.8-2.9-1.9-3.6-0.1L14.9,14l-3-7.8c1.5-2.6,2.9-3.3,4.5-3.9
		c1.9-0.6,4.2-0.4,5.9,0.6c0.5,0.4,2,1.3,3,3.7l5.9,16.6V8.1L29,14.5l-2.8-8c0.4-1.8,1.7-3.3,3.3-4.1c1.7-0.8,3.7-0.5,5.2,0.5
		c1.5,1.1,1.9,2.5,2,4.8l0,16.3c-0.2,2.7-1.9,4.2-3.4,4.8C32.5,29.1,32.2,29.1,31.4,29.1L31.4,29.1z"/>
	<path class="st0" d="M56.8,2.4l8.8,26.3h-6.4L57.3,23H49l-1.8,5.7h-6.5l8.8-26.3H56.8L56.8,2.4z M50.7,17.7h5l-2.3-6.9H53
		L50.7,17.7L50.7,17.7z"/>
	<path class="st0" d="M77.7,2.4c5.6,0,8.6,2,8.6,6.6c0,2.6-1.1,4.8-3.2,5.8c2.4,0.8,3.9,2.8,3.9,6.1c0,5-3.3,7.8-9.5,7.8H66.9V2.4
		H77.7L77.7,2.4z M73.2,12.4h4.3c1.7,0,2.7-0.9,2.7-2.6c0-1.6-1-2.3-2.6-2.3h-4.4V12.4L73.2,12.4z M73.2,23.4h4.4
		c2.1,0,3.3-0.9,3.3-2.8c0.1-2-1.3-2.9-3.4-2.9h-4.3V23.4L73.2,23.4L73.2,23.4z"/>
	<path class="st0" d="M106.3,12.1c-0.4-2.3-2.5-4.7-5.6-4.7c-3.4,0-6.2,2.4-6.2,7.9c0,4.3,1.9,8.2,6.1,8.2c2.6,0,4.7-1.6,5.5-4.2
		l5.3,2.3c-1.5,4.1-5.7,7.6-11.6,7.3c-7.3-0.4-11.4-5.5-11.4-13.3c0-9,5.4-13.1,11.7-13.4c6.2-0.2,10.2,3.3,11.4,7.4
		C111.4,9.7,106.3,12,106.3,12.1L106.3,12.1z"/>
	<path class="st0" d="M8.8,33.4l5.7,15.4h-2L11,44.7H4l-1.5,4.1l-2,0l5.7-15.4H8.8L8.8,33.4z M4.6,43.1h5.8l-2.8-7.6H7.4L4.6,43.1
		L4.6,43.1z"/>
	<path class="st0" d="M17.9,33.4v9.7c0,2.7,1.4,4.2,3.8,4.2c2.5,0,3.8-1.5,3.8-4.2v-9.7h1.9V43c0,4.2-2.5,5.9-5.7,5.9
		c-3.2,0-5.7-1.8-5.7-5.9v-9.7H17.9L17.9,33.4z"/>
	<path class="st0" d="M40.1,36.1c0,0-2.4-1.3-4.5-1.3c-1.9,0-3.3,0.6-3.3,2.2c0,3.6,8.9,2,8.9,7.3c0,3-2.5,4.6-5.7,4.6
		c-3.6,0-5.8-1.8-5.8-1.8l1-1.5c0,0,2,1.7,4.7,1.7c2.3,0,3.8-1.2,3.8-2.8c0-3.7-8.9-2.3-8.9-7.3c0-2.6,2.1-3.9,5.2-3.9
		c2.7,0,5.3,1.4,5.3,1.4L40.1,36.1L40.1,36.1z"/>
	<polygon class="st0" points="53.3,33.4 53.2,35 48.8,35 48.8,48.8 47,48.8 47,35 42.5,35 42.5,33.4 53.3,33.4 	"/>
	<path class="st0" d="M60.3,33.4c3.1,0,5.5,1.5,5.4,4.8c0,2.2-1.2,3.7-3,4.3l3.4,6.2h-2.2l-3-5.8c-0.3,0-0.9,0.1-1.2,0.1H57v5.7
		h-1.9V33.4H60.3L60.3,33.4z M57,41.5H60c2.4,0,3.7-1.4,3.8-3.3c0-1.9-1.1-3.2-3.6-3.2H57V41.5L57,41.5z"/>
	<path class="st0" d="M75.6,33.4l5.6,15.4h-2l-1.5-4.1h-7l-1.5,4.1l-2,0l5.8-15.4H75.6L75.6,33.4z M71.4,43.1h5.8l-2.8-7.6h-0.2
		L71.4,43.1L71.4,43.1z"/>
	<polygon class="st0" points="85.2,33.4 85.2,47.2 92,47.2 92,48.8 83.3,48.8 83.3,33.4 85.2,33.4 	"/>
	<polygon class="st0" points="95.4,33.4 95.4,48.8 93.5,48.8 93.5,33.4 95.4,33.4 	"/>
	<path class="st0" d="M105.7,33.4l5.6,15.4h-2l-1.5-4.1h-7l-1.5,4.1l-2,0l5.8-15.4H105.7L105.7,33.4z M101.5,43.1h5.8l-2.8-7.6h-0.2
		L101.5,43.1L101.5,43.1z"/>
</g>
</svg>
