<svg xmlns="http://www.w3.org/2000/svg" viewBox="0 0 120 120"><g id="layer"><path d="M18.39,56.75l5.29,15.93,5.39-15.93h6.65L27.27,80.22H19.65l-8.6-23.47Z"/><path d="M51.78,80.2a19.79,19.79,0,0,1-.22-3.2,7.78,7.78,0,0,1-7,3.77c-3.4,0-4.94-1-5.86-1.85a7.29,7.29,0,0,1-2.06-5.16,7.85,7.85,0,0,1,5-7.3c2.88-1.3,7-1.3,9.27-1.3A9.55,9.55,0,0,0,50.58,62a3.19,3.19,0,0,0-3.06-1.95,3.12,3.12,0,0,0-2.59,1.3,3.55,3.55,0,0,0-.51,2.09H37.69A6.49,6.49,0,0,1,40.35,58,12.3,12.3,0,0,1,47.48,56c2,0,6,.32,8.35,3,1.57,1.92,1.61,4.68,1.61,5.77l0,9.43a26.9,26.9,0,0,0,.58,5.94Zm-8.47-7.26a3.23,3.23,0,0,0,3.34,3.33,3.91,3.91,0,0,0,2.92-1.34c1.22-1.48,1.3-3.3,1.3-5.8C46.47,68.77,43.31,70.17,43.31,72.94Z"/><path d="M61.65,60.92c0-.1,0-2.67-.14-4.28h6.61l.18,3.53c.65-1.07,2.5-4.09,7.62-4.09,4.59,0,6.55,2.81,7.16,4.42.51,1.44.65,2.67.65,7V80.2h-7V65.59a5.6,5.6,0,0,0-.37-2.54A3.61,3.61,0,0,0,73,61a4.27,4.27,0,0,0-3.57,1.79,6.31,6.31,0,0,0-.83,3.57V80.14h-6.9l-.06-19.22Z"/><path d="M91.23,52.65v4.24h-4.5v4.56h4.5V74.32c0,2,0,6.31,6.91,6.31a20.93,20.93,0,0,0,5.32-.75V75.34a16.06,16.06,0,0,1-2.32.14c-3.06,0-3.06-1.34-3.12-3.49V61.41h5.56V56.85H98v-6.1Z"/><path d="M.85,56.69H7.71V80.22H.85Z"/><path d="M107.77,56.69h6.86V80.22h-6.86Z"/><polygon points="114.63 43.79 114.63 50.66 119.19 50.66 119.19 39.23 107.77 39.23 107.77 43.79 114.63 43.79"/><rect x="107.77" y="46.1" width="4.58" height="4.58"/><rect x="0.81" y="43.71" width="6.87" height="6.87"/></g></svg>