<?xml version="1.0" encoding="utf-8"?>
<!-- Generator: Adobe Illustrator 24.1.3, SVG Export Plug-In . SVG Version: 6.00 Build 0)  -->
<svg version="1.1" id="Layer_1" xmlns="http://www.w3.org/2000/svg" xmlns:xlink="http://www.w3.org/1999/xlink" x="0px" y="0px"
	 viewBox="0 0 158.1 66.8" style="enable-background:new 0 0 158.1 66.8;" xml:space="preserve">
<style type="text/css">
	.st0{fill:#383B43;}
</style>
<g>
	<g>
		<path class="st0" d="M19.6,62.2v-6.8c0-2.2-0.6-2.9-2-2.9s-2,0.7-2,2.8v6.8h-3.3v-6.8c0-2.2-0.6-2.9-2-2.9s-2,0.7-2,2.8v6.8H5
			V49.7h3.3v0.8c0.6-0.6,1.4-1.1,2.7-1.1c1.6,0,2.5,0.5,3.5,1.6c0.9-0.9,1.9-1.6,4-1.6c3.2,0,4.5,2.2,4.5,5.7v7.1H19.6z"/>
		<path class="st0" d="M27.7,62.3c-2.2,0-3.9-1.8-3.9-4.3c0-2.6,1.7-4.4,4-4.4c1.6,0,2.6,0.8,3.3,1.8L29.7,57
			c-0.5-0.7-1-1.2-1.9-1.2c-1,0-1.7,0.9-1.7,2.2c0,1.3,0.7,2.2,1.7,2.2c0.9,0,1.4-0.4,2-1.1l1.4,1.3C30.3,61.6,29.4,62.3,27.7,62.3"
			/>
		<path class="st0" d="M39.4,53.6c-0.5-0.7-1.3-1.1-2.2-1.1c-1.3,0-2,1.1-2,3.2c0,2.6,0.9,3.6,2.1,3.6c1,0,1.5-0.4,2-1V53.6z
			 M39.4,62.2v-0.8c-0.6,0.5-1.5,1-2.6,1c-2.7,0-4.9-2-4.9-6.7c0-3.7,1.8-6.4,4.9-6.4c1.1,0,2,0.4,2.6,1v-3.9l3.3-1.6v17.4H39.4z"/>
		<path class="st0" d="M49.5,52.6c-1.6,0-2.3,1.4-2.3,3.4c0,1.9,0.7,3.3,2.3,3.3c1.6,0,2.3-1.6,2.3-3.3C51.8,54,51.1,52.6,49.5,52.6
			 M49.5,62.4c-3.3,0-5.6-2.7-5.6-6.5s2.4-6.5,5.6-6.5c3.3,0,5.7,2.7,5.7,6.5S52.8,62.4,49.5,62.4"/>
		<path class="st0" d="M63.8,62.2v-6.8c0-2.2-0.8-2.9-2.1-2.9c-1.4,0-2.1,0.7-2.1,2.8v6.8h-3.3V49.7h3.3v0.8
			c0.6-0.6,1.6-1.1,2.9-1.1c3.2,0,4.6,2.2,4.6,5.7v7.1H63.8z"/>
		<path class="st0" d="M75.8,56.9c-0.6-0.4-1.1-0.5-2.3-0.5c-1.2,0-1.9,0.6-1.9,1.6c0,0.9,0.5,1.7,1.9,1.7c1.1,0,1.9-0.5,2.3-1.1
			V56.9z M75.8,62.2v-0.8c-0.6,0.6-1.6,1.1-2.8,1.1c-2.3,0-4.7-1.4-4.7-4.5c0-2.8,2.2-4.1,5.1-4.1c1.1,0,1.9,0.2,2.4,0.5v-0.6
			c0-0.9-0.6-1.6-1.8-1.6c-1.5,0-2.3,0.2-3.4,0.8l-1.3-2.3c1.5-0.8,2.7-1.3,4.7-1.3c3,0,5.1,1.6,5.1,4.4v8.4H75.8z"/>
	</g>
	<polygon class="st0" points="81.1,62.2 81.1,46.4 84.3,44.8 84.3,62.2 	"/>
	<g>
		<path class="st0" d="M93.3,53.6c-0.5-0.7-1.3-1.1-2.2-1.1c-1.3,0-2,1.1-2,3.2c0,2.6,0.9,3.6,2.1,3.6c1,0,1.5-0.4,2-1V53.6z
			 M93.3,62.2v-0.8c-0.6,0.5-1.5,1-2.6,1c-2.7,0-4.9-2-4.9-6.7c0-3.7,1.8-6.4,4.9-6.4c1.1,0,2.1,0.4,2.6,1v-3.9l3.3-1.6v17.4H93.3z"
			/>
		<path class="st0" d="M106.1,48.6c-1,0-1.9-0.9-1.9-1.9s0.9-1.9,1.9-1.9c1,0,1.9,0.9,1.9,1.9S107.2,48.6,106.1,48.6 M102.9,66.8
			l-1.1-2.5c2.3-0.4,2.8-0.9,2.8-2.9V49.7h3.3v11.6C107.8,64.7,106.7,66.1,102.9,66.8"/>
		<path class="st0" d="M114.8,52.6c-1.6,0-2.3,1.4-2.3,3.4c0,1.9,0.7,3.3,2.3,3.3c1.6,0,2.3-1.6,2.3-3.3
			C117.1,54,116.4,52.6,114.8,52.6 M114.8,62.4c-3.3,0-5.6-2.7-5.6-6.5s2.4-6.5,5.6-6.5c3.3,0,5.7,2.7,5.7,6.5
			S118.1,62.4,114.8,62.4"/>
		<path class="st0" d="M129.3,62.2v-6.8c0-2.2-0.8-2.9-2.1-2.9c-1.4,0-2.1,0.7-2.1,2.8v6.8h-3.3V49.7h3.3v0.8
			c0.6-0.6,1.6-1.1,2.9-1.1c3.2,0,4.6,2.2,4.6,5.7v7.1H129.3z"/>
		<path class="st0" d="M139.1,52.2c-1.2,0-1.9,1-2,2.2h4.3C141.2,53.4,140.5,52.2,139.1,52.2 M144.5,57H137c0.1,1.7,1.4,2.4,2.6,2.4
			c0.9,0,1.7-0.3,2.1-0.9l2.3,2c-1,1.3-2.8,2-4.5,2c-3.6,0-5.9-2.5-5.9-6.5c0-3.8,2.4-6.5,5.6-6.5c3.3,0,5.3,3,5.3,6.5
			C144.5,56.4,144.5,56.7,144.5,57"/>
		<path class="st0" d="M150.4,62.4c-2,0-3.9-0.6-5.2-1.5l1.1-2.5c1.3,0.7,2.7,1.1,4.3,1.1c1.3,0,1.7-0.3,1.7-1
			c0-0.6-0.5-0.9-1.8-1.3c-3-0.9-4.9-1.6-4.9-4.3c0-2.6,2.1-3.7,5-3.7c1.6,0,3.3,0.5,4.6,1.2l-1,2.6c-1.2-0.7-2.6-1-3.6-1
			c-1.3,0-1.7,0.3-1.7,0.8c0,0.5,0.4,0.7,2.6,1.5c2.2,0.7,4.2,1.5,4.2,4.1C155.5,61.4,153.2,62.4,150.4,62.4"/>
	</g>
	<polygon class="st0" points="48,25.3 63.6,12.1 79.3,25.3 79.3,33.9 48,33.9 	"/>
	<polygon class="st0" points="48,3.8 48,20.7 63.6,7.3 79.3,20.7 79.3,3.8 	"/>
	<polygon class="st0" points="81.1,25.3 96.8,12.1 112.5,25.3 112.5,33.9 81.1,33.9 	"/>
	<polygon class="st0" points="81.1,3.8 81.1,20.7 96.8,7.3 112.5,20.7 112.5,3.8 	"/>
</g>
</svg>
