<?xml version="1.0" encoding="utf-8"?>
<!-- Generator: Adobe Illustrator 24.1.3, SVG Export Plug-In . SVG Version: 6.00 Build 0)  -->
<svg version="1.1" id="Layer_1" xmlns="http://www.w3.org/2000/svg" xmlns:xlink="http://www.w3.org/1999/xlink" x="0px" y="0px"
	 viewBox="0 0 153.5 30.3" style="enable-background:new 0 0 153.5 30.3;" xml:space="preserve">
<style type="text/css">
	.st0{fill:#383B43;}
	.st1{fill-rule:evenodd;clip-rule:evenodd;fill:#383B43;}
</style>
<g>
	<path class="st0" d="M16,9.6l9.2,0V3.8H15c-0.1,0-0.3,0-0.4,0C10.9,3.8,8,6.7,8,10.3c0,2.7,1.6,5,3.9,6l6.5,3.3
		c1.5,0.8,1.3,2.2-0.4,2.2H8.6l0-2.9l-3.9,2.9l-3.9,2.9l3.9,2.9l3.9,2.9l0-2.9l11.1,0.1c3.6,0,6.5-2.9,6.5-6.5c0-1.8-0.4-3.8-2-5
		l-8.5-4.4C15.1,11.2,15.2,9.6,16,9.6L16,9.6z M46.9,3.9v15.2c0,2.7-0.9,4.8-2.7,6.4c-1.8,1.6-4.2,2.4-7.3,2.4c-3,0-5.3-0.8-6.9-2.3
		c-1.6-1.6-2.4-3.8-2.4-6.7v-15h7.1v15.7c0,1.4,1.2,2.6,2.6,2.6l0,0c1.4,0,2.6-1.2,2.6-2.6V3.9H46.9L46.9,3.9z M62,27.4
		c3.6,0,6.5-2.9,6.5-6.5c0-2.5-1.4-4.6-3.4-5.7c1.6-1.1,2.6-3,2.6-5c0-3.3-2.5-5.9-5.7-6.2V3.9H48.9v23.5H62L62,27.4z M55.9,17.7
		h3.4c1.3,0,2.5,1.1,2.5,2.4v0c0,1.3-1,2.3-2.3,2.3h-3.5V17.7L55.9,17.7z M55.9,9.1h2.8c1.1,0,2.1,0.9,2.1,2.1v0
		c0,1.1-0.9,1.9-1.9,1.9h-3V9.1L55.9,9.1z"/>
	<path class="st1" d="M141.5,9.5v4.8c0,3.4-2.7,6.1-6,6.3v6.9h-7.6v-6.9c-3.2-0.3-5.8-3-5.8-6.3V3.9h6.9v9.4c0,1.2,1,2.2,2.2,2.2h1
		c1.2,0,2.2-1,2.2-2.2v-5h0c0,0,0-0.1,0-0.1c0-2.4,1.9-4.3,4.3-4.3h0h0h0h0h0h0h0h0h0l0,0v0h0.8h1.7h3.4l0-2.9l3.9,2.9l3.9,2.9
		l-3.9,2.9l-3.9,2.9l0-2.9H141.5L141.5,9.5z M108,27.5h-7.1V12.5c0-2.9,0.9-5.1,2.7-6.7c1.8-1.6,4.3-2.4,7.6-2.4
		c3.1,0,5.4,0.7,6.9,2.2c1.5,1.4,2.2,3.7,2.2,6.7v15.2h-7.1v-6.9H108V27.5L108,27.5z M113.3,15.5v-3.9c0-1.4-1.2-2.6-2.6-2.6l0,0
		c-1.4,0-2.6,1.2-2.6,2.6v3.9H113.3L113.3,15.5z M99.2,4v16.9c0,2.1-0.7,3.8-2.2,5.2c-1.5,1.3-3.4,2-5.8,2c-0.1,0-0.3,0-0.4,0
		c-1.3,0.1-4,0.1-6.1-1.7c-2,2-4.7,1.8-5.8,1.8c-0.4,0-0.8,0-1.2,0c-2.5,0-4.4-0.7-5.7-2c-1.3-1.3-2-3.3-2-5.8V4h7v16
		c0,1.1,0.9,2.1,2.1,2.1l0,0c1.1,0,2.1-0.9,2.1-2.1V4h6.7v16c0,1.1,0.9,2.1,2.1,2.1l0,0c1.1,0,2.1-0.9,2.1-2.1V4H99.2L99.2,4z
		 M138.7,24c0.3,0,0.6,0.1,0.9,0.2c0.3,0.2,0.5,0.4,0.7,0.6c0.2,0.3,0.2,0.6,0.2,0.9c0,0.3-0.1,0.6-0.2,0.9
		c-0.2,0.3-0.4,0.5-0.6,0.7c-0.3,0.2-0.6,0.2-0.9,0.2c-0.3,0-0.6-0.1-0.9-0.2c-0.3-0.2-0.5-0.4-0.7-0.7c-0.2-0.3-0.2-0.6-0.2-0.9
		c0-0.3,0.1-0.6,0.2-0.9c0.2-0.3,0.4-0.5,0.7-0.6C138.2,24.1,138.4,24,138.7,24L138.7,24z M138.7,24.3c-0.2,0-0.5,0.1-0.7,0.2
		c-0.2,0.1-0.4,0.3-0.5,0.5c-0.1,0.2-0.2,0.5-0.2,0.7c0,0.3,0.1,0.5,0.2,0.7c0.1,0.2,0.3,0.4,0.5,0.5c0.2,0.1,0.5,0.2,0.7,0.2
		c0.3,0,0.5-0.1,0.7-0.2c0.2-0.1,0.4-0.3,0.5-0.5c0.1-0.2,0.2-0.5,0.2-0.7c0-0.3-0.1-0.5-0.2-0.7c-0.1-0.2-0.3-0.4-0.5-0.5
		C139.2,24.4,139,24.3,138.7,24.3L138.7,24.3z M138,26.8v-1.9h0.6c0.2,0,0.4,0,0.5,0.1c0.1,0,0.2,0.1,0.2,0.2
		c0.1,0.1,0.1,0.2,0.1,0.3c0,0.1,0,0.3-0.1,0.4c-0.1,0.1-0.2,0.2-0.4,0.2c0.1,0,0.1,0.1,0.2,0.1c0.1,0.1,0.2,0.2,0.3,0.4l0.2,0.4
		h-0.4l-0.2-0.3c-0.1-0.2-0.2-0.4-0.3-0.4c-0.1,0-0.1-0.1-0.2-0.1h-0.2v0.8H138L138,26.8z M138.3,25.7h0.4c0.2,0,0.3,0,0.4-0.1
		c0.1-0.1,0.1-0.1,0.1-0.2c0-0.1,0-0.1,0-0.1c0,0-0.1-0.1-0.1-0.1c-0.1,0-0.2,0-0.3,0h-0.3V25.7L138.3,25.7z"/>
</g>
</svg>
