<svg id="Layer_1" data-name="Layer 1" xmlns="http://www.w3.org/2000/svg" viewBox="0 0 120 120"><defs><style>.cls-1{fill-rule:evenodd;}</style></defs><path class="cls-1" d="M83.08,63.69H73.71V61.12h9.37V58.91H73.71V56.37h9.37V54.15H71.49V65.91H83.08V63.69Z"/><path class="cls-1" d="M11.32,56.31H4.57a1.28,1.28,0,0,0-1.29,1.2v.16a1.29,1.29,0,0,0,1.27,1.21h8a2.22,2.22,0,0,1,2.22,2.21v2.57h0v.06h0v.06h0v0h0v.06h0v0h0V64h0v0h0v.06h0v0h0v0h0l0,0h0v0h0l0,.05a2.22,2.22,0,0,1-2.1,1.51H3.28a2.22,2.22,0,0,1-2.21-2.22v-.92H3.33a1.29,1.29,0,0,0,1.22.92H11.3a1.28,1.28,0,0,0,1.28-1.2V62.3a1.29,1.29,0,0,0-1.28-1.21h-8a2.21,2.21,0,0,1-2.21-2.21V56.31h0a2.22,2.22,0,0,1,2.21-2.22h9.3a2.23,2.23,0,0,1,2.22,2.22v.92H12.53a1.27,1.27,0,0,0-1.21-.92Zm3.48,0ZM1.07,63.66Zm0-4.78ZM14.8,61.09Z"/><path class="cls-1" d="M115.45,56.31H108.7a1.28,1.28,0,0,0-1.28,1.2v5a1.28,1.28,0,0,0,1.28,1.2h6.73a1.28,1.28,0,0,0,1.29-1.2V61.09h-4.65V58.88h6.86v2.2h0v2.57h0v.06h0v.06h0v0h0v.06h0v0h0V64h0v0h0v.06h0v0h0l0,0h0v0h0l0,0h0v.05a2.22,2.22,0,0,1-2.1,1.51h-9.3a2.21,2.21,0,0,1-2-1.26h0l0-.05h0a1.19,1.19,0,0,1-.08-.2h0l0-.05h0v0h0l0,0h0v-.06h0v0h0v-.06h0v0h0v-.06h0v0h0v-.06h0v0h0v-.06h0v-.06h0V56.31h0v-.06h0v-.11h0v-.06h0v0h0V56h0v0h0v-.06h0v0h0v-.05h0l0,0h0v-.05h0l0,0h0l0-.05h0l0,0h0l0,0h0l0-.05h0l0,0h0l0-.05h0l0,0h0l0,0,0-.05h0l.06-.09h0a1.09,1.09,0,0,1,.13-.17h0l0,0h0l.08-.08h0l0,0h0l0,0h0l0,0h0l.08-.07h0l0,0h0l.13-.09h0l0,0h0l0,0h0l0,0h0l0,0h0l0,0,0,0h0l.05,0h0l0,0h0l0,0h0l0,0h0l.05,0h0l0,0h.11l0,0h9.75a2.22,2.22,0,0,1,2.21,2.22v.92h-2.26a1.29,1.29,0,0,0-1.22-.92Zm3.48,0ZM105.2,63.66Z"/><path class="cls-1" d="M35.21,54.22V65.81h2.22V57.74h0a.36.36,0,0,1,.35-.36.37.37,0,0,1,.32.21l3.38,8.21H43.7l3.37-8.2h0v0a.36.36,0,0,1,.34-.19.37.37,0,0,1,.35.36h0v8.07H50V54.22H46.25l-3.33,8.1h0a.35.35,0,0,1-.63,0l-3.35-8.14H35.21Z"/></svg>