<svg xmlns="http://www.w3.org/2000/svg" viewBox="0 0 120 120"><g id="svg2"><g id="g4105"><path id="path2163" d="M14.89,73.94A14.17,14.17,0,0,1,3.09,62.76a17,17,0,0,1-.17-4.45A14.08,14.08,0,0,1,14.8,46.11a16.88,16.88,0,0,1,4.87.11,14.09,14.09,0,0,1,10.54,9.4,13.24,13.24,0,0,1,.7,4.39,14.08,14.08,0,0,1-11,13.74A21,21,0,0,1,14.89,73.94Zm1.46-6.38a17.87,17.87,0,0,1-2.21-3.51,4,4,0,0,1-.34-2,3.13,3.13,0,0,1,.3-1.77,3,3,0,0,1,2.78-1.85C18.69,58.44,20,60,20,62.11c0,1.39-.73,3-2.17,4.86L17,68l.8-.07A10,10,0,0,0,24,65a8.77,8.77,0,0,0,1.88-2.69,8.42,8.42,0,0,0,.94-4.24,8.44,8.44,0,0,0-.23-2.42,10,10,0,0,0-19.34,0,11.58,11.58,0,0,0,0,4.8,10.05,10.05,0,0,0,7.9,7.37,9.83,9.83,0,0,0,1.17.15h.41Zm56,.71a10.89,10.89,0,0,1-2.91-1,6.34,6.34,0,0,1-2.87-4.79,14.64,14.64,0,0,1,.17-4.14,6.33,6.33,0,0,1,2.54-3.78,10.53,10.53,0,0,1,6-1.11,6.92,6.92,0,0,1,4.64,1.9,6,6,0,0,1,1.62,3.05,14.24,14.24,0,0,1,.05,5.08A5.94,5.94,0,0,1,77,68.12a14,14,0,0,1-4.67.15Zm3.6-2.69a2.68,2.68,0,0,0,1.53-1.38,6.58,6.58,0,0,0,.65-3.29c0-3.43-1.21-4.93-4-4.93a3.59,3.59,0,0,0-2.67.84c-.91.82-1.3,2-1.3,4.09,0,2.83.88,4.4,2.73,4.87a6.85,6.85,0,0,0,3-.2ZM41.53,67.89c-.06-.14-1.44-3.28-3.08-7s-3-6.77-3-6.81A5.21,5.21,0,0,1,36.83,54c1.22,0,1.41,0,1.83.24a2.39,2.39,0,0,1,.74.67c.15.22,1.05,2.25,2,4.49s1.77,4.15,1.81,4.23A38.4,38.4,0,0,0,45,59.49c.94-2.37,1.82-4.46,2-4.64a2.15,2.15,0,0,1,.69-.59c.43-.22.6-.24,2-.24h1.51l-2.91,6.44c-1.6,3.54-3,6.59-3.17,6.78-.45.59-1,.79-2.29.85-1.12,0-1.14,0-1.23-.2Zm15,0a5.91,5.91,0,0,1-4.31-4.5,11.52,11.52,0,0,1,0-4.75,6.36,6.36,0,0,1,2.86-4c1.2-.64,1.61-.69,5.48-.7H64v2.55l-3,.05-3,0-.7.35a2.34,2.34,0,0,0-1,.77,3.92,3.92,0,0,0-.59,1.77v.24l4,0,4,0v2.44l-4,0-4,0v.23a4.63,4.63,0,0,0,.18.85,2.66,2.66,0,0,0,1.6,1.79c.57.23.79.24,3.6.28l3,0V68H60.56c-1.93,0-3.76-.06-4.05-.12Zm31.25-.08a7.21,7.21,0,0,1-1.21-.43,4.77,4.77,0,0,1-1.75-1.84c-.48-1-.51-1.51-.52-6.69V54h1.11c1,0,1.17,0,1.49.24.71.44.68.26.74,5.22l0,4.51.27.47a1.68,1.68,0,0,0,.79.74c.51.27.58.27,3.1.31l2.57,0V68H91.46a14.58,14.58,0,0,1-3.7-.2Zm8.68-6.34c0-6.22,0-6.56.23-6.84.34-.49.75-.64,1.94-.69l1.09,0v6.53c0,7.22,0,7-.67,7.38-.28.17-.53.21-1.48.21H96.41Zm5,6.42c0-.07,1.29-3,2.8-6.44,3.06-7.07,3.09-7.11,4.14-7.38a6.69,6.69,0,0,1,2.73,0c.09.11,5.75,13.07,6,13.79.07.16,0,.18-1.32.18-2.06,0-2.39-.21-3.2-2l-.48-1.1-2.83,0-2.83,0-.11.29c-.06.16-.32.72-.57,1.25a2.7,2.7,0,0,1-.91,1.28c-.44.31-.49.32-2,.35-1.23,0-1.51,0-1.47-.11Zm9.88-5.73c-.81-1.94-1.92-4.5-2-4.56a33.55,33.55,0,0,0-2,4.35l-.15.34h2.08C110.93,62.28,111.37,62.26,111.33,62.15Z"/></g></g></svg>