<svg id="Layer_1" data-name="Layer 1" xmlns="http://www.w3.org/2000/svg" viewBox="0 0 120 120"><path d="M62.36,41.59h1.53L68,52H66.43l-1.14-3.13h-4.4L59.72,52H58.3Zm-1,6.1h3.52l-1.73-4.85h0Z"/><path d="M74.65,52H73.48V50.8h0A2.62,2.62,0,0,1,71,52.17c-2,0-2.59-1.14-2.59-2.76V44.46h1.24v5.1a1.42,1.42,0,0,0,1.53,1.52,2.12,2.12,0,0,0,2.23-2.37V44.46h1.24Z"/><path d="M76.9,49.62c0,1.11,1,1.46,2,1.46.77,0,1.82-.18,1.82-1.13s-1.22-1.12-2.46-1.4-2.47-.68-2.47-2.12,1.51-2.15,2.82-2.15c1.66,0,3,.53,3.09,2.36H80.49c-.09-1-.93-1.26-1.75-1.26s-1.6.2-1.6,1,1.31,1,2.46,1.31,2.46.68,2.46,2.14c0,1.8-1.67,2.38-3.2,2.38-1.69,0-3.12-.69-3.2-2.55Z"/><path d="M84.86,44.46h1.5v1.09h-1.5v4.68c0,.57.16.67.93.67h.57V52h-1c-1.28,0-1.79-.26-1.79-1.64v-4.8H82.34V44.46h1.28V42.2h1.24Z"/><path d="M87.61,44.46h1.17v1.59h0a2.75,2.75,0,0,1,2.77-1.77V45.6c-2,0-2.73,1.13-2.73,3V52H87.61Z"/><path d="M98.89,52a1.58,1.58,0,0,1-.89.21c-.64,0-1-.35-1-1.17a3.37,3.37,0,0,1-2.66,1.17c-1.37,0-2.49-.61-2.49-2.12,0-1.7,1.27-2.07,2.55-2.31s2.54-.18,2.54-1.11c0-1.08-.89-1.25-1.68-1.25-1,0-1.82.32-1.88,1.43H92.1c.07-1.87,1.52-2.53,3.19-2.53,1.36,0,2.83.31,2.83,2.07v3.88c0,.58,0,.84.39.84a1,1,0,0,0,.38-.07Zm-2-3.86a6.22,6.22,0,0,1-2.24.51c-.82.15-1.52.44-1.52,1.36s.7,1.1,1.46,1.1c1.63,0,2.3-1,2.3-1.7Z"/><rect x="99.82" y="41.59" width="1.24" height="10.41"/><path d="M103.64,43.1H102.4V41.59h1.24Zm-1.24,1.36h1.24V52H102.4Z"/><path d="M111.8,52a1.58,1.58,0,0,1-.89.21c-.64,0-1-.35-1-1.17a3.34,3.34,0,0,1-2.65,1.17c-1.37,0-2.49-.61-2.49-2.12,0-1.7,1.27-2.07,2.55-2.31s2.54-.18,2.54-1.11c0-1.08-.89-1.25-1.68-1.25-1,0-1.82.32-1.88,1.43H105c.07-1.87,1.52-2.53,3.19-2.53,1.36,0,2.83.31,2.83,2.07v3.88c0,.58,0,.84.39.84a1,1,0,0,0,.38-.07Zm-2-3.86a6.22,6.22,0,0,1-2.24.51c-.82.15-1.52.44-1.52,1.36s.7,1.1,1.46,1.1c1.63,0,2.3-1,2.3-1.7Z"/><path d="M112.66,44.46h1.17v1.19h0a2.62,2.62,0,0,1,2.44-1.37c2,0,2.6,1.14,2.6,2.76v5h-1.24v-5.1a1.41,1.41,0,0,0-1.53-1.51,2.12,2.12,0,0,0-2.23,2.36V52h-1.24Z"/><polygon points="58.91 54.16 60.38 54.16 65.86 62.59 65.89 62.59 65.89 54.16 67.2 54.16 67.2 64.56 65.69 64.56 60.25 56.21 60.22 56.21 60.22 64.56 58.91 64.56 58.91 54.16"/><path d="M75.55,64.53a1.69,1.69,0,0,1-.89.21c-.64,0-1-.35-1-1.17A3.34,3.34,0,0,1,71,64.74c-1.37,0-2.49-.62-2.49-2.12,0-1.7,1.26-2.07,2.55-2.31s2.53-.18,2.53-1.11c0-1.08-.89-1.26-1.67-1.26-1,0-1.82.33-1.88,1.43H68.76c.07-1.86,1.51-2.52,3.19-2.52,1.36,0,2.83.31,2.83,2.07V62.8c0,.58,0,.84.39.84a1,1,0,0,0,.38-.07Zm-2-3.86a6.5,6.5,0,0,1-2.25.51c-.81.15-1.51.44-1.51,1.36s.7,1.1,1.46,1.1c1.63,0,2.3-1,2.3-1.7Z"/><path d="M78.13,57h1.5v1.09h-1.5V62.8c0,.57.16.67.93.67h.57v1.09h-.95c-1.28,0-1.79-.26-1.79-1.65V58.12H75.61V57h1.28V54.77h1.24Z"/><path d="M82,55.67H80.78V54.16H82ZM80.78,57H82v7.53H80.78Z"/><path d="M86.61,56.85c2.39,0,3.66,1.74,3.66,3.95S89,64.74,86.61,64.74,83,63,83,60.8s1.27-3.95,3.66-3.95m0,6.79c1.3,0,2.35-1,2.35-2.84s-1-2.86-2.35-2.86-2.35,1-2.35,2.86,1,2.84,2.35,2.84"/><path d="M91.36,57h1.16v1.19h0A2.63,2.63,0,0,1,95,56.85c2,0,2.6,1.14,2.6,2.76v5H96.36v-5.1A1.42,1.42,0,0,0,94.83,58a2.12,2.12,0,0,0-2.23,2.36v4.25H91.36Z"/><path d="M105.48,64.53a1.69,1.69,0,0,1-.89.21c-.64,0-1-.35-1-1.17a3.34,3.34,0,0,1-2.65,1.17c-1.37,0-2.49-.62-2.49-2.12,0-1.7,1.26-2.07,2.55-2.31s2.53-.18,2.53-1.11c0-1.08-.89-1.26-1.67-1.26-1,0-1.82.33-1.88,1.43H98.69c.07-1.86,1.51-2.52,3.19-2.52,1.36,0,2.83.31,2.83,2.07V62.8c0,.58,0,.84.39.84a1,1,0,0,0,.38-.07Zm-2-3.86a6.5,6.5,0,0,1-2.25.51c-.81.15-1.51.44-1.51,1.36s.7,1.1,1.45,1.1c1.64,0,2.31-1,2.31-1.7Z"/><rect x="106.41" y="54.16" width="1.24" height="10.41"/><path d="M67.23,73.37c0,2.62-1.5,4-4.1,4s-4.27-1.24-4.27-4V66.72h1.39v6.65a2.59,2.59,0,0,0,2.88,2.84c1.75,0,2.71-1,2.71-2.84V66.72h1.39Z"/><path d="M68.58,69.59h1.17v1.2h0a2.62,2.62,0,0,1,2.45-1.37c2,0,2.59,1.14,2.59,2.75v5H73.58V72a1.42,1.42,0,0,0-1.53-1.52,2.12,2.12,0,0,0-2.23,2.36v4.26H68.58Z"/><path d="M77.34,68.24H76.1V66.72h1.24ZM76.1,69.59h1.24v7.54H76.1Z"/><polygon points="82.37 77.13 81.04 77.13 78.24 69.59 79.63 69.59 81.74 75.88 81.77 75.88 83.83 69.59 85.12 69.59 82.37 77.13"/><path d="M91.85,74.74a3,3,0,0,1-3.22,2.56c-2.4,0-3.54-1.66-3.61-4a3.63,3.63,0,0,1,3.54-3.92c2.67,0,3.48,2.49,3.41,4.31H86.33a2.22,2.22,0,0,0,2.35,2.48,1.81,1.81,0,0,0,1.95-1.47Zm-1.19-2.1a2.17,2.17,0,0,0-2.17-2.13,2.15,2.15,0,0,0-2.16,2.13Z"/><path d="M92.92,69.59h1.16v1.59h0a2.74,2.74,0,0,1,2.77-1.76v1.31c-2,0-2.72,1.14-2.72,3v3.35H92.92Z"/><path d="M98.57,74.75c.05,1.11,1,1.46,2,1.46.77,0,1.82-.17,1.82-1.12S101.19,74,100,73.69s-2.47-.68-2.47-2.13,1.5-2.14,2.82-2.14c1.66,0,3,.52,3.09,2.36h-1.24c-.09-1-.94-1.27-1.75-1.27s-1.6.21-1.6,1,1.31,1,2.46,1.32,2.46.68,2.46,2.14c0,1.79-1.67,2.37-3.21,2.37s-3.11-.68-3.19-2.55Z"/><path d="M105.83,68.24h-1.24V66.72h1.24Zm-1.24,1.35h1.24v7.54h-1.24Z"/><path d="M109.18,69.59h1.5v1.1h-1.5v4.68c0,.56.16.67.93.67h.57v1.09h-1c-1.28,0-1.79-.26-1.79-1.65V70.69h-1.28v-1.1h1.28V67.34h1.24Z"/><path d="M115,78.14c-.57,1.47-1.08,2-2.19,2A2.53,2.53,0,0,1,112,80V78.88a2.67,2.67,0,0,0,.73.17,1.06,1.06,0,0,0,1-.68l.51-1.28-3-7.5h1.4l2.2,6.17h0L117,69.59h1.31Z"/><path d="M51.39,71.22a14.61,14.61,0,0,0-3.07-2.32,11.8,11.8,0,0,0-1.79-.71l.45-.9c1-2.1,1.94-3.91,1.55-5.12L48.46,62h0v0a3.61,3.61,0,0,0-.72-1A17.67,17.67,0,0,0,45,59.24l-.23-.13A2.38,2.38,0,0,0,42.66,59a5.41,5.41,0,0,0-2.74,3c-.4,1.43.28,1.89.35,1.93l1.52.94-1.68,4c-1.76.6-3.62,1.41-5.45,2.21a41.42,41.42,0,0,1-6.88,2.59l-.16,0c-.2,0-.43.1-.77.14a3.77,3.77,0,0,1-.55,0h0a2.93,2.93,0,0,1-.55,0c-.34,0-.57-.1-.77-.14l-.16,0a41.42,41.42,0,0,1-6.88-2.59c-1.83-.8-3.69-1.61-5.45-2.21l-1.67-4L12.31,64l0,0a1.73,1.73,0,0,0,.3-1.93,6,6,0,0,0-3-3,2.24,2.24,0,0,0-1.91.14l-.23.13A17.67,17.67,0,0,0,4.85,61a3.38,3.38,0,0,0-.71,1l0,0h0l-.07.18c-.39,1.21.51,3,1.55,5.12.15.29.3.6.45.9a11.8,11.8,0,0,0-1.79.71,14.61,14.61,0,0,0-3.07,2.32.29.29,0,0,0-.05.36,11.6,11.6,0,0,1,1.11,2.35,11.32,11.32,0,0,1,.17,3,1,1,0,0,0,0,.17h0c0,.6.54,1.19,1.42,1.58a5.06,5.06,0,0,0,2,.42,3.68,3.68,0,0,0,2.49-.87h0a19.93,19.93,0,0,1,4.09-2.74l.69.33.11,0a72.84,72.84,0,0,0,7.27,3A20.11,20.11,0,0,0,26.16,80h.27a20.13,20.13,0,0,0,5.63-1.14,72.84,72.84,0,0,0,7.27-3l.11,0,.7-.33a20,20,0,0,1,4.08,2.74h0a3.68,3.68,0,0,0,2.49.87,5,5,0,0,0,2-.42c.88-.39,1.41-1,1.42-1.58h0a.5.5,0,0,0,0-.17,11.77,11.77,0,0,1,.17-3,11.6,11.6,0,0,1,1.11-2.35.29.29,0,0,0,0-.36m-10.92-9a4.92,4.92,0,0,1,2.41-2.62,1.79,1.79,0,0,1,1.63,0l.23.14a19.85,19.85,0,0,1,2.4,1.47,2.07,2.07,0,0,0-.9.17c-1.63.66-3.09,2.52-3.09,3.53a1.1,1.1,0,0,0,0,.18l-2.59-1.61s-.39-.29-.11-1.3M44,65.6s-.25-.14-.25-.68a2.3,2.3,0,0,1,.5-1.15l1,.6a1.76,1.76,0,0,1,0,.37,1.19,1.19,0,0,1-1,.9l-.16,0m-1.7-.38,1.37.85h0l.11.06a1.24,1.24,0,0,0,.35.07,1.73,1.73,0,0,0,1.62-1.31,1.64,1.64,0,0,0,0-.78l0-.11-1.15-.69a5.09,5.09,0,0,1,1.87-1.4,1.13,1.13,0,0,1,1.49.32l.05.11c.31,1-.54,2.7-1.53,4.69l-.5,1A7.45,7.45,0,0,0,44.65,68a13.3,13.3,0,0,0-3.82.71ZM7.84,59.75l.23-.14a1.68,1.68,0,0,1,1.44-.1,5.46,5.46,0,0,1,2.61,2.71A1.18,1.18,0,0,1,12,63.5L9.41,65.1a1.1,1.1,0,0,0,0-.18c0-1-1.46-2.87-3.08-3.53a2.14,2.14,0,0,0-.91-.17,19.85,19.85,0,0,1,2.4-1.47m.77,5.85-.17,0a1.18,1.18,0,0,1-1-.9,1.33,1.33,0,0,1,0-.37l1-.6a2.36,2.36,0,0,1,.49,1.15c0,.47-.17.63-.22.67ZM6.12,67c-1-2-1.84-3.71-1.52-4.69,0,0,0-.08,0-.11a1.13,1.13,0,0,1,1.49-.32A5.09,5.09,0,0,1,8,63.32L6.85,64l0,.11a1.64,1.64,0,0,0,0,.78,1.73,1.73,0,0,0,1.62,1.31,1,1,0,0,0,.36-.08l.07,0h0l1.39-.87,1.45,3.45A13.3,13.3,0,0,0,7.93,68a7.45,7.45,0,0,0-1.31.11c-.16-.35-.33-.7-.5-1m2.5,9.71A3.12,3.12,0,0,1,8,77.81H8a3.8,3.8,0,0,1-3.9.36C3.4,77.88,3,77.47,3,77.1V77c.16-.76,2-2.7,5.33-2.74a5,5,0,0,1,.3,2.5m.58.07a5,5,0,0,0-.27-2.53,11.63,11.63,0,0,1,2.85.91A23,23,0,0,0,9.2,76.82M40.8,75.2a11.63,11.63,0,0,1,2.85-.91,5,5,0,0,0-.27,2.53A23,23,0,0,0,40.8,75.2m7.72,3a3.83,3.83,0,0,1-3.9-.36h0A3.68,3.68,0,0,1,44,76.75a5,5,0,0,1,.3-2.5c3.33,0,5.17,2,5.33,2.74v.11c0,.37-.42.78-1.08,1.08m1.26-4.4a9.26,9.26,0,0,0-.22,2,7.24,7.24,0,0,0-5.4-2.16,13,13,0,0,0-5,1.65l-.1.05a75.4,75.4,0,0,1-7.2,3,19.43,19.43,0,0,1-5.46,1.11h-.25a19.53,19.53,0,0,1-5.47-1.11,75.4,75.4,0,0,1-7.2-3l-.1-.05a13,13,0,0,0-5-1.65A7.24,7.24,0,0,0,3,75.83a8.7,8.7,0,0,0-.22-2,11.18,11.18,0,0,0-1-2.3,13.46,13.46,0,0,1,2.76-2.06,6.93,6.93,0,0,1,3.42-.89c2.65,0,6.27,1.58,9.76,3.11a42.78,42.78,0,0,0,7,2.62l.16,0a5.94,5.94,0,0,0,.82.16,6,6,0,0,0,.66,0c.08,0,.27,0,.62,0a6.47,6.47,0,0,0,.83-.16l.15,0a42.78,42.78,0,0,0,7-2.62c3.5-1.53,7.11-3.11,9.76-3.11a6.93,6.93,0,0,1,3.42.89,13.46,13.46,0,0,1,2.76,2.06,11.18,11.18,0,0,0-1,2.3"/><path d="M26.32,72.1h0c-.95,0-2.38-.26-5.77-2.24-3.55-2.07-5.33-3.47-6.48-6.31S12.51,57.36,12.51,51c0-6.1.25-10.85.25-10.89a.32.32,0,0,1,.1-.21.34.34,0,0,1,.22-.07c6.39.57,10.45.66,12.3.66h1.88c1.85,0,5.91-.09,12.31-.66a.33.33,0,0,1,.21.07.28.28,0,0,1,.1.21s.25,4.79.25,10.89c0,6.34-.42,9.74-1.55,12.53s-2.94,4.24-6.48,6.31-4.83,2.24-5.78,2.24m-13-31.65c-.05,1.13-.23,5.36-.23,10.57,0,6.26.41,9.6,1.51,12.32s2.81,4,6.24,6,4.66,2.17,5.48,2.17h0c.83,0,2.19-.25,5.49-2.17S37,66,38,63.34,39.56,57.28,39.56,51c0-5.21-.19-9.44-.24-10.57-6.24.55-10.23.63-12.06.63H25.38c-1.83,0-5.81-.08-12.06-.63"/><path d="M36.4,60.2a5.43,5.43,0,0,0-3,1.09,3.67,3.67,0,0,1-2,.78,3.7,3.7,0,0,1-2-.78,5.4,5.4,0,0,0-3.05-1.09,5.43,5.43,0,0,0-3.05,1.09,3.7,3.7,0,0,1-2,.78,3.7,3.7,0,0,1-2-.78,5.4,5.4,0,0,0-3.05-1.09,4.49,4.49,0,0,0-1.79.38,16.24,16.24,0,0,0,.45,1.61,2.84,2.84,0,0,1,1.34-.35,3.93,3.93,0,0,1,2.18.84,5.19,5.19,0,0,0,2.86,1,5.23,5.23,0,0,0,2.87-1,3.87,3.87,0,0,1,2.17-.84,3.93,3.93,0,0,1,2.18.84,5.19,5.19,0,0,0,2.86,1,5.23,5.23,0,0,0,2.87-1,3.87,3.87,0,0,1,2.17-.84,2.84,2.84,0,0,1,1.34.35c.17-.5.32-1,.45-1.6a4.26,4.26,0,0,0-1.79-.39"/><path d="M18.42,59a5.12,5.12,0,0,0,2.86,1,5.15,5.15,0,0,0,2.87-1,3.93,3.93,0,0,1,2.17-.83A4,4,0,0,1,28.5,59a5.12,5.12,0,0,0,2.86,1,5.15,5.15,0,0,0,2.87-1l.11-.07-5.53-1.66a17.63,17.63,0,0,0-2.5-.6h0a82.33,82.33,0,0,0-8,2.26l.12.07"/><path d="M36.4,63.9a5.43,5.43,0,0,0-3,1.08,3.68,3.68,0,0,1-2,.79,3.72,3.72,0,0,1-2-.79,5.4,5.4,0,0,0-3.05-1.08A5.43,5.43,0,0,0,23.27,65a3.72,3.72,0,0,1-2,.79,3.72,3.72,0,0,1-2-.79,5.4,5.4,0,0,0-3.05-1.08,3.6,3.6,0,0,0-.58,0,7.85,7.85,0,0,0,1.22,1.68,5.1,5.1,0,0,1,1.54.75,5.12,5.12,0,0,0,2.86,1,5.15,5.15,0,0,0,2.87-1,3.86,3.86,0,0,1,2.17-.83,3.92,3.92,0,0,1,2.18.83,5.12,5.12,0,0,0,2.86,1,5.15,5.15,0,0,0,2.87-1,5.1,5.1,0,0,1,1.54-.75A8.6,8.6,0,0,0,37,63.94a3.73,3.73,0,0,0-.59,0"/><path d="M28.59,68.48a3.91,3.91,0,0,0-2.27-.89,3.46,3.46,0,0,0-2,.82,5.08,5.08,0,0,1-2,1,20.32,20.32,0,0,0,2.06,1,9.93,9.93,0,0,0,.86-.56,2.16,2.16,0,0,1,1.05-.52,2.49,2.49,0,0,1,1.35.61c.2.14.42.28.67.43a17.67,17.67,0,0,0,2-.93,5.15,5.15,0,0,1-1.74-.86"/><polygon points="32.08 42.47 32.34 43.4 33.28 43.21 32.71 43.99 33.44 44.61 32.48 44.64 32.46 45.61 31.83 44.88 31.06 45.46 31.23 44.52 30.3 44.28 31.14 43.82 30.76 42.95 31.64 43.32 32.08 42.47"/><polygon points="28.09 45.69 27.27 45.19 27.51 46.12 26.61 46.43 27.49 46.82 27.18 47.72 28.02 47.27 28.53 48.09 28.71 47.13 29.67 47.25 29.03 46.52 29.72 45.85 28.77 45.89 28.65 44.93 28.09 45.69"/><polygon points="34.93 46.23 34.07 45.81 34.41 46.71 33.55 47.12 34.46 47.41 34.24 48.34 35.04 47.8 35.63 48.56 35.7 47.6 36.67 47.61 35.96 46.96 36.57 46.21 35.63 46.35 35.42 45.41 34.93 46.23"/><polygon points="31.94 48.02 31.03 48.06 31.75 48.62 31.5 49.49 32.24 48.97 33 49.49 32.74 48.61 33.46 48.06 32.56 48.04 32.25 47.17 31.94 48.02"/><polygon points="30.34 50.72 29.43 50.45 29.9 51.28 29.11 51.82 30.06 51.96 29.99 52.92 30.7 52.26 31.4 52.92 31.32 51.95 32.27 51.82 31.48 51.28 31.96 50.45 31.05 50.73 30.7 49.84 30.34 50.72"/><path d="M26.39,55.68c1,0,10.7,3.11,11,3.19s1.2.46,1.2-.33-1.28-1.17-5-3S27.31,52.5,26.4,52.5,23,53.77,19.28,55.57s-5.05,2.19-5.05,3,.93.41,1.21.33,9.92-3.19,10.93-3.19Z"/><path d="M4.71,71.55a1.66,1.66,0,0,1-.11-.29l.13-.11-.07-.1-.25.13-.24.13.08.11a1,1,0,0,1,.15-.06s0,0,0,0,.17.32.37.73l.09.14,0,.1-.55-.28-.88-.48-.23.12-.2.11.08.11.14,0h0v0l.06.11.36.71.12.25.09.22H4l0,.06s0,0-.13.11l.06.11h0l.26-.13.22-.13,0-.1h0a.34.34,0,0,1-.1,0v0l-.05,0L4.09,73l-.19-.37-.18-.31-.11-.23c.65.36,1.16.63,1.52.8l.19,0,0,0q-.11-.17-.48-.93l-.15-.31m-.06-.47Zm-.45.24ZM5,72.4l-.12-.06.11,0Zm-1.84-.55h0Zm1.27,1.36h0Zm-.06-.07h0m-.74-1.09.37.2-.36-.17Z"/><path d="M6.86,72.17H6.8L5.69,70.72l-.17.06-.07,1.54c0,.12,0,.19,0,.21l0,0-.11.07,0,.12.52-.17-.06-.12a.22.22,0,0,1-.16,0s0-.07,0-.23v-.14l.53-.17.17.25a.48.48,0,0,1,0,.11l-.15.08.06.12L7,72.28l0-.12Zm-.79-.37h0Zm-.45.13v0h0m.22-.08a.54.54,0,0,0-.17.07h0l0-.65.3.38.09.13-.22.06m0,.73Zm.46-.11h0Zm.65-.21h0Z"/><path d="M7.89,70.38l0,0-.1,0-.37,0-.44,0-.37,0h-.1l0,0a.74.74,0,0,1,0,.12s0,.13.07.32l.1,0a1.47,1.47,0,0,1,0-.21l0,0,.21,0,.13,0s0,.15,0,.36l.09.77a1.63,1.63,0,0,1,0,.33s0,0,0,0,0,0-.16.06l0,.13H7l.35-.06.38,0,0-.13H7.57s0,0,0,0a2.47,2.47,0,0,1,0-.33L7.4,71a.92.92,0,0,0-.06-.33l.16,0h.24v0c0,.06,0,.12.06.21l.11,0c0-.18,0-.28,0-.29v-.14M7.73,72.2Z"/><path d="M9.55,70.63h.06a.15.15,0,0,0,.08,0v-.13H9.41a1.3,1.3,0,0,0-.26,0v.13a.22.22,0,0,1,.16.06s0,.06,0,.19,0,.19,0,.42l0,.26a.88.88,0,0,1-.07.37.29.29,0,0,1-.13.14.44.44,0,0,1-.24,0,.32.32,0,0,1-.2-.06.28.28,0,0,1-.12-.12.5.5,0,0,1,0-.19s0-.14,0-.29l0-.46a1.43,1.43,0,0,1,.06-.38h.08a.15.15,0,0,0,.08,0V70.4L8,70.35v.13l.15.06s0,0,0,.07,0,.21,0,.33l-.05.58c0,.14,0,.22,0,.25a.51.51,0,0,0,0,.17.39.39,0,0,0,.1.16.59.59,0,0,0,.17.13,1,1,0,0,0,.31.08H8.8l.18,0a.72.72,0,0,0,.2-.09A.52.52,0,0,0,9.32,72a.66.66,0,0,0,.08-.21c0-.09,0-.17,0-.24l0-.31c0-.09,0-.21,0-.37a1.22,1.22,0,0,1,.05-.28m.13,0Zm0-.09Zm-.49,0h0Zm-.45-.06Zm-.68,0Z"/><path d="M12.46,73.13l-.05,0,0,0V71.27l-.17,0-.76.93-.22.26-.14.16h0l-.07,0H11v0a.16.16,0,0,1-.08-.06l-.06-.17-.13-.5a.85.85,0,0,1,0-.09.23.23,0,0,0,0-.1h0a.56.56,0,0,0,.3-.14.5.5,0,0,0,.16-.27.43.43,0,0,0,0-.25.34.34,0,0,0-.12-.16.76.76,0,0,0-.25-.1l-.22,0-.2,0-.21-.06a.37.37,0,0,0-.19,0v.13c.11,0,.14,0,.15.07a.74.74,0,0,1,0,.19L9.72,72a.65.65,0,0,1-.08.17H9.48v.14l.31.07a3.23,3.23,0,0,0,.39.09v-.14A.45.45,0,0,1,10,72.3a.51.51,0,0,1,0-.09s0-.12.07-.3.07-.27.1-.4.07-.24.13-.47a.57.57,0,0,0,0-.19h.1l.15.06a.24.24,0,0,1,.08.13.31.31,0,0,1,0,.19.44.44,0,0,1-.1.19.26.26,0,0,1-.13.09c-.05,0-.1,0-.21,0l0,.06a.93.93,0,0,1,.05.1c0,.08,0,.2.08.34l.12.51a.37.37,0,0,0,0,.09l.17,0,.21.06h0l.5.17,0-.13c-.11,0-.13-.06-.13-.1s0-.06.12-.18l.08-.13.52.19v.3a.14.14,0,0,1,0,.11l-.16,0,0,.13.36.12.31.13,0-.15Zm-.85-.93.1-.12-.1.13h0m.43.14-.21-.07a.54.54,0,0,0-.19,0h0l.41-.5v.63Zm0,0h0m-2.55,0h0m.67.15h0m1.23.38Zm.43.19h0Z"/><path d="M15.12,72.61l0-.14-.3-.13-.19-.08-.13.13-.29.28-.28.27a2.62,2.62,0,0,0-.21.23l-.07.06,0-1.41-.21-.08-.31-.13,0,.13.11.07,0,0s0,.06-.08.22-.12.27-.19.43-.14.3-.18.38l-.14.29s0,0,0,0l-.16,0,0,.13.25.1a1.45,1.45,0,0,0,.25.11l0-.13-.11-.07,0,0,0,0A1.4,1.4,0,0,1,13,73c.06-.13.11-.25.15-.35l.12-.3.1-.24v.71c0,.11,0,.29,0,.52s0,.24,0,.34l.09,0,.17-.17.27-.26.39-.4.28-.26-.37.82c-.08.17-.12.26-.14.29s0,0,0,0l-.16,0,0,.13.32.13.34.17,0-.15c-.1-.06-.11-.07-.12-.11s0-.09.06-.19a.91.91,0,0,0,.08-.17l.41-.9c0-.07,0-.09.09-.1l.11,0Zm0-.13h0Zm-1.46.77v0h0m-.45-1.61Zm-.72,1.65Zm.46.19h0m.42-1.4v0Zm1.16.53-.18.41.15-.39Zm-.75,1.26h0Z"/><path d="M16.59,73.93a.68.68,0,0,0,.18-.23.5.5,0,0,0,.05-.26.33.33,0,0,0-.08-.18.64.64,0,0,0-.2-.14l-.78-.34,0,.13.13.09s0,0,0,0,0,.08-.08.18l-.29.64c-.08.15-.14.29-.21.41s0,.07-.06.08l-.16,0,0,.13a1.59,1.59,0,0,1,.27.12l.38.19h0l.05-.15-.13-.08v0a.35.35,0,0,1,0-.13l.15-.35.33-.67a1,1,0,0,0,.08-.2l.13,0a.23.23,0,0,1,.13.16.37.37,0,0,1,0,.26.4.4,0,0,1-.17.19c-.06,0-.08.05-.21,0l0,0-.05,0v.13L16,74,16,74a.48.48,0,0,0,.29,0,.47.47,0,0,0,.26-.11m-.82-1.12ZM15,74.45h0Z"/><path d="M17.6,75.46a1.5,1.5,0,0,0,0-.18s0,0,0-.14l0-.38a.38.38,0,0,1,0-.08c0-.05,0-.09,0-.11a.54.54,0,0,0,.31-.09.45.45,0,0,0,.2-.23.35.35,0,0,0,0-.24.37.37,0,0,0-.08-.19,1.36,1.36,0,0,0-.23-.14l-.22-.09-.18-.07-.19-.09c-.09-.05-.14-.08-.18-.07l0,.12c.11.06.13.08.13.1a.94.94,0,0,1-.06.18l-.48,1a.76.76,0,0,1-.11.16l-.16,0,0,.13.29.13a3.17,3.17,0,0,0,.37.15l0-.13a.38.38,0,0,1-.13-.09l0-.08.12-.28c.06-.14.11-.26.17-.38s.1-.22.21-.44.08-.17.07-.18l.1,0,.13.08a.35.35,0,0,1,.06.14.28.28,0,0,1,0,.19.43.43,0,0,1-.12.17.26.26,0,0,1-.16.07.71.71,0,0,1-.2,0l0,.06a.25.25,0,0,1,0,.1c0,.09,0,.21,0,.35l0,.52a.38.38,0,0,0,0,.1l.16.07.22.1h0l.05-.15a.12.12,0,0,1-.07-.07M17,73.38ZM16.25,75h0Zm.63.27h0Z"/><path d="M18.27,75.81v-.06a.64.64,0,0,1,.05-.16l.31-.7a3.21,3.21,0,0,1,.14-.32l.05-.11a.16.16,0,0,1,.08-.08.75.75,0,0,0,.15,0l0-.13-.35-.14a2.15,2.15,0,0,0-.32-.13l0,.13c.09,0,.12.06.13.1a.94.94,0,0,1-.07.19,2.72,2.72,0,0,1-.13.31l-.21.5L18,75.5a.26.26,0,0,1-.08.11l-.15,0,0,.13.3.12.35.16h0l0-.15-.11-.06Zm.78-1.52ZM18.42,74Zm-.7,1.66Z"/><path d="M21.1,75.25l0-.15L20.83,75a1.24,1.24,0,0,0-.2-.07.87.87,0,0,1-.12.14l-.27.29-.27.29-.2.23-.06.07,0-1.41-.21-.07-.32-.11,0,.13a.34.34,0,0,1,.12.06v0a1.25,1.25,0,0,1-.08.22c0,.13-.1.28-.16.44s-.12.31-.16.39l-.12.29s0,0,0,0l-.17,0,0,.13.25.09a1.58,1.58,0,0,0,.26.09l0-.13-.12-.06,0,0,0,0a1.54,1.54,0,0,1,.08-.23c.05-.14.1-.26.13-.36l.1-.31.1-.24v.71c0,.11,0,.29,0,.52s0,.24,0,.34l.1,0,.16-.18.25-.27.37-.42.26-.27-.32.84a1.88,1.88,0,0,1-.13.29.07.07,0,0,1,0,0l-.17,0,0,.13.33.12.34.14,0-.14c-.1,0-.11-.06-.13-.1a.86.86,0,0,1,.06-.2s0-.07.07-.18l.36-.92a.12.12,0,0,1,.08-.09l.11,0Zm0-.14h0ZM19.69,76v-.5l0,.49h0m-.54-1.59h0Zm-.63,1.69h0Zm.48.16h0m.32-1.37,0,0v.36Zm1.21.42-.17.42.14-.39Zm-.69,1.3h0Z"/><path d="M22.61,75.74l0,0h.13v-.13l-.26-.07-.25-.06,0,.13a.26.26,0,0,1,.15.09,1.35,1.35,0,0,1-.05.18s-.05.19-.11.41l-.08.25a1.06,1.06,0,0,1-.14.34.29.29,0,0,1-.16.11.33.33,0,0,1-.24,0,.38.38,0,0,1-.19-.1.31.31,0,0,1-.09-.14.46.46,0,0,1,0-.2s0-.13.08-.28l.13-.44c.05-.17.09-.28.11-.33l.05,0h.14l0-.1,0,0-.68-.19,0,.13.14.09a.23.23,0,0,1,0,.07,2.66,2.66,0,0,1-.09.32l-.16.56a1.8,1.8,0,0,0-.07.24.91.91,0,0,0,0,.17.64.64,0,0,0,.06.18.43.43,0,0,0,.15.15.73.73,0,0,0,.29.15,1,1,0,0,0,.24,0h0a.79.79,0,0,0,.22,0,.76.76,0,0,0,.17-.13.52.52,0,0,0,.12-.19c0-.08.06-.16.08-.23l.09-.29c0-.09.06-.21.11-.36s.09-.23.09-.24m.16-.13h0Zm-.48-.13h0Zm-.43-.14h0Zm-.65-.18Zm.5,2Z"/><path d="M24.36,75.92a1.14,1.14,0,0,1-.09.16l-.21.34-.21.32a3,3,0,0,0-.15.27l-.06.08-.29-1.38a1.81,1.81,0,0,1-.23,0l-.33-.05v.13l.12,0,0,0a1.31,1.31,0,0,1,0,.23c0,.14-.05.29-.08.46s-.06.33-.08.41-.06.27-.07.32,0,0-.06,0a.59.59,0,0,0-.14,0v.14l.26,0,.27,0v-.14c-.1,0-.12,0-.13,0h0v0a1.71,1.71,0,0,1,0-.24c0-.15,0-.27.06-.38l0-.33,0-.25.15.69c0,.12.06.29.1.52s.05.23.08.33h.09a2.12,2.12,0,0,1,.13-.2l.19-.32.29-.48.21-.31-.17.88c0,.18-.05.28-.06.31s0,0-.05,0h-.15v.13l.7.14v-.16c-.11,0-.12,0-.14-.07a1.09,1.09,0,0,1,0-.2,1.88,1.88,0,0,1,0-.19l.19-1a.15.15,0,0,1,0-.1.17.17,0,0,1,.13,0h0V76l-.32,0-.21,0m-.73,1.2-.17-.82.18.8v0m-.82-1.46Zm-.31,1.77h0Zm.5.07h0m.07-1.45.07.35-.08-.31Zm1.26.23-.09.44.06-.4Zm-.44,1.41h0Zm1-1.67h0Z"/><path d="M26.4,76.21h0a.46.46,0,0,1,.22,0,.51.51,0,0,1,.16.13,1.52,1.52,0,0,0,0,.24h.1l0-.28q0-.09,0-.15l0,0-.28-.1-.29,0a.87.87,0,0,0-.67.26,1,1,0,0,0-.26.68,1.33,1.33,0,0,0,.08.45.68.68,0,0,0,.15.26.78.78,0,0,0,.24.2,1,1,0,0,0,.43.09h0a1,1,0,0,0,.25,0,.89.89,0,0,0,.26-.13l.05-.15,0-.05h0a.84.84,0,0,1-.22.1.66.66,0,0,1-.21,0h0a.61.61,0,0,1-.28-.07,1,1,0,0,1-.17-.14.9.9,0,0,1-.13-.26,1,1,0,0,1,0-.36.75.75,0,0,1,.16-.52.48.48,0,0,1,.4-.18m0,1.72h0Z"/><path d="M28.69,76.48a1.12,1.12,0,0,0-.1-.22.72.72,0,0,0-.17-.18.7.7,0,0,0-.24-.13,1.13,1.13,0,0,0-.75.09.9.9,0,0,0-.23.21.71.71,0,0,0-.14.33A1.15,1.15,0,0,0,27,77a1.27,1.27,0,0,0,.16.52.8.8,0,0,0,.33.28.66.66,0,0,0,.32.07H28a.87.87,0,0,0,.4-.14.63.63,0,0,0,.22-.21.79.79,0,0,0,.12-.3,1.23,1.23,0,0,0,0-.47,1.5,1.5,0,0,0,0-.26m-.33.82a.49.49,0,0,1-.13.27.48.48,0,0,1-.23.1.45.45,0,0,1-.26,0,.66.66,0,0,1-.2-.25,1.44,1.44,0,0,1-.13-.49,1.6,1.6,0,0,1,0-.38.49.49,0,0,1,.13-.27.41.41,0,0,1,.25-.11h.06a.35.35,0,0,1,.16,0,.52.52,0,0,1,.16.14.9.9,0,0,1,.12.24,1.6,1.6,0,0,1,.07.33,1.33,1.33,0,0,1,0,.45"/><path d="M30.52,76.75a.45.45,0,0,1,0-.06l.07-.08,0-.1-.66.19.05.12a.61.61,0,0,1,.22,0,1,1,0,0,1,0,.13l0,.12c0,.06,0,.11,0,.11l-.12.08a.29.29,0,0,1-.13.05.5.5,0,0,1-.45-.11,1,1,0,0,1-.31-.54.77.77,0,0,1,0-.57.51.51,0,0,1,.37-.29.71.71,0,0,1,.2,0,.48.48,0,0,1,.18,0l.06,0,0,.09a.52.52,0,0,0,.06.13l.1,0a3,3,0,0,1,0-.41l0,0a1.7,1.7,0,0,0-.28,0,1.48,1.48,0,0,0-.35,0,1.08,1.08,0,0,0-.27.1.82.82,0,0,0-.22.16.63.63,0,0,0-.16.23,1,1,0,0,0-.08.3,1,1,0,0,0,0,.37,1,1,0,0,0,.18.41.8.8,0,0,0,.2.21.88.88,0,0,0,.28.12.64.64,0,0,0,.2,0,1.27,1.27,0,0,0,.26,0,1,1,0,0,0,.29-.11,2,2,0,0,0,.33-.23L30.56,77s0-.11,0-.21m0-.21Zm-.62.17Z"/><path d="M32,75.35a1,1,0,0,1-.07-.29s0,0,.14-.1L32,74.85l-.27.1a1.56,1.56,0,0,0-.24.11l.06.11a.41.41,0,0,1,.16,0s0,0,0,0,.14.33.3.77l.07.14,0,.1c-.14-.08-.31-.19-.52-.34l-.81-.57-.25.1-.21.08.07.12.13,0h0v0l.05.11.27.75.09.27.07.22h0l0,.06-.15.08.05.13h0l.27-.11.14,0,.1-.06,0-.1h0l-.1,0,0,0h0l0,0-.07-.16-.15-.4L30.89,76l-.08-.25c.62.44,1.08.76,1.42,1l.19,0,0,0c0-.11-.17-.44-.37-1L32,75.35m0-.47h0Zm-.48.19h0m.64,1.15a.37.37,0,0,1-.12-.07l.11.06Zm-1.77-.74ZM31.45,77Zm-.05-.07Zm-.61-1.17.34.24-.33-.21Z"/><path d="M33.71,74.74a.87.87,0,0,0-.16-.17.91.91,0,0,0-.22-.13.75.75,0,0,0-.26,0,1.25,1.25,0,0,0-.37.09,1.07,1.07,0,0,0-.32.22.72.72,0,0,0-.16.27.85.85,0,0,0,0,.36,1.48,1.48,0,0,0,.11.41,1.27,1.27,0,0,0,.31.44.71.71,0,0,0,.4.17h.08a.94.94,0,0,0,.36-.08,1.16,1.16,0,0,0,.35-.25.82.82,0,0,0,.14-.28.85.85,0,0,0,0-.32,1.26,1.26,0,0,0-.12-.45,1.36,1.36,0,0,0-.13-.24m-.48,1.39-.08,0a.45.45,0,0,1-.27-.17,1.33,1.33,0,0,1-.27-.43,1.73,1.73,0,0,1-.11-.37.45.45,0,0,1,.25-.48.65.65,0,0,1,.18,0h0a.48.48,0,0,1,.19.09.85.85,0,0,1,.19.19,1.58,1.58,0,0,1,.17.29,1.34,1.34,0,0,1,.12.43.45.45,0,0,1,0,.3.42.42,0,0,1-.18.17.58.58,0,0,1-.18,0"/><path d="M35.05,74.58a.35.35,0,0,0-.11-.1.42.42,0,0,0-.12,0,.34.34,0,0,0-.17,0l-.15,0-.17,0h-.14a.2.2,0,0,1-.08,0,.31.31,0,0,1-.08-.11.31.31,0,0,1,0-.21.29.29,0,0,1,.16-.17.3.3,0,0,1,.18,0,.26.26,0,0,1,.14,0,1.61,1.61,0,0,0,.13.19l.09-.07-.09-.19s0-.11,0-.16l0,0h-.06l-.17,0-.22.08-.19.13a.59.59,0,0,0-.13.18.45.45,0,0,0,0,.24.68.68,0,0,0,.07.27.66.66,0,0,0,.12.17.39.39,0,0,0,.34.12l.27-.05.2,0a.22.22,0,0,1,.11,0,.44.44,0,0,1,.08.1.59.59,0,0,1,0,.17.3.3,0,0,1,0,.15.38.38,0,0,1-.14.11.45.45,0,0,1-.22,0,.38.38,0,0,1-.18-.06,1.1,1.1,0,0,0-.14-.21l-.09.07a3.73,3.73,0,0,1,.18.43h.26a1.13,1.13,0,0,0,.24-.08,1,1,0,0,0,.27-.21.51.51,0,0,0,.09-.18.54.54,0,0,0,0-.22.67.67,0,0,0-.08-.29.56.56,0,0,0-.1-.15m-.82.67Z"/><path d="M36.7,74.29h0a1,1,0,0,1-.15.19.74.74,0,0,1-.17.12.61.61,0,0,1-.28.07.68.68,0,0,1-.22-.05.8.8,0,0,1-.23-.16,1.14,1.14,0,0,1-.21-.3.79.79,0,0,1-.1-.54.46.46,0,0,1,.27-.34.41.41,0,0,1,.23-.07.37.37,0,0,1,.18,0s.07.11.14.2l.09-.06c0-.08-.07-.16-.1-.25a.65.65,0,0,1,0-.15l0,0-.29,0a1.72,1.72,0,0,0-.26.1.9.9,0,0,0-.49.55.93.93,0,0,0,.09.72,1.17,1.17,0,0,0,.28.37.82.82,0,0,0,.25.16.8.8,0,0,0,.3.06h0a1.14,1.14,0,0,0,.42-.11.91.91,0,0,0,.23-.16.83.83,0,0,0,.18-.24l0-.15Zm-.76.66Z"/><path d="M37.69,73.61a1.67,1.67,0,0,1,.07.24.26.26,0,0,1-.1.07,1.6,1.6,0,0,1-.19.11.57.57,0,0,0-.16.09.74.74,0,0,1-.08-.13L37,73.52l.16-.08a.52.52,0,0,1,.22-.07,1,1,0,0,1,.12.16l.09-.07-.29-.52-.09.07a.29.29,0,0,1,.06.16s0,0,0,0l-.16.09-.12.07-.11-.24c-.07-.13-.12-.25-.17-.32l.18-.09.2-.08s.06,0,.08,0l.12.17.09-.07-.14-.35,0,0h0l-.15.07-.19.1-.3.16-.37.2.07.1a.34.34,0,0,1,.15,0,.48.48,0,0,1,.09.15l.38.75c0,.06.07.16.14.29l.06.15a.49.49,0,0,1-.06.13l0,.09h0l.33-.18.32-.15.17-.08L38,74l0,0-.2-.41Zm.08,0h0m-.28-.07Zm0,0ZM37.28,73h0Z"/><path d="M39.39,73.17v0l0,0-.15-.09-.42-.31-.07,0s-.07,0-.1,0h0a.63.63,0,0,0,.16-.3.55.55,0,0,0,0-.31.49.49,0,0,0-.15-.19.33.33,0,0,0-.2,0,.73.73,0,0,0-.26.08l-.2.1-.18.09-.19.08c-.1,0-.15.06-.18.1l.07.1c.1,0,.14,0,.16,0a.77.77,0,0,1,.09.17l.47,1a.41.41,0,0,1,0,.18l-.13.1.06.13h0a1.83,1.83,0,0,1,.28-.14c.12-.06.24-.11.36-.18l-.07-.12a.34.34,0,0,1-.15,0s0,0-.05-.07l-.13-.28-.18-.37L38,72.35c0-.1-.07-.17-.09-.17l.09-.06a.31.31,0,0,1,.15,0,.25.25,0,0,1,.14,0,.4.4,0,0,1,.12.16.49.49,0,0,1,0,.2.34.34,0,0,1,0,.16.71.71,0,0,1-.17.13l0,.06.09,0,.29.21.4.33.08,0,.16-.07.23-.13-.07-.11-.06,0m-.63.42h0Zm.74-.34h0"/><path d="M40.46,72.42h0v0l-.1.06a1.08,1.08,0,0,1,0,.25l-.1.06-.2.09-.18.07a1.14,1.14,0,0,0-.06-.14l-.2-.48a.79.79,0,0,1,.16-.08.72.72,0,0,1,.22,0s0,0,.11.17l.09-.06L40,71.75l-.09.06A.79.79,0,0,1,40,72l-.06,0-.16.07-.13.06-.09-.25c-.06-.14-.1-.26-.13-.33l.18-.08.2-.06s.06,0,.09,0l.1.18.1-.06L40,71.18l0,0h-.05l-.15,0-.21.09-.31.12-.39.18.06.1.16,0a1,1,0,0,1,.08.16l.3.78c0,.07.06.17.11.31l.06.15-.08.13,0,.09h0l.35-.14.34-.13L40.4,73l.19-.08,0-.05c0-.1-.08-.23-.15-.4m0,0h0m-.28-.1Zm.06,0h0ZM40,71.78Z"/><path d="M42.63,72.14v0l0,0L42.46,72l-.11-.11-.25-.27L42,71.56a.28.28,0,0,0-.09-.07h0a.56.56,0,0,0,.2-.27.55.55,0,0,0,0-.31.37.37,0,0,0-.12-.21.28.28,0,0,0-.22-.09l-.23,0-.22.06-.19,0-.21,0a.41.41,0,0,0-.19.06l.05.12A.49.49,0,0,1,41,71a1.41,1.41,0,0,1,.05.18l.27,1.1a.62.62,0,0,1,0,.19l-.15.07,0,.13h0l.31-.09.39-.1-.05-.13a.46.46,0,0,1-.16,0,.16.16,0,0,1,0-.08s0-.13-.08-.3-.07-.27-.1-.4-.06-.24-.11-.48,0-.17-.06-.18l.1,0,.16,0a.31.31,0,0,1,.13.08.34.34,0,0,1,.09.17.38.38,0,0,1,0,.21.26.26,0,0,1-.07.14.54.54,0,0,1-.19.1v.06l.08.07c.06.06.14.14.24.26l.34.39s0,.05.06.07l.17,0,.26-.08-.05-.12h-.06m-1.81-1.26Zm1.1,1.56Zm.79-.19Z"/><path d="M43.86,71.68h0v0l-.11,0a1.47,1.47,0,0,1,0,.25l-.11,0-.22,0a.75.75,0,0,0-.19,0,1,1,0,0,0,0-.15l-.08-.52a.43.43,0,0,1,.17,0h.23a.52.52,0,0,1,.06.2l.11,0-.09-.58-.11,0a.54.54,0,0,1,0,.18h-.06l-.18,0a.25.25,0,0,0-.13,0l0-.27c0-.15,0-.28,0-.35l.2,0h.21c.06,0,.08,0,.09,0a1.16,1.16,0,0,0,0,.2l.1,0v-.37l0,0h-.21l-.22,0-.34,0-.42.07,0,.12a.3.3,0,0,1,.16,0s0,0,0,.17l.11.83q0,.11,0,.33c0,.08,0,.14,0,.16l-.1.1v.09h.11l.28,0,.36,0,.18,0,.2,0,0,0c0-.11,0-.24,0-.42Zm0,0h0Zm-.18-.2ZM43.57,71Z"/><path d="M45.42,72a.93.93,0,0,1-.1-.16l-.25-.46,0-.07s0-.08-.07-.09h0a.58.58,0,0,0,.27-.21.53.53,0,0,0,.09-.3.41.41,0,0,0-.06-.23.33.33,0,0,0-.15-.14.91.91,0,0,0-.27,0h-.66a.29.29,0,0,0-.17,0v.13c.12,0,.15,0,.16,0s0,.05,0,.19l0,1.13a.42.42,0,0,1,0,.19L44,72l0,.13h.32a2.67,2.67,0,0,0,.4,0l0-.14a.31.31,0,0,1-.15,0s0,0,0-.09v-.3c0-.15,0-.28,0-.41s0-.25,0-.5a.53.53,0,0,0,0-.19h.1a.45.45,0,0,1,.16,0,.26.26,0,0,1,.11.1.53.53,0,0,1,0,.19.46.46,0,0,1-.05.21.26.26,0,0,1-.11.12.28.28,0,0,1-.14,0l-.07,0v.06l.06.08c0,.08.1.18.17.32l.23.46,0,.09h.44V72a.12.12,0,0,1-.09,0M44,72.11Zm.68,0Z"/><path d="M46.92,71.75l.06-.3q0-.14.09-.36l.07-.25h.17v-.13L47,70.63l-.25,0v.13c.1,0,.13,0,.15.08s0,.06,0,.19,0,.18-.1.4l-.05.26a1.21,1.21,0,0,1-.12.36.44.44,0,0,1-.15.12.49.49,0,0,1-.24,0,.46.46,0,0,1-.2-.09.22.22,0,0,1-.09-.13.43.43,0,0,1,0-.2,1.77,1.77,0,0,1,.06-.29l.1-.44a2.73,2.73,0,0,1,.09-.34l0,0h.14l0-.11,0,0-.68-.13v.13l.14.07a.32.32,0,0,1,0,.08,2.49,2.49,0,0,1-.06.32l-.13.57a1.7,1.7,0,0,0,0,.25.58.58,0,0,0,.08.34.51.51,0,0,0,.15.14,1,1,0,0,0,.3.13l.2,0h.07a.52.52,0,0,0,.21-.07.42.42,0,0,0,.16-.13.55.55,0,0,0,.11-.2,2.17,2.17,0,0,0,.07-.24m.37-1h0Zm-.48-.09h0Zm-.44,0Zm0-.09h0Zm-.67-.13h0Z"/><path d="M49.16,71.51,49,71.43l-.13.13-.29.27-.29.27-.22.22-.07.06L48,71a1,1,0,0,1-.21-.09l-.31-.13,0,.13.11.07v0a1,1,0,0,1-.09.22c-.05.12-.12.26-.2.42s-.14.31-.18.38a1.87,1.87,0,0,1-.15.28s0,0,0,0l-.16,0,0,.13.25.1a1.45,1.45,0,0,0,.25.11l0-.13a.38.38,0,0,1-.11-.07l0,0,0,0,.1-.23.16-.35.12-.3.11-.24,0,.71c0,.12,0,.29,0,.52s0,.25,0,.34l.09,0,.18-.16c.11-.12.21-.2.27-.26l.4-.39.28-.25-.39.81a2.7,2.7,0,0,1-.14.29s0,0,0,0l-.16,0L48,73l.65.31,0-.15a.27.27,0,0,1-.13-.11l.08-.18a.86.86,0,0,1,.08-.18l.43-.89a.12.12,0,0,1,.08-.09.21.21,0,0,1,.11,0h0l.05-.15Zm.27.14h0ZM48,72.4l0-.84,0,.83h0m-.42-1.62h0m-.75,1.64h0Zm.46.19h0m.44-1.38v0Zm1.16.54-.19.41.16-.38ZM48.06,73h0Z"/></svg>