<svg id="Layer_1" data-name="Layer 1" xmlns="http://www.w3.org/2000/svg" viewBox="0 0 120 120"><defs><style>.cls-1{fill-rule:evenodd;}</style></defs><path class="cls-1" d="M15.8,60.36l5.41,6.9C24,70.7,30,72.3,34.43,70.57l0,.06c-5,2.66-11.63,1.31-15.82-2.08C15.7,66.25,14,63,11.53,60.35v5.47a1.3,1.3,0,0,0,.3.8H9.66a1.32,1.32,0,0,0,.29-.8V52.9c2.06,2.47,3.83,4.85,5.85,7.46Z"/><path class="cls-1" d="M116.18,65.16a1.63,1.63,0,1,1,1.62,1.63,1.63,1.63,0,0,1-1.62-1.63Zm1.62,1.47a1.47,1.47,0,1,0-1.46-1.47,1.46,1.46,0,0,0,1.46,1.47Z"/><path class="cls-1" d="M117.09,64.19H118c.4,0,.61.18.61.49a.45.45,0,0,1-.3.47h0c.11,0,.27.1.27.39a.85.85,0,0,0,.1.49h-.34a.5.5,0,0,1,0-.27c0-.34-.07-.49-.37-.49h-.47V66h-.33V64.19Zm.33.83h.52c.21,0,.32-.1.32-.29s-.15-.28-.32-.28h-.52V65Z"/><path class="cls-1" d="M109.55,66.83c-.84,0-6.58-.18-6.56-6.71s5.68-6.6,6.56-6.59,6.55.08,6.56,6.59-5.72,6.72-6.56,6.71Zm0-1.8c.37,0,3,.12,3-5.16,0-4.9-2.59-4.75-3-4.75h0c-.42,0-3-.15-3,4.75,0,5.28,2.62,5.16,3,5.16Z"/><path class="cls-1" d="M101.34,54.26v1.62a12.42,12.42,0,0,0-1.75-.68c-.56-.12-3-.69-4.09.51a1.3,1.3,0,0,0,.33,2.07c1.35.87,3.29,1.27,4.87,2.57a3,3,0,0,1,1.11,3.26,4.37,4.37,0,0,1-3.38,3A11.35,11.35,0,0,1,92,66.06V64.47c1.76.73,4.49,1.67,6.19.18a1.5,1.5,0,0,0,.5-1.66c-.39-1.16-3.53-1.84-5.45-3.28a3,3,0,0,1-1.07-4.28c1.8-2.69,6.35-2,9.2-1.17Z"/><path class="cls-1" d="M90.34,54.26v1.62a12,12,0,0,0-1.75-.68c-.56-.12-3-.69-4.09.51a1.3,1.3,0,0,0,.33,2.07c1.36.87,3.29,1.27,4.88,2.57a3,3,0,0,1,1.11,3.26,4.38,4.38,0,0,1-3.39,3A11.31,11.31,0,0,1,81,66.06V64.47c1.76.73,4.49,1.67,6.19.18a1.5,1.5,0,0,0,.5-1.66c-.38-1.16-3.53-1.84-5.45-3.28a3.06,3.06,0,0,1-1.07-4.28c1.8-2.69,6.36-2,9.21-1.17Z"/><path class="cls-1" d="M45.25,54.26v1.62a12,12,0,0,0-1.75-.68c-.56-.12-3-.69-4.09.51a1.3,1.3,0,0,0,.33,2.07c1.36.87,3.29,1.27,4.88,2.57a3,3,0,0,1,1.1,3.26,4.37,4.37,0,0,1-3.38,3,11.35,11.35,0,0,1-6.47-.58V64.47c1.76.73,4.49,1.67,6.19.18a1.5,1.5,0,0,0,.5-1.66c-.38-1.16-3.53-1.84-5.45-3.28a3,3,0,0,1-1.07-4.28c1.8-2.69,6.35-2,9.2-1.17Z"/><path class="cls-1" d="M17.11,60c2,2.61,3.79,5,5.84,7.46V54.52a1.37,1.37,0,0,1,.3-.8H21.08a1.32,1.32,0,0,1,.29.8V60c-1.85-2-3.25-4.27-5.06-6.26-.23-.28-1.8-2-2.27-2.36A12.32,12.32,0,0,0,.57,49l.05.09a9.64,9.64,0,0,1,6.51.4,8.85,8.85,0,0,1,4.09,2.93c.33.44,5.89,7.56,5.89,7.56Z"/><path class="cls-1" d="M29,65.31a49,49,0,0,0,5.56-.14v1.45H25.39a1.26,1.26,0,0,0,.29-.81V54.52a1.22,1.22,0,0,0-.29-.8h9.19v1.44A51.42,51.42,0,0,0,29,55s0,4,0,4.26a25.17,25.17,0,0,0,4.44-.07v1.53A32.59,32.59,0,0,0,29,60.68v4.63Z"/><path class="cls-1" d="M74.15,65.31a48.86,48.86,0,0,0,5.56-.14v1.45h-9.2a1.26,1.26,0,0,0,.29-.81V54.52a1.22,1.22,0,0,0-.29-.8h9.2v1.44A51.3,51.3,0,0,0,74.15,55v4.26a25.17,25.17,0,0,0,4.44-.07v1.53a32.61,32.61,0,0,0-4.44-.07v4.63Z"/><path class="cls-1" d="M61.66,61.29v4.52a1.26,1.26,0,0,0,.29.81H58a1.26,1.26,0,0,0,.29-.81V54.52a1.22,1.22,0,0,0-.29-.8h6.7c1.82.07,3.75,1.08,3.81,3.27a3.38,3.38,0,0,1-2,3.38c-.24.11-.22.08-.29.14.84,2,1.61,3.4,2.62,5.3a2.3,2.3,0,0,0,.62.81H65.46a.76.76,0,0,0,0-.81S64,62.42,63.34,61.29Zm0-5.94v4.34c1.1,0,2.45.15,3.22-.74A2.61,2.61,0,0,0,65,56.16c-.78-1.3-3.33-.81-3.33-.81Z"/><path class="cls-1" d="M50.65,65.81a1.26,1.26,0,0,0,.29.81H47a1.26,1.26,0,0,0,.29-.81V54.52a1.22,1.22,0,0,0-.29-.8h6.5a3.46,3.46,0,0,1,3.42,2.38,4.72,4.72,0,0,1-.63,4.3c-1.32,1.75-5.66,1.49-5.66,1.49l0,3.92Zm0-10.45V60.2c1.12.07,2.45.2,3.22-.69A3.63,3.63,0,0,0,54,56.17c-.77-1.3-3.32-.81-3.32-.81Z"/></svg>