<svg xmlns="http://www.w3.org/2000/svg" viewBox="0 0 120 120"><g id="svg2"><g id="layer1"><g id="g3359"><g id="g3371"><path id="path3356" d="M112.61,67.88A3.12,3.12,0,1,1,115.73,71a3.12,3.12,0,0,1-3.12-3.12"/><path id="path3360" d="M13.13,59.62A6.92,6.92,0,0,0,12,55.23,4.16,4.16,0,0,0,8.5,53.8H6.85V65.88H8.11a4.58,4.58,0,0,0,3.81-1.54,7.64,7.64,0,0,0,1.21-4.72m5.9-.2c0,3.6-1,6.37-2.9,8.32S11.48,70.66,8,70.66H1.16V49.09H8.44q5.09,0,7.84,2.66C18.11,53.52,19,56.07,19,59.42"/><path id="path3362" d="M37.91,70.66h5.42V49H37.91Z"/><path id="path3366" d="M51,62.58a7.33,7.33,0,0,0,.54,3.16,1.87,1.87,0,0,0,1.81,1.08,1.82,1.82,0,0,0,1.78-1.08,7.53,7.53,0,0,0,.52-3.16,7.21,7.21,0,0,0-.52-3.11,2.06,2.06,0,0,0-3.59,0A7,7,0,0,0,51,62.58m10.17,0a8.63,8.63,0,0,1-2.07,6.15,7.54,7.54,0,0,1-5.8,2.21,7.38,7.38,0,0,1-5.69-2.26,8.52,8.52,0,0,1-2.12-6.1,8.52,8.52,0,0,1,2.07-6.11,7.63,7.63,0,0,1,5.82-2.18,8.15,8.15,0,0,1,4.09,1,6.89,6.89,0,0,1,2.74,2.89,9.57,9.57,0,0,1,1,4.4"/><path id="path3370" d="M63.27,70.66H68.7V54.57H63.27Z"/><path id="path3372" d="M63.27,52.62H68.7V49H63.27Z"/><path id="path3376" d="M79.68,66.55A7.78,7.78,0,0,0,82.3,66v4a10.77,10.77,0,0,1-2.08.69,12.19,12.19,0,0,1-2.33.2A5,5,0,0,1,74,69.57a6.19,6.19,0,0,1-1.21-4.21V58.73h-1.9V54.57h1.9V50.46l5.46-1v5.06h3.46v4.16H78.21V65q0,1.56,1.47,1.56"/><path id="path3380" d="M92.23,66.55A7.78,7.78,0,0,0,94.85,66v4a10.77,10.77,0,0,1-2.08.69,12.19,12.19,0,0,1-2.33.2,5,5,0,0,1-3.93-1.37,6.19,6.19,0,0,1-1.21-4.21V58.73H83.4V54.57h1.9V50.4l5.46-.89v5.06h3.47v4.16H90.76V65q0,1.56,1.47,1.56"/><path id="path3384" d="M101.7,60.62a2.92,2.92,0,0,1,.75-1.94,2.24,2.24,0,0,1,1.6-.62,2.08,2.08,0,0,1,1.66.7,2.75,2.75,0,0,1,.64,1.86Zm7.64-4.44a7.51,7.51,0,0,0-5.48-1.89,7.39,7.39,0,0,0-5.74,2.18,8.88,8.88,0,0,0-2,6.25,8.13,8.13,0,0,0,2.17,6.08,8.28,8.28,0,0,0,6.09,2.14,18,18,0,0,0,3.25-.25,9.52,9.52,0,0,0,2.62-.92l-.84-3.62A10.76,10.76,0,0,1,105,67a3.71,3.71,0,0,1-2.47-.77,2.79,2.79,0,0,1-1-2.12h9.7V61.64a7.31,7.31,0,0,0-1.94-5.46"/><path id="path3388" d="M26.23,60.62A2.92,2.92,0,0,1,27,58.68a2.23,2.23,0,0,1,1.6-.62,2.08,2.08,0,0,1,1.65.7,2.76,2.76,0,0,1,.65,1.86Zm7.65-4.44a7.53,7.53,0,0,0-5.49-1.89,7.4,7.4,0,0,0-5.74,2.18,8.88,8.88,0,0,0-2,6.25,8.13,8.13,0,0,0,2.17,6.08,8.31,8.31,0,0,0,6.1,2.14,17.93,17.93,0,0,0,3.24-.25,9.52,9.52,0,0,0,2.62-.92l-.83-3.62a10.87,10.87,0,0,1-4.38.85,3.74,3.74,0,0,1-2.48-.77,2.81,2.81,0,0,1-1-2.12h9.69V61.64a7.3,7.3,0,0,0-1.93-5.46"/></g></g></g></g></svg>