<svg id="Layer_1" data-name="Layer 1" xmlns="http://www.w3.org/2000/svg" viewBox="0 0 120 120"><polygon points="75.79 61.06 75.79 76.79 87.14 76.79 87.14 73.26 80.17 73.26 80.17 70.29 86.03 70.29 86.03 67.27 80.17 67.27 80.17 64.57 86.92 64.57 86.92 61.06 75.79 61.06"/><path d="M114,76.79V70.11l-.18.06a18.67,18.67,0,0,1-5.28,1h-.13v5.63h-4.58V61.06h4.58v6.59h.13a18.8,18.8,0,0,0,5.36-1l.1,0V61.06h4.58V76.79Z"/><polygon points="47.83 76.78 47.83 61.09 58.9 61.09 58.9 64.93 52.4 64.93 52.4 68.02 57.57 68.02 57.57 71.34 52.4 71.34 52.4 76.78 47.83 76.78"/><polygon points="64.54 59.05 64.54 43.31 75.97 43.31 75.97 46.83 68.92 46.83 68.92 49.53 74.78 49.53 74.78 52.55 68.92 52.55 68.92 55.52 75.89 55.52 75.89 59.05 64.54 59.05"/><polygon points="90.16 59.04 90.16 43.3 94.74 43.3 94.74 55.19 100.99 55.19 100.99 59.04 90.16 59.04"/><polygon points="77.73 59.04 77.73 43.3 82.31 43.3 82.31 55.19 88.56 55.19 88.56 59.04 77.73 59.04"/><path d="M110.21,59.45a9.42,9.42,0,0,1-4.44-1,7.49,7.49,0,0,1-3.11-2.89,9.19,9.19,0,0,1,0-8.72,7.47,7.47,0,0,1,3.11-2.88,10.06,10.06,0,0,1,8.87,0,7.4,7.4,0,0,1,3.12,2.89,9.1,9.1,0,0,1,0,8.71,7.46,7.46,0,0,1-3.12,2.89,9.38,9.38,0,0,1-4.43,1m0-12.69a4.12,4.12,0,0,0-2.15.54,3.82,3.82,0,0,0-1.51,1.55,5.48,5.48,0,0,0,0,4.66,3.74,3.74,0,0,0,1.51,1.54,4.61,4.61,0,0,0,4.29,0,3.7,3.7,0,0,0,1.52-1.54,5.3,5.3,0,0,0,0-4.66,3.78,3.78,0,0,0-1.52-1.55,4.11,4.11,0,0,0-2.14-.54"/><path d="M58,59V52.35l-.18.07a18.4,18.4,0,0,1-5.27,1h-.13V59H47.83V43.3h4.59v6.59h.13a18.61,18.61,0,0,0,5.36-1l.09,0V43.3h4.58V59Z"/><path d="M95.35,77.09h-.48a9.79,9.79,0,0,1-3.47-.73,6.54,6.54,0,0,1-2.49-1.8,5.44,5.44,0,0,1-.7-1.11l3.59-1.9a2.64,2.64,0,0,0,.5,1.09,3,3,0,0,0,1.18.9,4.63,4.63,0,0,0,1.73.36h.22a4.21,4.21,0,0,0,1.18-.16,2.25,2.25,0,0,0,1-.51,1.16,1.16,0,0,0,.4-.83,1.08,1.08,0,0,0-.44-1,3,3,0,0,0-1-.49q-.58-.17-1.83-.42a20.2,20.2,0,0,1-3.15-.79,4.84,4.84,0,0,1-2.08-1.43,3.89,3.89,0,0,1-.8-2.8,4.74,4.74,0,0,1,.9-2.72,5.07,5.07,0,0,1,2.32-1.74,8,8,0,0,1,3-.52h.39a8.4,8.4,0,0,1,3,.64,5.82,5.82,0,0,1,2.17,1.56,4.65,4.65,0,0,1,.71,1.11l-3.29,1.74a2,2,0,0,0-.78-1.26,2.87,2.87,0,0,0-1.75-.58h-.17a3.1,3.1,0,0,0-.94.13,1.72,1.72,0,0,0-.79.47,1.19,1.19,0,0,0-.32.78,1.1,1.1,0,0,0,.42.93,2.84,2.84,0,0,0,1,.47c.36.09,1,.22,1.81.39a23,23,0,0,1,3.16.76,4.85,4.85,0,0,1,2.13,1.43,4,4,0,0,1,.81,2.84,4.52,4.52,0,0,1-1,2.79,6,6,0,0,1-2.66,1.8,9.74,9.74,0,0,1-3.38.56"/><path d="M73.86,77a8.42,8.42,0,0,1-2.63-.4A8.58,8.58,0,0,1,69.86,76a8.36,8.36,0,0,1-1.23-.84A9.25,9.25,0,0,1,66.75,73a9.48,9.48,0,0,1-.66-1.22c-.06-.12-.11-.25-.16-.37l0-.09H65v5.51H60.42V61.09h7.15a8.4,8.4,0,0,1,3.39.65,5.21,5.21,0,0,1,2.26,1.82,4.76,4.76,0,0,1,.79,2.7,4.16,4.16,0,0,1-.38,1.79,3.74,3.74,0,0,1-1.11,1.37,6.89,6.89,0,0,1-2,1l-.14.05.12.24a5,5,0,0,0,.9,1.21,3.93,3.93,0,0,0,.55.44,3.66,3.66,0,0,0,.62.32,4.31,4.31,0,0,0,1.35.31v4h-.08M65,68.29h2A2.82,2.82,0,0,0,68.2,68a2.24,2.24,0,0,0,.9-.7,1.67,1.67,0,0,0,.35-1,1.71,1.71,0,0,0-.35-1.06,2.24,2.24,0,0,0-.9-.7A2.82,2.82,0,0,0,67,64.29H65Z"/><path d="M40,48.87a2,2,0,0,1,0,2h0a10.21,10.21,0,0,0-1.58,6.46h0c.43,6.36-3.12,13-9.57,16.77s-14,3.54-19.31,0h0a10.18,10.18,0,0,0-6.39-1.83h0a2,2,0,0,1-1.75-3A10.14,10.14,0,0,0,3,62.82H3c-.43-6.36,3.12-13,9.57-16.78s14-3.53,19.31,0h0a10.18,10.18,0,0,0,6.39,1.83,2,2,0,0,1,1.73,1"/></svg>