<svg id="Layer_1" data-name="Layer 1" xmlns="http://www.w3.org/2000/svg" viewBox="0 0 120 120"><g id="g3"><g id="g37"><g id="g39"><g id="g41"><path id="path43" d="M6.91,57.77a5.68,5.68,0,0,1,4.15,1.71,5.61,5.61,0,0,1,1.71,4.14V69H8.33v-5.3a2.94,2.94,0,0,0-.42-1.6,1.17,1.17,0,0,0-1-.67,1.18,1.18,0,0,0-1,.67,3,3,0,0,0-.41,1.6V69H1.05V63.62a5.58,5.58,0,0,1,1.72-4.14A5.61,5.61,0,0,1,6.91,57.77Z"/><path id="path45" d="M17.05,56.88a2.26,2.26,0,0,0-.73,1v0q0,.36.63,1l.49.5A2.2,2.2,0,0,1,18.09,61v8H13.6V61a2.14,2.14,0,0,1,.66-1.59l.5-.5a1.64,1.64,0,0,0,.61-1v0c0-.22-.26-.56-.73-1l-.54-.54a2.4,2.4,0,0,1-.73-1.75,2.49,2.49,0,0,1,2.47-2.47,2.47,2.47,0,0,1,1.75,4.22Z"/><path id="path47" d="M25.53,65.51a3.8,3.8,0,0,0,.38-1.31h4.43a5.55,5.55,0,0,1-1.68,3.59h0a5.57,5.57,0,0,1-4.11,1.71H24.5a5.61,5.61,0,0,1-4.12-1.71h0a5.57,5.57,0,0,1-1.71-4.11v-.06a5.53,5.53,0,0,1,1.71-4.1,5.84,5.84,0,0,1,8.28,0,5.55,5.55,0,0,1,1.68,3.58H25.91a3.87,3.87,0,0,0-.38-1.31c-.29-.51-.62-.77-1-.77s-.72.26-1,.77a3.88,3.88,0,0,0-.42,1.87,3.8,3.8,0,0,0,.42,1.85,1.22,1.22,0,0,0,1,.78c.39,0,.72-.27,1-.78Z"/><path id="path49" d="M39.66,64.12l2.25,3.44a1.42,1.42,0,0,1,.29.76.71.71,0,0,1-.05.26.62.62,0,0,1-.65.43H37.83l-2.32-3.55V69H31.07V60a2.23,2.23,0,0,1,3.79-1.58A2.17,2.17,0,0,1,35.51,60v2.4l2-3.59a2.13,2.13,0,0,1,1.37-1,2.38,2.38,0,0,1,.58-.08,2.11,2.11,0,0,1,1.1.31,2.23,2.23,0,0,1,1.1,1.94,2.12,2.12,0,0,1-.31,1.11l-1.7,3.07Z"/><path id="path51" d="M47.39,57.8a5.6,5.6,0,0,1,4.13,1.75,5,5,0,0,1,1.41,3.07,6.52,6.52,0,0,1,.06.85,4.74,4.74,0,0,1-.07.79H46a3.13,3.13,0,0,0,.37,1.2,1.22,1.22,0,0,0,1,.78,1.43,1.43,0,0,0,1.11-.69,4.5,4.5,0,0,0,.39-.7h4a4.65,4.65,0,0,1-1.29,2.9,5.59,5.59,0,0,1-4.14,1.75,5.85,5.85,0,1,1,0-11.7Zm1.29,4.81a3.11,3.11,0,0,0-.28-.85c-.29-.53-.63-.79-1-.79a1.1,1.1,0,0,0-1,.76,4.55,4.55,0,0,0-.3.88Z"/><path id="path53" d="M55.7,52.11a2.24,2.24,0,0,1,2.23,2.23V69H53.48V54.34a2.22,2.22,0,0,1,2.22-2.23Z"/><path id="path55" d="M68.54,59.49a5.87,5.87,0,0,1,0,8.3l-.2.19-.13.13a5.72,5.72,0,0,1-3.8,1.39h0a5.6,5.6,0,0,1-3.77-1.4,2.29,2.29,0,0,1-.35-.31,5.87,5.87,0,0,1,4.15-10,5.62,5.62,0,0,1,4.15,1.72Zm-3.15,6a3.86,3.86,0,0,0,.42-1.87,3.8,3.8,0,0,0-.42-1.85c-.28-.52-.61-.78-1-.78s-.72.26-1,.78a4.42,4.42,0,0,0,0,3.72c.28.52.62.78,1,.78S65.11,66,65.39,65.5Z"/><path id="path57" d="M80.73,67.8a5.87,5.87,0,0,1-8.28,0,5.87,5.87,0,0,1,0-8.28A5.79,5.79,0,0,1,78,58V54.34a2.13,2.13,0,0,1,.66-1.58,2.22,2.22,0,0,1,3.14,0,2.18,2.18,0,0,1,.66,1.57v9.33a5.65,5.65,0,0,1-1.73,4.14Zm-4.14-1.51c.39,0,.72-.26,1-.78a4.42,4.42,0,0,0,0-3.72c-.28-.52-.61-.78-1-.78s-.72.26-1,.78a4.33,4.33,0,0,0,0,3.72Q76,66.29,76.59,66.29Z"/><path id="path59" d="M88.82,57.8A5.59,5.59,0,0,1,93,59.55a5,5,0,0,1,1.41,3.07,6.52,6.52,0,0,1,.06.85,3.87,3.87,0,0,1-.07.79H87.46a3.32,3.32,0,0,0,.37,1.2q.42.77,1,.78a1.43,1.43,0,0,0,1.11-.69,3.81,3.81,0,0,0,.39-.7h4A4.77,4.77,0,0,1,93,67.75a5.63,5.63,0,0,1-4.14,1.75,5.71,5.71,0,0,1-4.18-1.71,5.85,5.85,0,0,1,4.14-10Zm1.29,4.81a3.11,3.11,0,0,0-.28-.85c-.29-.53-.63-.79-1-.79a1.1,1.1,0,0,0-1,.76,5.34,5.34,0,0,0-.3.88Z"/><path id="path61" d="M105,59.49a5.87,5.87,0,0,1,0,8.3l-.21.19-.13.13a5.69,5.69,0,0,1-3.79,1.39h0A5.6,5.6,0,0,1,97,68.1a1.89,1.89,0,0,1-.35-.31,5.87,5.87,0,1,1,8.3-8.3Zm-3.16,6a3.75,3.75,0,0,0,.43-1.87,3.69,3.69,0,0,0-.43-1.85q-.4-.78-1-.78c-.39,0-.72.26-1,.78a4.52,4.52,0,0,0,0,3.72c.29.52.62.78,1,.78S101.56,66,101.83,65.5Z"/><path id="path63" d="M113.08,57.77a5.65,5.65,0,0,1,4.15,1.71A5.58,5.58,0,0,1,119,63.62V69H114.5v-5.3a3,3,0,0,0-.41-1.6,1.18,1.18,0,0,0-1-.67,1.17,1.17,0,0,0-1,.67,2.94,2.94,0,0,0-.42,1.6V69h-4.44V63.62a5.84,5.84,0,0,1,5.85-5.85Z"/></g></g></g></g></svg>