<?xml version="1.0" encoding="utf-8"?>
<!-- Generator: Adobe Illustrator 24.1.3, SVG Export Plug-In . SVG Version: 6.00 Build 0)  -->
<svg version="1.1" id="Layer_1" xmlns="http://www.w3.org/2000/svg" xmlns:xlink="http://www.w3.org/1999/xlink" x="0px" y="0px"
	 viewBox="0 0 173.9 33.9" style="enable-background:new 0 0 173.9 33.9;" xml:space="preserve">
<style type="text/css">
	.st0{fill:#383B43;}
</style>
<g>
	<path class="st0" d="M13.4,7.2H9.6c-1.8,0-3.7,0.1-5.2,1.2v-1h-4V24h4.2v-9.3c0-2.7,0.5-3.7,6.3-3.7h0.6c4.6,0,4.6,1.3,4.6,2.8V24
		h4.2V13.1C20.4,11.3,19.7,7.2,13.4,7.2"/>
	<path class="st0" d="M85.6,7.2H82c-3.9,0-9.1,0.7-9.1,6.9v3.3c0,6.2,5.2,6.9,9.1,6.9h3.6c3.9,0,9.1-0.7,9.1-6.9v-3.3
		C94.6,7.9,89.5,7.2,85.6,7.2 M90.4,17.2c0,2.5-1,3.3-4.1,3.3h-5.1c-3.1,0-4.1-0.8-4.1-3.3v-3c0-2.5,1-3.3,4.1-3.3h5.1
		c3.1,0,4.1,0.8,4.1,3.3V17.2z"/>
	<path class="st0" d="M60.8,7.2h-3.6c-3.9,0-9.1,0.7-9.1,6.9l0.1,19.8h4.2V23.6c1.5,0.5,3.2,0.6,4.8,0.6h3.6c3.9,0,9.1-0.7,9.1-6.9
		v-3.3C69.9,7.9,64.7,7.2,60.8,7.2 M65.7,17.2c0,2.5-1,3.3-4.1,3.3h-5.1c-3.1,0-4.1-0.8-4.1-3.3v-3c0-2.5,1-3.3,4.1-3.3h5.1
		c3.1,0,4.1,0.8,4.1,3.3V17.2z"/>
	<polygon class="st0" points="97.7,1.8 97.7,24.3 101.9,24.3 101.9,1.8 101.1,1.8 	"/>
	<path class="st0" d="M45.1,7.1h-4.2v0.6c-1.5-0.5-3.2-0.6-4.8-0.6h-3.6c-3.9,0-9.1,0.7-9.1,6.9v3.3c0,6.2,5.2,6.9,9.1,6.9h3.6
		c1.5,0,3.2-0.1,4.8-0.6v0.6h4.2V7.1z M36.8,20.4h-5.1c-3.1,0-4.1-0.8-4.1-3.3v-3c0-2.5,1-3.3,4.1-3.3h5.1c3.1,0,4.1,0.8,4.1,3.3v3
		C40.9,19.6,39.9,20.4,36.8,20.4"/>
	<path class="st0" d="M141,7.2h-3.6c-3.9,0-9.1,0.7-9.1,6.9v3.3c0,6.2,5.2,6.9,9.1,6.9h3.6c3.9,0,9.1-0.7,9.1-6.9v-3.3
		C150.1,7.9,144.9,7.2,141,7.2 M145.9,17.2c0,2.5-1,3.3-4.1,3.3h-5.1c-3.1,0-4.1-0.8-4.1-3.3v-3c0-2.5,1-3.3,4.1-3.3h5.1
		c3.1,0,4.1,0.8,4.1,3.3V17.2z"/>
	<path class="st0" d="M166.1,7.2h-3.8c-1.8,0-3.8,0.1-5.2,1.2v-1h-4.1V24h4.2v-9.3c0-2.7,0.6-3.7,6.3-3.7h0.6c4.6,0,4.6,1.3,4.6,2.8
		V24h4.2V13.1C173.1,11.3,172.4,7.2,166.1,7.2"/>
	<path class="st0" d="M117.7,20.4h-3.4c-4.4,0-5.1-0.9-5.1-3.4V17h16.5v-2.5c0-6.5-4.6-7.3-8.6-7.3h-4c-2.4,0-8.1,0-8.1,6.9v3.2
		c0,6.9,5.7,6.9,7.8,6.9h4.5c2.3,0,8.2,0,8.3-5.2h-4.3C121.2,20.1,120.6,20.4,117.7,20.4 M113.4,10.9h3.7c2,0,4.3,0.4,4.3,2.2v0.1
		h-12.2C109.4,11.3,110.1,10.9,113.4,10.9"/>
	<path class="st0" d="M63.6,28.5c0.5,0,1,0.1,1.3,0.5c0.3,0.3,0.5,0.7,0.5,1.2c0,0.5-0.2,0.9-0.5,1.2c-0.3,0.3-0.8,0.4-1.4,0.4h-3.1
		v2h-0.9v-5.3H63.6z M63.4,31c0.7,0,1-0.3,1-0.8c0-0.6-0.4-0.9-1.1-0.9h-3.1V31H63.4z"/>
	<polygon class="st0" points="75.6,33.8 70.1,33.8 70.1,28.5 75.4,28.5 75.4,29.3 71,29.3 71,30.7 74.1,30.7 74.1,31.5 71,31.5 
		71,33 75.6,33 	"/>
	<path class="st0" d="M86.7,33.8h-1l-1.4-2h-2.7v2h-0.9v-5.3h4.2c0.6,0,1,0.1,1.3,0.5c0.3,0.3,0.5,0.7,0.5,1.2
		c0,0.4-0.1,0.8-0.4,1.1c-0.2,0.3-0.6,0.4-1,0.5L86.7,33.8z M84.7,31c0.7,0,1-0.3,1-0.8c0-0.6-0.4-0.9-1.1-0.9h-3.1V31H84.7z"/>
	<path class="st0" d="M95.2,28.5c0.9,0,1.6,0.2,2.2,0.7c0.5,0.5,0.8,1.1,0.8,2c0,0.8-0.3,1.4-0.9,1.9c-0.5,0.5-1.2,0.7-2,0.7h-3.5
		v-5.3H95.2z M95.4,33c0.5,0,1-0.2,1.3-0.5c0.3-0.3,0.5-0.8,0.5-1.3c0-0.6-0.2-1-0.5-1.4c-0.4-0.3-0.8-0.5-1.4-0.5h-2.5V33H95.4z"/>
	<rect x="103.4" y="28.5" class="st0" width="0.9" height="5.3"/>
	<path class="st0" d="M114.4,29.8c-0.8-0.4-1.6-0.6-2.4-0.6c-0.5,0-0.9,0.1-1.2,0.2c-0.3,0.1-0.4,0.3-0.4,0.5c0,0.2,0.2,0.4,0.5,0.5
		c0.2,0.1,0.6,0.1,1.1,0.2c0.7,0,1.2,0.1,1.4,0.1c0.7,0.1,1.2,0.2,1.5,0.5c0.3,0.2,0.5,0.6,0.5,1c0,0.6-0.2,1-0.7,1.3
		c-0.5,0.3-1.2,0.5-2.1,0.5c-1.3,0-2.4-0.3-3.1-0.9l0.5-0.6c0.8,0.5,1.7,0.8,2.7,0.8c0.6,0,1.1-0.1,1.4-0.3c0.3-0.2,0.5-0.4,0.5-0.7
		c0-0.3-0.2-0.6-0.6-0.7c-0.2-0.1-0.8-0.1-1.8-0.2c-0.9-0.1-1.5-0.2-1.8-0.3c-0.4-0.2-0.6-0.5-0.6-1c0-0.5,0.2-0.9,0.7-1.2
		c0.5-0.3,1.1-0.4,2-0.4c1.1,0,2.1,0.3,2.9,0.8L114.4,29.8z"/>
</g>
</svg>
