<svg id="Layer_1" data-name="Layer 1" xmlns="http://www.w3.org/2000/svg" viewBox="0 0 120 120"><path d="M96.54,71.7c-4.62-.07-9.25.29-13.8-1.14-4-1.23-7.28-3.62-10.84-5.57-2.14-1.17-4.17-2.52-6.32-3.68a10.84,10.84,0,0,0-11.08.07c-3.94,2.23-7.84,4.53-11.75,6.81A25.4,25.4,0,0,1,29.81,71.7q-6.82,0-13.65,0c-1,0-2.29.22-2.6-.89s1-1.58,1.8-2.06Q34.89,57.37,54.44,46a10.66,10.66,0,0,1,11.24,0q19.63,11.33,39.19,22.78c.79.46,2,.93,1.76,2s-1.62.93-2.59.94C101.54,71.72,99,71.7,96.54,71.7Z"/><path d="M96.11,30.61c-2.52-.16-5.62.21-8.71-.21a27.27,27.27,0,0,1-10.59-3.75c-3.4-2.06-6.88-4-10.29-6a11.28,11.28,0,0,0-12.4,0Q48.44,24,42.66,27.31A24.84,24.84,0,0,1,30.41,30.6c-4.65,0-9.3,0-13.95,0-1,0-2.44.21-2.74-.91s1.08-1.54,1.9-2C28.72,20,41.8,12.39,55,4.87a10.48,10.48,0,0,1,10.83,0c13,7.46,25.88,15,38.8,22.55a9.86,9.86,0,0,1,1.93,1.39c.66.65.56,1.22-.42,1.53a6.26,6.26,0,0,1-1.92.25Z"/><path d="M95.57,50.79c-3.6-.19-7.78.37-11.92-.84a37.62,37.62,0,0,1-8.46-4c-3.34-2-6.6-4.11-10.07-5.81a11.22,11.22,0,0,0-10.76.34c-5,2.72-9.64,6-14.79,8.35a20.68,20.68,0,0,1-8.67,1.94h-15c-.7,0-1.67.11-1.88-.55s.67-1.25,1.28-1.61q11.2-6.54,22.43-13,8.52-4.93,17-9.86c4-2.32,7.86-1.77,11.71.54,5.8,3.47,11.66,6.84,17.5,10.24,6.4,3.73,12.81,7.43,19.2,11.18a9.91,9.91,0,0,1,2.73,1.79c.57.67.3,1-.34,1.15a4.93,4.93,0,0,1-1.33.13Z"/><path d="M46.58,97.24c0-6.25,0-12.5,0-18.75,0-1.33.44-1.77,1.73-1.69a33.64,33.64,0,0,0,4.49,0c1.43-.11,1.83.5,1.82,1.81,0,4.45,0,8.9-.05,13.34,0,1.28.36,1.6,1.59,1.56,2.9-.09,5.8-.07,8.7,0,1,0,1.28-.25,1.27-1.25,0-4.6,0-9.2,0-13.8,0-1.23.38-1.7,1.63-1.64,1.69.07,3.4,0,5.1,0,.91,0,1.27.4,1.28,1.24v37.64c0,2.06-.06,2.11-2.08,2.12-1.4,0-2.8-.07-4.2,0s-1.75-.37-1.73-1.7c.06-5,0-10,0-15,0-1.14-.3-1.44-1.42-1.41q-4.35.12-8.7,0c-1.11,0-1.45.26-1.43,1.41.06,4.8,0,9.6,0,14.4,0,2.26,0,2.29-2.22,2.29H48.61c-2,0-2,0-2-2Z"/><path d="M15.08,77.72c-.07-.68.31-.89.9-.88,5,.06,10.09-.38,15.1.38,5.83.9,9.48,4.25,10.76,10.06A41.12,41.12,0,0,1,41.48,108c-1.75,6-6.12,9.24-12.36,9.66-4.19.28-8.38.16-12.57.18-.71,0-1.63.17-1.48-1.07.5-.44.3-1,.3-1.55q0-18,0-35.9C15.37,78.74,15.57,78.16,15.08,77.72Zm8,5.68c-.59.19-.48.68-.48,1.12q0,12.81,0,25.61c0,.48-.16,1.05.56,1.19a41.86,41.86,0,0,0,4.34-.15,6.37,6.37,0,0,0,5.81-4.88,35.19,35.19,0,0,0,.05-17.94c-.79-3-3-4.61-6.1-4.93A18.35,18.35,0,0,0,23.06,83.4Z"/><path d="M104.13,117.81c-4,0-4,0-5.08-3.93-.56-2-1.18-4-1.67-6-.18-.76-.43-1.09-1.26-1.08-2.84,0-5.69,0-8.54,0-.72,0-1,.21-1.17,1-.67,2.9-1.51,5.76-2.17,8.66a1.53,1.53,0,0,1-1.86,1.4c-1.64-.07-3.29,0-4.94,0s-1.79-.23-1.33-1.73q4.8-15.72,9.62-31.43c.65-2.13,1.35-4.25,1.94-6.4.28-1,.7-1.51,1.84-1.45,1.85.1,3.7.07,5.54,0A1.44,1.44,0,0,1,96.65,78q5.82,19.21,11.68,38.42c.3,1-.06,1.4-1.06,1.38S105.18,117.81,104.13,117.81ZM87.71,101.42c2.4,0,4.69,0,7,0,.88,0,.66-.45.54-.94C94.48,97.34,93.76,94.17,93,91c-.57-2.27-.76-4.6-1.3-6.9C90.92,90,89.06,95.59,87.71,101.42Z"/></svg>