<svg id="Layer_1" data-name="Layer 1" xmlns="http://www.w3.org/2000/svg" viewBox="0 0 120 120"><path d="M17.49,52.92l0,14.15h8.88V65.23H19.73v-4.8h4.72c0-.41,0-1,0-1.77H19.73V54.81h6.66c0-1.12,0-1.89,0-1.89Z"/><path d="M37.9,52.94c-.8,0-2.41,0-3.84,0V67.07h2.22V61.7c.55,0,1.69,0,2.61-.06,1.29,0,4.65-.67,4.63-4.55C43.55,52.71,38.71,52.94,37.9,52.94Zm-.12,6.89H36.31v-5.1h1.43c.88,0,3.81-.06,3.9,2.39S39.1,59.83,37.78,59.83Z"/><path d="M4.58,56.37h0c0-2.31,3.06-2.4,4.87-.92.62-1.78.67-1.91.67-1.91-5.27-2.53-7.68.82-7.68,3,0,5.12,7.27,4,6.22,7.63-.37,1.32-2.71,2.07-5.4.43-.2.55-.52,1.22-.84,1.89,3.55,1.87,8.17,1,8.32-2.88C11,58.73,4.58,59.08,4.58,56.37Z"/><path d="M112.5,52.94H110l-4.63,14.15h2.19c.69-2.55.92-3.28.92-3.28l5.72,0c.67,1.89,1.17,3.33,1.17,3.33h2.26Zm-3.57,9.25,2.24-7h0l2.34,7Z"/><polygon points="59.24 58.54 52.01 58.54 52.01 52.99 49.82 52.99 49.82 67.08 52.01 67.08 52.01 60.4 59.24 60.4 59.24 67.08 61.41 67.08 61.41 52.99 59.24 52.99 59.24 58.54"/><path d="M97.91,56.89c-.32-4.2-4.4-3.88-5.29-3.93s-2.34,0-3.71,0V67.05h2.21V61.11c.75,0,1,0,2.12,0l4,6H100l-4.46-6.36A3.46,3.46,0,0,0,97.91,56.89Zm-5.28,2.56h-.14c-.5,0-.88,0-1.37,0V54.64h1.47c.93,0,3.19.12,3.41,2.15h0C96.28,59.37,93.45,59.45,92.63,59.45Z"/><path d="M75.13,52.54A7.46,7.46,0,1,0,82.57,60,7.21,7.21,0,0,0,75.13,52.54Zm0,12.88C71.83,65.42,70,63,70,60s1.87-5.42,5.17-5.42S80.3,57,80.3,60,78.44,65.42,75.13,65.42Z"/></svg>