<svg xmlns="http://www.w3.org/2000/svg" viewBox="0 0 120 120"><g id="_1" data-name=" 1"><path d="M98.78,62.8c1.34,0,2-1.43,2-2.75a2.84,2.84,0,0,0-.62-1.86,1.51,1.51,0,0,0-1.27-.52c-.45,0-1.27.45-1.27,1.11a1.24,1.24,0,0,0,0,.18l0,2.71a2,2,0,0,0,.09.35,1.07,1.07,0,0,0,.7.72.91.91,0,0,0,.35.06m2.57-4.71a3.12,3.12,0,0,1,.71,2,2.89,2.89,0,0,1-2.92,3H99a2.28,2.28,0,0,1-.65-.14,1.23,1.23,0,0,1-.67-.55v4.25H95.59v-.08c.09,0,.84-.14.84-.58V57.63c0-.2-.21-.2-.28-.2v-.08h1.47V58a2.65,2.65,0,0,1,2-.77,2.41,2.41,0,0,1,1.77.82m4.24-.09a4.72,4.72,0,0,0-.33,1.43h2.93c0-.91-.39-2.11-1.48-2.11h-.17a1.27,1.27,0,0,0-1,.68m3.59,3.83a3.07,3.07,0,0,1-5.56-1.69,3.08,3.08,0,0,1,2.23-3h0a2.67,2.67,0,0,1,.64-.08h.25a4.68,4.68,0,0,1,.54.07h0a2.44,2.44,0,0,1,2.1,2.47v.05H105a6.19,6.19,0,0,0,.07.8,2.5,2.5,0,0,0,2.21,2.3,1.83,1.83,0,0,0,1-.3,2.34,2.34,0,0,0,.54-.68ZM52.68,58a4.13,4.13,0,0,0-.33,1.43h2.92c0-.91-.39-2.11-1.48-2.11h-.17a1.3,1.3,0,0,0-.94.68m3.59,3.82a3.07,3.07,0,0,1-5.57-1.69,3.07,3.07,0,0,1,2.23-2.94h0a2.74,2.74,0,0,1,.64-.08h.25a4.86,4.86,0,0,1,.55.07h0a2.45,2.45,0,0,1,2.1,2.47v0H52.1c0,.19,0,.55.07.79a2.51,2.51,0,0,0,2.21,2.31,1.83,1.83,0,0,0,1-.3,2.05,2.05,0,0,0,.55-.69ZM45.61,58a4.37,4.37,0,0,0-.33,1.43h2.93c0-.91-.39-2.11-1.48-2.11h-.17a1.32,1.32,0,0,0-1,.68m3.59,3.82a3.07,3.07,0,0,1-5.56-1.69,3.07,3.07,0,0,1,2.23-2.94h0a2.67,2.67,0,0,1,.64-.08h.25a4.68,4.68,0,0,1,.54.07h0a2.45,2.45,0,0,1,2.1,2.47v0H45c0,.19,0,.55.06.79a2.52,2.52,0,0,0,2.22,2.31,1.77,1.77,0,0,0,1-.3,1.94,1.94,0,0,0,.55-.69ZM72,62.44l.13-.11,0,0-2.59-3a2.91,2.91,0,0,0-.42.25,1.66,1.66,0,0,0-.44.58h0a1.93,1.93,0,0,0-.1.65,2.7,2.7,0,0,0,.76,1.51,2,2,0,0,0,2.33.35l0,0,.1,0,.23-.15M70.1,58.3c.16.17.28.33.42.48a1.36,1.36,0,0,0,.94-1.38A1.29,1.29,0,0,0,70.33,56h-.11c-.61.09-1.25,1-.12,2.28m5.58.83a3,3,0,0,0-1.77,1.23c-.21.25-.63,1-.9,1.34.74.77,1.52,1.34,2.3.8l0,.09a2.12,2.12,0,0,1-1.44.55,2.09,2.09,0,0,1-1.57-.6h0l-.08-.07a3.08,3.08,0,0,1-2.09.73c-2.25.09-2.84-1.24-2.84-2.09A2.08,2.08,0,0,1,69,59.21h0l.21-.05.15,0-.19-.21a1.87,1.87,0,0,1-.59-1.29,1.8,1.8,0,0,1,1.94-1.75c1.16,0,1.85.61,1.85,1.55a.76.76,0,0,1,0,.15s0,.06,0,.08v0a2,2,0,0,1-.14.34,0,0,0,0,0,0,0,.35.35,0,0,1,0,.08l-.13.15a2.77,2.77,0,0,1-1.35.69l.49.59c.63.77,1.11,1.34,1.72,2l.16-.21a5.56,5.56,0,0,0,.7-2.32h2ZM61.34,53.37a2.93,2.93,0,0,0-2.1,1.08,3,3,0,0,0-.63,2.18V57c-.06.28-.37.68-.69.68a1.33,1.33,0,0,0,.69-.17v5.36c0,.16-.23.23-.29.23v.08h1.79v-.08c-.06,0-.28,0-.28-.22V57.67h1.39v-.35H59.83V55.5c0-1.34.64-2,1.42-2,.36,0,.78.14.78.61v.69c0,.22.17.36.58.36s.57-.14.57-.36c0-.8-.3-1.48-1.84-1.48M24.19,62.73V58.9c0-1.21-.86-1.75-2.11-1.75h-.34l-.18,0h-.07l-.17,0h-.07l-.18.07h0a2.7,2.7,0,0,0-.7.43h0a.34.34,0,0,0-.12.12h0a1.83,1.83,0,0,0-.29.37s0,0,0,0l-.06.09V57.3H18.14v.06c.05,0,.3,0,.3.26v5.14c0,.2-.24.26-.3.26v.09h1.8V63s-.29-.08-.29-.3V59.77a2.53,2.53,0,0,1,0-.28s0-.07,0-.1a1.11,1.11,0,0,0,0-.19l0-.08a2.12,2.12,0,0,1,2-1.63h0c.88,0,1.11.25,1.17,1.09a3.64,3.64,0,0,1,0,.48v3.66c0,.24-.25.3-.32.3v.09h1.82V63a.28.28,0,0,1-.28-.29m-9.75-1a1.9,1.9,0,0,0,.09-.44c0-.16,0-.35,0-.56V60h0c-.93,0-2.55.17-2.55,1.3a1.2,1.2,0,0,0,1.3,1.25,1.3,1.3,0,0,0,1.15-.81m2.52,1a1.78,1.78,0,0,1-1.06.33c-.91,0-1.25-.38-1.4-1v0a2.92,2.92,0,0,1-2.17,1c-.89,0-1.55-.46-1.55-1.34,0-1.64,2.38-2,3.72-1.91h0V58.66c0-.85-.25-1.35-1.18-1.35-.62,0-1.3.16-1.3.8v.6c0,.23-.2.43-.55.43-.63,0-.61-.24-.61-.56,0-.78,1-1.46,2.46-1.46,1.74,0,2.35.88,2.35,1.81v3.19c0,.49.19.63.5.69a1.17,1.17,0,0,0,.71-.1Zm76.45-5.63a2,2,0,0,0-1.86,1.47h0V57.3H90v.06c.07,0,.3.09.3.26V62.8c0,.18-.23.22-.3.22v.09h1.82V63c-.08,0-.3,0-.3-.19v-3.1c0-1.46.88-2.32,1.47-2.32.32,0,.5.21.5.56v.61c0,.23.16.38.58.38s.56-.15.56-.38c0-1-.37-1.43-1.25-1.43m-10.1-1.78L81.8,59.1h3Zm4.42,7.08a1.08,1.08,0,0,0,.91.57v.09H85.76V63c.12,0,.63-.11.45-.55L85,59.55H81.6l-1.23,3c-.15.36.31.43.42.43v.09H79.4V63a.79.79,0,0,0,.73-.39h0l3.65-9h.34l3.61,8.83Zm29,.66a2,2,0,0,0,2.25-1.87c0-.8-.64-1.27-1.52-1.54l-1-.32c-.82-.24-1.26-.48-1.26-1s.53-1,1.43-1,1.31.69,1.58,1.47h.09V57.69a2.69,2.69,0,0,0-1.67-.57,1.85,1.85,0,0,0-2,1.73c0,1.16.81,1.42,1.4,1.61l1.1.35c.48.15.92.36.92,1a1.05,1.05,0,0,1-1.16,1.09,2.27,2.27,0,0,1-2.24-1.84h-.07v1.24a3.9,3.9,0,0,0,2.21.78M9.25,53.67v.09c.41,0,.6.24.48.52L6.84,61.37,4,54.46c-.22-.53.16-.7.61-.7v-.09H1.06v.09a1.53,1.53,0,0,1,1.49.9L6,63.12h.35l3.56-8.76a1.08,1.08,0,0,1,1-.6v-.09Zm103.22,9.06V53.56h-2v.08c.08,0,.84.13.84.58v8.51c0,.26-.27.29-.33.29v.09h1.84V63a.28.28,0,0,1-.3-.29m-70.93,0V53.56h-2v.08c.08,0,.83.13.83.58v8.51A.3.3,0,0,1,40,63v.09h1.84V63a.28.28,0,0,1-.3-.29m-3.7-2.6v2a8.21,8.21,0,0,1-3.39.94,5,5,0,0,1-5-4.85,5,5,0,0,1,4.91-4.93h.15a4.24,4.24,0,0,1,2.83,1c.16.13.25.24.25.33v.92h-.09a0,0,0,0,0,0,0,2.63,2.63,0,0,0-1.43-1.7,3.78,3.78,0,0,0-1.35-.31c-2.91-.18-3.63,3-3.63,4.68,0,1.95,1.42,4.57,3.57,4.57a3,3,0,0,0,2.86-2.09c.06-.21.13-.41.18-.62Z"/></g></svg>