<svg id="Layer_1" data-name="Layer 1" xmlns="http://www.w3.org/2000/svg" viewBox="0 0 120 120"><g id="g4230"><path id="path4232" d="M21.62,67.66a9.52,9.52,0,0,1-2.7,1.82c-.19.07-.38.15-.56.2l.56-.35a13.36,13.36,0,0,0,2.7-2.4,10.31,10.31,0,0,0,2.55-7,10.77,10.77,0,0,0-2.55-6.84,13.7,13.7,0,0,0-2.7-2.4l-.56-.37c.18.1.37.18.56.27a11.77,11.77,0,0,1,2.7,1.88,10.5,10.5,0,0,1,0,15.17M17,64.29a3.09,3.09,0,0,1-1,.39,7.26,7.26,0,0,0,1-.75A4.92,4.92,0,0,0,18.61,60,5.17,5.17,0,0,0,17,56.14a8.39,8.39,0,0,0-1-.78,5.47,5.47,0,0,1,1,.47,5.12,5.12,0,0,1,1.89,2A5,5,0,0,1,19.47,60a4.87,4.87,0,0,1-.55,2.26,5,5,0,0,1-1.89,2M9,60A5,5,0,0,1,13.52,55a5.09,5.09,0,0,1,0,10.11A5,5,0,0,1,9,60m1,4.28a4.87,4.87,0,0,1-1.9-2A4.53,4.53,0,0,1,7.59,60a4.58,4.58,0,0,1,.55-2.18,5,5,0,0,1,1.9-2,5.6,5.6,0,0,1,1-.45,7.42,7.42,0,0,0-1,.75A5.08,5.08,0,0,0,8.45,60,4.84,4.84,0,0,0,10,64a5.4,5.4,0,0,0,1,.73,2.92,2.92,0,0,1-1-.38M8.12,69.48a9.66,9.66,0,0,1-2.7-1.82,10.5,10.5,0,0,1,0-15.17,11.77,11.77,0,0,1,2.7-1.88c.19-.09.38-.17.56-.27l-.56.37a13.7,13.7,0,0,0-2.7,2.4A10.71,10.71,0,0,0,2.88,60a10.36,10.36,0,0,0,2.54,7,13.63,13.63,0,0,0,2.7,2.4l.56.35c-.18-.05-.37-.13-.56-.2m5.4-20.63c-6.74,0-11.93,5-11.93,11.17S6.78,71.2,13.52,71.2s11.93-5,11.93-11.18S20.27,48.85,13.52,48.85"/></g><path d="M46.54,55.33l-4.21,8.86h1.29l1.12-2.3h4.83l1.12,2.31H52l-4.26-8.87Zm-1.35,5.5,2-4.32,1.91,4.32Z"/><polygon points="117.07 56.51 117.07 55.33 109.1 55.33 109.1 64.2 117.07 64.2 117.07 63.01 110.34 63.01 110.34 60.21 114.88 60.21 114.88 59.03 110.34 59.03 110.34 56.51 117.07 56.51"/><path d="M53.21,59.76c0-3.32,5-4.64,8-2.47l.61-.89A7.63,7.63,0,0,0,54,56.19a4.35,4.35,0,0,0-2.27,3.57c0,3.53,3.38,4.55,5.67,4.55a6.51,6.51,0,0,0,4.83-1.8l-.74-.84C58.08,64.71,53.21,63,53.21,59.76Z"/><path d="M104.11,57.8c0-.4,0-2.47-3.14-2.47H95V64.2h1.23V60.32h3.82l2.64,3.88h1.51l-2.8-3.93C103.92,59.9,104.11,58.36,104.11,57.8Zm-7.86,1.51v-3h4.66c1.84,0,1.91,1.29,1.91,1.46s0,1.49-2.24,1.51Z"/><polygon points="35.93 61.95 32.45 55.33 30.76 55.33 30.76 64.19 32 64.19 32 57.23 35.87 64.36 39.86 57.23 39.86 64.19 41.09 64.19 41.09 55.33 39.52 55.33 35.93 61.95"/><path d="M88.16,55.33,84,64.19h1.28l1.13-2.3H91.2l1.11,2.31h1.35L89.4,55.33Zm-1.35,5.5,2-4.32,1.91,4.32Z"/><polygon points="106.07 55.39 106.07 64.2 107.31 64.2 107.31 55.33 106.07 55.33 106.07 55.39"/><path d="M73.75,59.82c0-3.93-3.73-4.6-5.22-4.6-2.77,0-5.27,1.5-5.27,4.61a4.87,4.87,0,0,0,5.27,4.7,5.42,5.42,0,0,0,1.74-.28l1.8,1.52.67-.9-1.4-1.24A4.33,4.33,0,0,0,73.75,59.82ZM70.56,63c-1.8-1.13-3-.58-3.21-.12a2.15,2.15,0,0,1,2,.57,2.73,2.73,0,0,1-.79.11,3.91,3.91,0,0,1-3.87-3.87,3.73,3.73,0,0,1,3.87-3.6,3.81,3.81,0,0,1,3.82,3.71A3.56,3.56,0,0,1,70.56,63Z"/><path d="M82.32,61.39a2,2,0,0,1-.38,1.28c-.29.3-1,.74-2.78.77s-2.5-.47-2.79-.77A2,2,0,0,1,76,61.39V55.33H74.82v6.12a2.21,2.21,0,0,0,.67,2c.36.31,1.1,1,3.67,1s3.3-.69,3.66-1a2.19,2.19,0,0,0,.68-2V55.33H82.32Z"/></svg>