<?xml version="1.0" encoding="utf-8"?>
<!-- Generator: Adobe Illustrator 22.1.0, SVG Export Plug-In . SVG Version: 6.00 Build 0)  -->
<svg version="1.1" id="Layer_1" xmlns="http://www.w3.org/2000/svg" xmlns:xlink="http://www.w3.org/1999/xlink" x="0px" y="0px"
	 viewBox="0 0 512 512" style="enable-background:new 0 0 512 512;" xml:space="preserve">
<style type="text/css">
	.st0{fill:#1ECAD3;}
</style>
<path class="st0" d="M452,357c-11,0-20-9-20-20v-28c0-11,9-20,20-20s20,9,20,20v28C472,348,463,357,452,357z M80,337V190
	c0-44.1,35.9-80,80-80h37c11,0,20-9,20-20s-9-20-20-20h-37C93.8,70,40,123.8,40,190v147c0,11,9,20,20,20S80,348,80,337z M512,452
	c0-33.1-26.9-60-60-60H60c-33.1,0-60,26.9-60,60s26.9,60,60,60h392C485.1,512,512,485.1,512,452z M452,432c11,0,20,9,20,20
	s-9,20-20,20H60c-11,0-20-9-20-20s9-20,20-20H452z M281.6,258.1l1.8-1.8c9.7-9.7,24.5-12.2,36.8-6c18.3,9.1,38,13.7,58.7,13.7h0.1
	c35.1,0,68.2-13.5,93.1-38.1c25-24.6,39-57.5,39.3-92.6c0.3-35.6-13.2-69.1-38.2-94.3c-24.9-25.1-58.2-39-93.8-39
	c-35.4,0-68.7,13.9-93.7,39.2c-25,25.3-38.6,58.6-38.3,94l0,110.8c0,8.1,4.9,15.4,12.3,18.5c2.5,1,5.1,1.5,7.6,1.5
	C272.7,264,277.8,262,281.6,258.1z M287.5,209.4l0-76.3c0-0.1,0-0.1,0-0.2c-0.2-24.6,9.3-47.9,26.7-65.6
	C331.7,49.7,354.9,40,379.5,40c24.9,0,48.1,9.6,65.4,27.1c17.4,17.6,26.8,40.9,26.6,65.8C471,183.1,429.5,224,379,224
	c0,0-0.1,0-0.1,0c-14.4,0-28.2-3.2-40.9-9.5c-10.2-5.1-21.2-7.5-32-7.5C299.8,206.9,293.6,207.8,287.5,209.4L287.5,209.4z"/>
</svg>
