<svg id="Layer_1" data-name="Layer 1" xmlns="http://www.w3.org/2000/svg" viewBox="0 0 120 120"><defs><style>.cls-1{fill:#1ecad3;}</style></defs><title>Icon</title><path class="cls-1" d="M96.56,102.19H23.44A23.47,23.47,0,0,1,0,78.75V41.25A23.47,23.47,0,0,1,23.44,17.81H96.56A23.47,23.47,0,0,1,120,41.25v37.5A23.47,23.47,0,0,1,96.56,102.19Zm-73.12-75A14.07,14.07,0,0,0,9.38,41.25v37.5A14.07,14.07,0,0,0,23.44,92.81H96.56a14.07,14.07,0,0,0,14.06-14.06V41.25A14.07,14.07,0,0,0,96.56,27.19Z"/><path class="cls-1" d="M51.06,70.86l-.05,0-30.61-26a4.69,4.69,0,1,1,6.07-7.14l30.58,26a4.67,4.67,0,0,0,5.9,0l30.58-26a4.69,4.69,0,1,1,6.07,7.14L69,70.81l0,0a14.08,14.08,0,0,1-17.88,0Z"/></svg>