<?xml version="1.0" encoding="utf-8"?>
<!-- Generator: Adobe Illustrator 25.2.2, SVG Export Plug-In . SVG Version: 6.00 Build 0)  -->
<svg version="1.1" id="Layer_1" xmlns="http://www.w3.org/2000/svg" xmlns:xlink="http://www.w3.org/1999/xlink" x="0px" y="0px"
	 viewBox="0 0 2256.4 1312.4" style="enable-background:new 0 0 2256.4 1312.4;" xml:space="preserve">
<style type="text/css">
	.st0{fill:#1ECAD3;}
</style>
<g>
	<path class="st0" d="M468.2,498c-8.9,0-16.2-7.2-16.3-16.1c-0.1-9,7-16.3,15.9-16.4c9.1-0.1,16.7,7.4,16.7,16.4
		C484.5,490.6,477,498,468.2,498z"/>
	<path class="st0" d="M628.9,481.5c0-9.1,7.3-16.3,16.2-16.1c8.8,0.2,16.2,7.6,16.3,16.3c0.1,8.8-7.6,16.3-16.8,16.2
		C635.8,497.9,628.9,490.7,628.9,481.5z"/>
	<path class="st0" d="M355.8,525.1c-0.1,8.7-7.7,16-16.5,15.9c-8.5-0.1-16.1-7.9-16.2-16.5c0-8.7,7.6-16.2,16.4-16.1
		C348.3,508.4,355.9,516.1,355.8,525.1z"/>
	<path class="st0" d="M408.9,524.7c-0.1-8.9,7-16.2,16-16.4c8.6-0.2,16.3,7.2,16.6,16c0.3,8.7-7.1,16.4-15.8,16.6
		C416.8,541.1,409,533.7,408.9,524.7z"/>
	<path class="st0" d="M643.4,1244.9c-8.9,0-16.1-7-16.3-16c-0.2-8.9,7.1-16.5,15.8-16.6c8.8-0.1,16.8,7.8,16.8,16.4
		C659.7,1237.4,652.1,1244.9,643.4,1244.9z"/>
	<path class="st0" d="M643.1,1202c-8.9,0-16-7.1-16.1-16.2c-0.1-8.9,7.3-16.4,16-16.3c8.9,0.1,16.8,8,16.6,16.6
		C659.5,1194.8,652,1202,643.1,1202z"/>
	<path class="st0" d="M628.9,433.1c0.1-9,7.4-16.2,16.3-16c8.6,0.2,16.3,8,16.2,16.5c0,8.8-8,16.5-16.9,16.2
		C635.8,449.6,628.8,442.2,628.9,433.1z"/>
	<path class="st0" d="M339.3,498c-8.8-0.1-16.2-7.5-16.3-16.3c-0.1-8.7,7.4-16.2,16.2-16.3c8.9,0,16.5,7.6,16.5,16.6
		C355.7,490.8,348.2,498,339.3,498z"/>
	<path class="st0" d="M425.4,498c-9,0-16.6-7.5-16.5-16.5c0.1-8.7,7.2-15.9,15.8-16.1c9-0.2,16.8,7.4,16.8,16.3
		C441.6,490.6,434.3,497.9,425.4,498z"/>
	<path class="st0" d="M600.4,907c8.8,0.1,16.4,7.6,16.4,16.2c0,8.7-8.1,16.7-16.7,16.4c-8.8-0.2-16.2-8.3-16-17.2
		C584.3,913.7,591.5,906.9,600.4,907z"/>
	<path class="st0" d="M494.8,567.6c0-9.1,7-16.2,16-16.3c8.9-0.1,16.4,7.2,16.5,16c0.1,9-7.5,16.7-16.4,16.6
		C502.1,583.9,494.8,576.5,494.8,567.6z"/>
	<path class="st0" d="M1561.3,232.7c-8.6-0.1-16-7.8-16-16.6c0-8.8,7.5-16.1,16.4-16c8.9,0.2,16.1,7.5,16,16.4
		C1577.5,225.4,1570,232.8,1561.3,232.7z"/>
	<path class="st0" d="M628.9,390.4c0-9,7.3-16.4,16.1-16.3c8.5,0.1,16.3,7.9,16.4,16.3c0.1,8.9-7.6,16.5-16.6,16.4
		C635.9,406.7,628.9,399.5,628.9,390.4z"/>
	<path class="st0" d="M669.9,1094.7c-0.1-8.9,7.3-16.4,16-16.4c8.5,0,16.4,7.8,16.5,16.3c0.2,8.6-7.5,16.2-16.3,16.3
		C677.2,1110.9,670,1103.8,669.9,1094.7z"/>
	<path class="st0" d="M291.2,498c-8.9,0-16.4-7.7-16.3-16.7c0.1-8.6,7.4-15.8,16-15.9c8.8-0.1,16.7,7.7,16.7,16.5
		C307.7,490.5,300,498,291.2,498z"/>
	<path class="st0" d="M275,524.4c0-8.9,7.3-16.1,16.2-16.1c8.6,0,16.3,7.7,16.4,16.3c0,8.7-7.5,16.3-16.2,16.4
		C282.5,541,275,533.4,275,524.4z"/>
	<path class="st0" d="M468.2,541c-9,0-16.4-7.5-16.3-16.6c0.1-8.8,7.5-16.1,16.4-16c8.7,0.1,16.3,7.7,16.1,16.4
		C484.3,533.6,476.9,541,468.2,541z"/>
	<path class="st0" d="M339.4,675c-8.8-0.1-16.5-8-16.3-16.8c0.2-8.4,7.8-15.8,16.2-15.9c8.7-0.1,16.5,7.9,16.5,16.7
		C355.7,667.7,348.2,675.1,339.4,675z"/>
	<path class="st0" d="M677,130.3c0.1-8.8,7.1-15.8,15.8-15.9c8.9-0.1,16.8,7.6,16.8,16.3c0.1,8.6-8,16.3-16.9,16.2
		C684.2,146.7,676.9,139.1,677,130.3z"/>
	<path class="st0" d="M382.6,675c-8.9,0-16.6-7.6-16.5-16.5c0-8.7,7.5-16.2,16.2-16.2c8.9-0.1,16.3,7.7,16.2,16.8
		C398.3,667.8,391.2,675,382.6,675z"/>
	<path class="st0" d="M178.7,302.2c0.1,8.9-7.2,16.3-16.2,16.3c-8.6,0-16.3-7.8-16.4-16.3c-0.1-8.8,7.4-16.1,16.3-16.1
		C171.6,286,178.7,293.1,178.7,302.2z"/>
	<path class="st0" d="M425.3,675c-8.9,0-16.5-7.7-16.4-16.6c0.1-8.8,7.7-16.2,16.4-16c8.8,0.2,16.1,7.6,16.2,16.4
		C441.5,667.6,434.2,675,425.3,675z"/>
	<path class="st0" d="M645,331.3c8.8,0.1,16.7,8.3,16.5,16.9c-0.2,8.5-7.8,15.7-16.4,15.7c-9.4-0.1-16.4-7.3-16.2-16.7
		C629.1,338.4,636.4,331.2,645,331.3z"/>
	<path class="st0" d="M677,173.1c0.1-8.8,7.2-15.8,16-15.8c8.8,0,16.9,7.9,16.8,16.4c-0.1,8.5-8,16.2-16.5,16.2
		C684.5,189.8,676.8,181.9,677,173.1z"/>
	<path class="st0" d="M1427.6,366.5c-8.8,0.1-16.3-7.2-16.5-16.1c-0.1-8.6,7.1-16.1,15.7-16.3c9.2-0.2,16.7,7,16.9,16.1
		C1443.9,359.1,1436.7,366.4,1427.6,366.5z"/>
	<path class="st0" d="M613,433.3c0.1,8.9-7,16.3-15.9,16.5c-9.1,0.2-16.4-7.1-16.3-16.4c0-8.9,6.9-16.1,15.5-16.3
		C605.2,416.9,613,424.4,613,433.3z"/>
	<path class="st0" d="M451.9,744.3c0-8.8,7.5-16.3,16.2-16.2c8.7,0.1,16.2,7.6,16.4,16.2c0.1,8.9-7.8,16.7-16.6,16.5
		C459.1,760.6,451.8,753.1,451.9,744.3z"/>
	<path class="st0" d="M628.9,567.7c-0.1-9.2,6.9-16.3,15.9-16.4c8.8,0,16.4,7.3,16.7,16c0.3,8.6-7.6,16.7-16.4,16.7
		C636.2,584,629,576.7,628.9,567.7z"/>
	<path class="st0" d="M613,567.5c0,9.1-7.4,16.5-16.5,16.4c-8.8-0.1-15.7-7.5-15.7-16.6c0-9.1,7.1-16.2,16.1-16.1
		C605.8,551.4,613,558.7,613,567.5z"/>
	<path class="st0" d="M570.1,567.5c0,9.2-7.4,16.6-16.4,16.5c-8.8-0.1-15.8-7.5-15.9-16.5c0-9,7.1-16.2,16.1-16.1
		C562.9,551.3,570.1,558.5,570.1,567.5z"/>
	<path class="st0" d="M643.3,1068c-9,0.1-16.1-7-16.2-16.2c-0.1-8.8,7.4-16.5,16.1-16.4c8.5,0.1,16.4,7.9,16.5,16.4
		C659.7,1060.5,652.2,1068,643.3,1068z"/>
	<path class="st0" d="M425.5,551.3c8.7,0.2,16,7.7,16,16.5c0,8.9-8,16.4-16.9,16.1c-8.6-0.3-15.9-8.1-15.7-16.8
		C409.1,558.3,416.7,551.1,425.5,551.3z"/>
	<path class="st0" d="M355.8,568.3c-0.4,8.8-8.2,16-16.9,15.6c-8.7-0.4-16.3-8.8-15.8-17.4c0.5-8.5,8.2-15.6,16.7-15.3
		C348.8,551.6,356.2,559.5,355.8,568.3z"/>
	<path class="st0" d="M709.7,82.6c-0.1,8.4-8,16.1-16.6,16.1c-8.9,0-16.4-7.8-16.2-16.8c0.2-8.7,7.4-15.7,16-15.7
		C701.9,66.1,709.8,73.9,709.7,82.6z"/>
	<path class="st0" d="M511.3,541c-8.9,0.1-16.2-7-16.4-15.9c-0.2-9,6.9-16.5,15.7-16.7c9-0.2,16.9,7.4,16.8,16.2
		C527.3,533.4,520,540.9,511.3,541z"/>
	<path class="st0" d="M382.2,540.9c-8.8-0.1-16.2-7.6-16.2-16.3c0-9,7.7-16.6,16.6-16.3c8.8,0.2,15.9,7.6,15.9,16.6
		C398.5,533.9,391.2,541,382.2,540.9z"/>
	<path class="st0" d="M719.9,82.2c0-8.9,7.2-16.2,16.1-16.1c8.7,0,16.4,7.5,16.6,16c0.2,8.4-7.6,16.3-16.1,16.5
		C727.6,98.8,719.9,91.3,719.9,82.2z"/>
	<path class="st0" d="M425.3,685.2c8.9,0.2,16.4,8.1,16.2,16.9c-0.3,8.9-7.9,16-16.7,15.7c-8.8-0.3-16-7.8-15.9-16.6
		C409,692.5,416.7,685,425.3,685.2z"/>
	<path class="st0" d="M719.9,173.3c0-8.9,7-15.9,15.8-16c8.9-0.1,17,7.9,16.8,16.4c-0.2,8.7-8,16.3-16.6,16.1
		C727.2,189.7,719.9,182.1,719.9,173.3z"/>
	<path class="st0" d="M585.9,130.6c-0.1-9.1,7.1-16.3,16.1-16.1c8.8,0.1,16.6,7.8,16.5,16.2c-0.1,8.6-7.8,16.2-16.5,16.2
		C593.2,146.9,586,139.6,585.9,130.6z"/>
	<path class="st0" d="M628.9,173.6c-0.1-9.2,6.9-16.3,16-16.3c8.8,0.1,16.5,7.5,16.5,16.2c0.1,8.6-7.5,16.3-16.3,16.4
		C636.4,190,629,182.6,628.9,173.6z"/>
	<path class="st0" d="M644.9,541c-8.9,0-16-7.2-16-16.3c-0.1-9.1,7.1-16.5,15.9-16.3c8.8,0.1,16.4,7.4,16.6,16.1
		C661.6,533.2,653.9,540.9,644.9,541z"/>
	<path class="st0" d="M585.9,82c0.1-8.9,7.1-15.9,15.9-15.9c9,0,16.9,7.8,16.7,16.5c-0.1,8.5-8.1,16.1-16.7,16
		C593.1,98.6,585.9,91.1,585.9,82z"/>
	<path class="st0" d="M511.2,498c-8.9,0.1-16.3-7-16.4-15.9c-0.1-9,6.8-16.4,15.7-16.6c8.9-0.3,16.6,7.2,16.8,16.2
		C527.4,490.5,520.1,497.9,511.2,498z"/>
	<path class="st0" d="M382.5,498c-8.8,0-16.3-7.3-16.5-16c-0.2-8.8,7.1-16.4,15.9-16.6c9.1-0.2,16.5,7.1,16.6,16.3
		C398.6,490.8,391.6,497.9,382.5,498z"/>
	<path class="st0" d="M1352.6,806.1c-9.1,0.1-16.3-6.8-16.5-15.9c-0.2-8.8,7.1-16.2,16.1-16.3c9-0.1,16.4,7,16.6,15.9
		C1369,798.6,1361.6,806,1352.6,806.1z"/>
	<path class="st0" d="M205.7,377.1c8.8,0.1,16.1,7.6,16.1,16.5c0,8.9-7.6,16.1-16.5,15.9c-8.9-0.2-16.4-7.8-16.2-16.4
		C189.3,384.1,196.8,376.9,205.7,377.1z"/>
	<path class="st0" d="M163,409.4c-8.8,0.2-16.4-7-16.7-15.9c-0.3-8.7,7.1-16.4,16-16.5c9.2-0.1,16.5,7.1,16.6,16.4
		C178.8,402.4,172,409.2,163,409.4z"/>
	<path class="st0" d="M468.4,675c-8.9,0.1-16.5-7.5-16.5-16.5c0-8.9,7.4-16.2,16.2-16.2c8.7,0.1,16.4,7.7,16.3,16.3
		C484.4,667.5,477.1,675,468.4,675z"/>
	<path class="st0" d="M570.1,701.7c-0.1,8.9-7.4,16.2-16.1,16.2c-9,0-16.3-7.5-16.2-16.7c0.1-8.9,7.6-16.3,16.3-16
		C562.8,685.4,570.2,693,570.1,701.7z"/>
	<path class="st0" d="M643.3,907c8.8,0.2,16.4,7.8,16.4,16.2c-0.1,8.6-8.4,16.7-16.8,16.4c-8.7-0.3-15.9-8-15.8-16.7
		C627.2,913.8,634.4,906.8,643.3,907z"/>
	<path class="st0" d="M1218.2,945.4c8.8-0.1,16.3,7.3,16.5,16.1c0.1,8.6-7.5,16.3-16.2,16.3c-8.7,0-16.3-7.6-16.4-16.2
		C1201.9,952.8,1209.3,945.4,1218.2,945.4z"/>
	<path class="st0" d="M557.4,907c9.1,0.1,16.6,7.8,16.4,16.6c-0.2,8.5-8.3,16.2-16.7,16c-8.5-0.2-16.1-8-16.1-16.6
		C541.1,914.1,548.5,906.9,557.4,907z"/>
	<path class="st0" d="M704.1,567.7c-0.1,8.6-7.6,16.2-16.2,16.3c-8.8,0-16.2-7.7-16.1-16.8c0.1-8.9,7.5-16.1,16.4-15.9
		C697.1,551.5,704.2,558.8,704.1,567.7z"/>
	<path class="st0" d="M1438.1,554.1c9,0,16.4,7.2,16.4,16c0,8.8-7.3,16.3-16.1,16.4c-9,0.1-16.5-7.4-16.6-16.4
		C1421.7,561.3,1429.1,554.1,1438.1,554.1z"/>
	<path class="st0" d="M1084.5,849c-8.9,0-16.4-7.3-16.4-16.1c-0.1-8.9,7.2-16.1,16.3-16.1c8.9,0,16.4,7.3,16.5,16
		C1100.8,841.7,1093.4,849,1084.5,849z"/>
	<path class="st0" d="M1540,570.1c0,9.2-7,16.4-16,16.3c-9.2-0.1-16.6-7.5-16.5-16.6c0.1-8.6,7.4-15.7,16.2-15.7
		C1532.9,554.1,1539.9,561,1540,570.1z"/>
	<path class="st0" d="M511,675.1c-8.9,0-16.3-7.7-16.2-16.8c0.1-8.6,7.3-15.8,15.9-16c8.8-0.2,16.6,7.6,16.6,16.5
		C527.2,667.4,519.6,675.1,511,675.1z"/>
	<path class="st0" d="M494.8,350.4c0-9,7-16.3,15.9-16.3c8.9-0.1,16.7,7.6,16.6,16.4c-0.1,8.8-7.4,16-16.4,16
		C502,366.5,494.8,359.4,494.8,350.4z"/>
	<path class="st0" d="M1652.6,200.2c8.9,0.1,16.2,7.5,16.2,16.3c0,8.8-7.5,16.3-16.2,16.3c-8.8,0-16.1-7.5-16.1-16.4
		C1636.5,207,1643.5,200,1652.6,200.2z"/>
	<path class="st0" d="M206,366.6c-9,0.2-16.9-7.4-16.9-16.2c0-8.5,7.2-15.9,15.9-16.2c8.9-0.3,16.7,7.2,16.8,16.3
		C221.9,359,214.7,366.4,206,366.6z"/>
	<path class="st0" d="M557.1,891.1c-8.6-0.1-16.1-7.8-16-16.4c0.1-8.9,7.4-15.9,16.4-15.8c8.9,0.1,16.3,7.4,16.3,16.1
		C573.8,883.8,566.2,891.2,557.1,891.1z"/>
	<path class="st0" d="M643.4,1293.1c-9,0.1-16.2-7-16.4-16c-0.1-9.1,7-16.3,16-16.3c8.9,0,16.6,7.4,16.6,16
		C659.8,1285.5,652.2,1293.1,643.4,1293.1z"/>
	<path class="st0" d="M425.4,599.8c9.2,0.1,16.1,7,16.1,16.1c0,9.1-7.5,16.4-16.6,16.2c-8.6-0.2-16-7.9-15.9-16.6
		C409,606.5,416.1,599.7,425.4,599.8z"/>
	<path class="st0" d="M1534.7,350.6c-0.1,8.7-7.2,15.9-15.9,15.9c-8.9,0-16.5-7.3-16.5-16c-0.1-9.1,7.5-16.7,16.5-16.5
		C1527.6,334.3,1534.8,341.8,1534.7,350.6z"/>
	<path class="st0" d="M735.9,404c-9-0.1-16.1-7.2-16-16.3c0-9.1,7.1-16,16.4-15.8c9,0.1,16.4,7.6,16.3,16.3
		C752.4,396.9,744.9,404.1,735.9,404z"/>
	<path class="st0" d="M613,390.5c0.1,8.8-7.1,16.2-16,16.3c-8.9,0.1-16.1-7-16.2-16c-0.1-9.3,7.1-16.8,16.1-16.7
		C605.5,374.3,612.9,381.8,613,390.5z"/>
	<path class="st0" d="M1449,393.5c0,8.9-6.9,15.8-15.9,15.9c-9.1,0.1-16.9-7.5-16.7-16.4c0.2-8.9,7.7-16.1,16.6-15.9
		C1442,377.2,1449,384.5,1449,393.5z"/>
	<path class="st0" d="M643.4,1110.9c-8.9,0.1-16.1-7-16.3-16.1c-0.2-8.8,7.1-16.4,16-16.5c8.4-0.1,16.4,7.7,16.6,16.2
		C659.9,1103.1,652.3,1110.7,643.4,1110.9z"/>
	<path class="st0" d="M643,1025.1c-8.8-0.1-16-7.5-16-16.5c0.1-8.8,7.1-15.8,15.9-15.9c9.1,0,16.8,7.5,16.6,16.4
		C659.4,1017.9,651.9,1025.2,643,1025.1z"/>
	<path class="st0" d="M248.5,452.2c-9.1,0-16.4-7-16.4-15.9c-0.1-8.9,7.1-16.1,16.2-16.2c9-0.1,16.3,7.1,16.4,16
		C264.8,445,257.6,452.2,248.5,452.2z"/>
	<path class="st0" d="M1802.7,961.6c0,8.8-7.4,16.2-16.3,16.2c-8.7,0-16.1-7.4-16.2-16.3c-0.1-8.9,7.3-16.2,16.2-16.1
		C1795.3,945.4,1802.7,952.9,1802.7,961.6z"/>
	<path class="st0" d="M1153.9,307.6c-0.1-8.9,7.2-16.3,16.1-16.4c8.7-0.1,16.1,7.2,16.3,16.2c0.2,8.9-7.3,16.5-16,16.4
		C1161.4,323.8,1154,316.4,1153.9,307.6z"/>
	<path class="st0" d="M760.9,923.1c-0.1-8.9,7.2-16.1,16.2-16.1c8.9,0,16.5,7.5,16.4,16.2c-0.1,8.6-8,16.5-16.3,16.4
		C768.7,939.6,761,931.7,760.9,923.1z"/>
	<path class="st0" d="M1084.2,538.1c-9.1-0.1-16.4-7.7-16.2-16.8c0.2-8.6,7.6-15.4,16.5-15.3c9,0.1,16.3,7.4,16.2,16.3
		C1100.7,531,1093.2,538.2,1084.2,538.1z"/>
	<path class="st0" d="M642.7,858.8c9.2-0.1,17,7.4,17,16.2c0,8.6-7.7,16.1-16.5,16.1c-8.9,0-16.1-7.3-16.1-16.3
		C627.1,865.8,633.8,858.9,642.7,858.8z"/>
	<path class="st0" d="M600.3,891.1c-8.9,0-16.4-7.6-16.2-16.7c0.1-8.7,7.2-15.6,16-15.6c9,0,16.8,7.5,16.7,16.3
		C616.7,883.7,609,891.1,600.3,891.1z"/>
	<path class="st0" d="M1438.3,505.9c9.1,0.1,16.2,7.2,16.1,16.1c-0.1,9-7.2,16-16.3,16c-9.1,0-16.4-7.4-16.4-16.5
		C1421.9,512.7,1429.1,505.9,1438.3,505.9z"/>
	<path class="st0" d="M1175.7,849c-9,0-16.4-7.2-16.6-16c-0.2-8.8,7.2-16.1,16.2-16.2c9.2,0,16.6,7.3,16.4,16.4
		C1191.6,842.1,1184.5,849,1175.7,849z"/>
	<path class="st0" d="M600,848.2c-8.7,0-15.9-7.4-15.9-16.4c0-8.9,7.3-16.1,16.3-16c8.8,0.1,16.4,7.6,16.4,16.1
		C616.8,840.7,609,848.3,600,848.2z"/>
	<path class="st0" d="M570.1,524.5c0.1,9-7,16.3-15.9,16.4c-9,0.2-16.4-7.2-16.4-16.4c0-8.9,6.9-16,15.6-16.2
		C562.4,508.1,570,515.6,570.1,524.5z"/>
	<path class="st0" d="M580.8,524.3c0.1-8.9,7-15.9,15.7-16c9.1,0,16.6,7.4,16.5,16.4c0,9.1-7.5,16.3-16.7,16.2
		C587.6,540.8,580.7,533.4,580.8,524.3z"/>
	<path class="st0" d="M1084.5,774c8.9,0.1,16.3,7.5,16.3,16.3c0,8.8-7.5,16-16.5,15.8c-9.1-0.1-16.3-7.3-16.2-16.2
		C1068.1,781,1075.5,773.9,1084.5,774z"/>
	<path class="st0" d="M493,788.7c0.1-8.8,7.6-15.9,16.5-15.7c8.7,0.2,16.3,8,16.1,16.4c-0.2,8.6-8,16.2-16.5,16.2
		C500.3,805.4,492.8,797.6,493,788.7z"/>
	<path class="st0" d="M205.5,286c9,0.1,16.2,7.3,16.2,16.3c0,8.7-7.7,16.3-16.4,16.2c-8.6-0.1-16.3-7.9-16.3-16.5
		C189.1,293.1,196.5,285.9,205.5,286z"/>
	<path class="st0" d="M1475.6,318.2c-9-0.1-16.1-7.2-16.2-16.2c0-9,7.1-16.1,16.2-16.1c9.1,0.1,16.1,7.1,16.1,16.2
		C1491.8,311.4,1484.9,318.3,1475.6,318.2z"/>
	<path class="st0" d="M408.9,744.1c0.1-8.7,7.8-16.1,16.5-15.9c8.9,0.2,16.3,8,16,17c-0.2,8.5-7.7,15.7-16.2,15.7
		C416.5,760.8,408.8,752.9,408.9,744.1z"/>
	<path class="st0" d="M704.1,524.6c0,8.9-7.7,16.5-16.6,16.4c-8.6-0.1-15.8-7.7-15.7-16.6c0.1-8.8,7-15.9,15.8-16
		C696.6,508.2,704.1,515.6,704.1,524.6z"/>
	<path class="st0" d="M382.7,583.9c-8.8,0.1-16.6-7.6-16.7-16.4c-0.1-8.7,7.2-16.1,16.1-16.3c8.9-0.2,16.3,7.3,16.4,16.6
		C398.5,576.4,391.3,583.8,382.7,583.9z"/>
	<path class="st0" d="M339.5,632.1c-8.8,0-16.5-7.8-16.5-16.6c0.1-8.8,7.4-15.8,16.6-15.7c9,0.1,16.2,7.2,16.1,16.2
		C355.8,624.7,348.3,632.1,339.5,632.1z"/>
	<path class="st0" d="M719.9,130.7c-0.1-9.1,7-16.3,16-16.2c8.9,0.1,16.6,7.5,16.6,16.1c0,8.6-7.7,16.2-16.3,16.4
		C727.6,147,720,139.5,719.9,130.7z"/>
	<path class="st0" d="M628.9,130.3c0.1-9,6.9-15.9,15.8-15.9c9,0,16.9,7.8,16.7,16.5c-0.2,8.7-7.9,16.1-16.7,16
		C635.9,146.8,628.9,139.4,628.9,130.3z"/>
	<path class="st0" d="M570.1,658.6c0,9-7.6,16.6-16.5,16.5c-8.7-0.1-15.8-7.5-15.8-16.5c0-9,7.2-16.3,16.1-16.2
		C562.6,642.4,570.1,649.9,570.1,658.6z"/>
	<path class="st0" d="M1829.2,675c-8.8-0.1-16-7.6-16-16.5c0-8.8,7.7-16.4,16.3-16.2c8.7,0.2,16.2,7.9,16,16.6
		C1845.4,667.9,1838.1,675.1,1829.2,675z"/>
	<path class="st0" d="M468.3,599.8c9.1,0.1,16.4,7.5,16.1,16.2c-0.3,9.2-7.7,16.4-16.8,16.1c-8.7-0.2-15.8-7.7-15.8-16.7
		C451.9,606.4,459,599.7,468.3,599.8z"/>
	<path class="st0" d="M467.8,243.2c8.9-0.1,16.6,7.2,16.7,15.9c0.1,8.7-7.4,16.5-16.1,16.6c-8.7,0.1-16.3-7.4-16.5-16.1
		C451.7,250.5,458.7,243.3,467.8,243.2z"/>
	<path class="st0" d="M1309.6,682.9c9,0.1,16.3,7.4,16.2,16.2c-0.1,9-7.3,16-16.4,15.9c-9.1-0.1-16.3-7.3-16.2-16.2
		C1293.2,689.8,1300.5,682.8,1309.6,682.9z"/>
	<path class="st0" d="M1084.4,629.1c-9,0-16.2-7.2-16.3-16.1c-0.1-8.8,7.4-16.1,16.3-16c9,0.1,16.4,7.4,16.4,16.1
		C1100.7,622.1,1093.4,629.2,1084.4,629.1z"/>
	<path class="st0" d="M1084.3,586.4c-8.8-0.1-16.2-7.6-16.2-16.4c0-8.8,7.4-16,16.4-15.9c8.9,0.1,16.3,7.6,16.3,16.3
		C1100.7,579.1,1093,586.6,1084.3,586.4z"/>
	<path class="st0" d="M1352.7,714.9c-9.3,0.1-16.7-7.1-16.6-16.3c0-8.6,7.2-15.7,16-15.8c9-0.1,16.5,7,16.7,15.8
		C1368.9,707.6,1361.8,714.8,1352.7,714.9z"/>
	<path class="st0" d="M1234.7,741.9c0,8.7-7.1,15.8-15.9,15.9c-9.2,0.1-16.8-7.2-16.7-16.2c0.1-8.8,7.6-16.1,16.4-16.1
		C1227.2,725.7,1234.7,733.2,1234.7,741.9z"/>
	<path class="st0" d="M248.2,318.2c-8.9-0.1-16.2-7.4-16.2-16.3c0-8.9,7.4-16.1,16.4-16c8.9,0.1,16.3,7.5,16.2,16.3
		C264.6,311.2,257.3,318.3,248.2,318.2z"/>
	<path class="st0" d="M1518.5,286c9,0,16.2,7.1,16.3,16.1c0.1,8.9-7.3,16.3-16.1,16.2c-8.9-0.1-16.4-7.5-16.4-16.2
		C1502.3,293.2,1509.5,286,1518.5,286z"/>
	<path class="st0" d="M510.8,157.3c8.8,0,16.5,7.4,16.5,16.1c0,8.7-7.5,16.3-16.2,16.4c-8.6,0.1-16.2-7.4-16.3-16.2
		C494.7,164.5,501.8,157.3,510.8,157.3z"/>
	<path class="st0" d="M1593.7,302.1c0-9.2,6.4-15.9,15.5-16.1c9.3-0.1,16.6,6.9,16.7,16.2c0.1,8.9-7.3,16.3-16.2,16.2
		C1600.6,318.3,1593.7,311.3,1593.7,302.1z"/>
	<path class="st0" d="M1218.7,806.1c-9.3,0-16.7-7.2-16.7-16.3c0.1-8.9,7.4-15.9,16.5-15.9c8.8,0.1,16.3,7.6,16.2,16.3
		C1234.6,799,1227.5,806,1218.7,806.1z"/>
	<path class="st0" d="M557.3,848.2c-8.8,0-16.2-7.6-16.2-16.3c0-8.7,7.2-15.9,15.9-16c9.1-0.1,16.9,7.5,16.7,16.3
		C573.7,840.9,566.2,848.2,557.3,848.2z"/>
	<path class="st0" d="M570.1,173.3c0,9-7.6,16.6-16.5,16.6c-8.4-0.1-15.7-7.5-15.8-16.1c-0.1-9.2,6.7-16.3,15.8-16.4
		C562.5,157.2,570,164.5,570.1,173.3z"/>
	<path class="st0" d="M838,173.4c0,8.8-7.4,16.3-16.1,16.4c-8.6,0.1-16.1-7.5-16.2-16.3c-0.1-9,7-16.2,16-16.2
		C830.7,157.3,838,164.6,838,173.4z"/>
	<path class="st0" d="M805.7,82.2c0-8.8,6.9-15.9,15.7-16.1c9.1-0.2,16.7,7.2,16.7,16.3c0,8.8-7.3,16.2-16.2,16.2
		C813.2,98.7,805.7,91.1,805.7,82.2z"/>
	<path class="st0" d="M1127.1,538.1c-9-0.1-16.1-7.3-16.1-16.3c0-9,7.2-15.9,16.4-15.9c9.1,0,16.2,7.2,16.1,16.2
		C1143.4,531.2,1136.2,538.2,1127.1,538.1z"/>
	<path class="st0" d="M669.9,923.3c-0.1-9,7.1-16.3,16.1-16.2c8.8,0,16.5,7.6,16.5,16.1c0,8.7-7.8,16.5-16.2,16.5
		C677.7,939.6,670,931.9,669.9,923.3z"/>
	<path class="st0" d="M881,39.5c0,8.8-7.5,16.3-16.3,16.2c-8.7,0-16.2-7.6-16.2-16.4c0-8.9,7.4-16.2,16.3-16.1
		C873.6,23.3,881,30.8,881,39.5z"/>
	<path class="st0" d="M1475.3,495.1c-9-0.2-15.9-7.3-15.9-16.5c0.1-9,7.3-15.9,16.5-15.7c9.2,0.2,16,7.3,15.8,16.4
		C1491.6,488.7,1484.7,495.3,1475.3,495.1z"/>
	<path class="st0" d="M1433.1,452.2c-9.4,0-16.7-7.1-16.6-16.2c0.1-8.8,7.1-15.8,15.9-15.9c9.3-0.1,16.5,7.1,16.5,16.4
		C1448.9,445.3,1442.1,452.1,1433.1,452.2z"/>
	<path class="st0" d="M880.9,259.2c0,8.9-7.3,16.4-16.1,16.4c-8.7,0-16.4-7.6-16.5-16.2c-0.1-8.9,7.2-16.2,16.2-16.2
		C873.6,243.1,880.9,250.3,880.9,259.2z"/>
	<path class="st0" d="M1518.6,377.1c8.9,0.1,16.1,7.4,16.1,16.3c0,9-7.3,16.1-16.3,16c-8.9-0.1-16.3-7.6-16.2-16.4
		C1502.4,384,1509.6,376.9,1518.6,377.1z"/>
	<path class="st0" d="M1475.3,377.1c9.1-0.1,16.3,6.8,16.5,15.8c0.2,9.2-6.7,16.4-15.7,16.5c-9,0.1-16.4-6.9-16.6-15.8
		C1459.2,384.6,1466.4,377.2,1475.3,377.1z"/>
	<path class="st0" d="M1845.6,1095.8c-0.1,9-7.5,16.1-16.4,15.9c-9.1-0.2-16.2-7.4-16-16.3c0.2-8.9,7.8-16.4,16.3-16.1
		C1838.4,1079.6,1845.7,1087.1,1845.6,1095.8z"/>
	<path class="st0" d="M1100.8,393.3c0.1,8.8-7.4,16.2-16.3,16.1c-8.9,0-16.4-7.4-16.4-16.2c0-8.7,7.2-16,15.8-16.2
		C1092.9,376.9,1100.7,384.3,1100.8,393.3z"/>
	<path class="st0" d="M527.2,216.9c-0.4,9.1-7.9,16-16.7,15.8c-9-0.2-16.1-8.2-15.7-17.4c0.4-8.7,7.9-15.6,16.7-15.2
		C520.4,200.6,527.7,208.2,527.2,216.9z"/>
	<path class="st0" d="M601.9,243.2c8.8-0.1,16.5,7.4,16.7,16c0.1,8.6-7.5,16.3-16.3,16.4c-8.7,0.2-16.2-7.2-16.4-16.2
		C585.8,250.2,592.7,243.2,601.9,243.2z"/>
	<path class="st0" d="M178.7,350.5c0,8.8-7,15.9-15.8,16c-9,0.1-16.9-7.6-16.8-16.4c0.1-8.7,7.7-16.2,16.5-16.1
		C171.5,334.2,178.7,341.6,178.7,350.5z"/>
	<path class="st0" d="M570.1,259.4c0,8.8-7.5,16.3-16.3,16.2c-8.9-0.1-16-7.4-16.1-16.4c0-9.2,7-16.2,16.2-16
		C563,243.3,570.1,250.5,570.1,259.4z"/>
	<path class="st0" d="M1561.1,334.1c9.1-0.1,16.6,7.4,16.5,16.5c0,8.7-7.2,15.9-15.9,16c-9.1,0.1-16.7-7.5-16.5-16.5
		C1545.3,341.3,1552.5,334.1,1561.1,334.1z"/>
	<path class="st0" d="M643.3,1159c-9,0.1-16.1-7-16.2-16.1c-0.1-8.8,6.9-15.8,15.6-16.2c7.9-0.4,16.7,6.3,17,16.1
		C659.8,1151.6,652.2,1159,643.3,1159z"/>
	<path class="st0" d="M1593.7,216.3c0-9.1,6.6-15.9,15.5-16.1c9.2-0.2,16.6,7.1,16.6,16.3c0,8.9-7.4,16.3-16.2,16.2
		C1600.8,232.7,1593.7,225.4,1593.7,216.3z"/>
	<path class="st0" d="M451.9,173.2c0-8.9,7.5-16.2,16.4-16c8.9,0.2,16.2,7.6,16.1,16.4c-0.1,8.7-7.8,16.2-16.5,16.1
		C459.2,189.7,451.8,182.1,451.9,173.2z"/>
	<path class="st0" d="M687.8,498c-8.8,0-16-7.3-16-16.3c0-9.1,6.9-16.2,15.9-16.3c8.7-0.1,16.3,7.3,16.4,16
		C704.2,490.6,696.9,498,687.8,498z"/>
	<path class="st0" d="M451.9,350.4c0-8.9,7.2-16.3,16-16.4c8.8-0.1,16.6,7.6,16.6,16.5c0,8.8-7.4,16-16.4,16
		C459.2,366.6,451.9,359.3,451.9,350.4z"/>
	<path class="st0" d="M1229.1,307.9c-0.1,8.7-7.4,16-15.9,15.9c-9-0.1-16.5-7.7-16.4-16.8c0.1-8.6,7.4-15.8,16.1-15.9
		C1221.9,291.1,1229.2,298.6,1229.1,307.9z"/>
	<path class="st0" d="M1518.8,495.1c-9.1,0.1-16.3-6.9-16.5-15.9c-0.2-9,6.8-16.2,16-16.2c9.3,0,16.3,6.7,16.4,15.8
		C1534.9,487.9,1527.9,495.1,1518.8,495.1z"/>
	<path class="st0" d="M907.7,227.1c-8.9,0.1-16.3-7.2-16.4-16.1c-0.1-8.9,7.1-16.1,16.2-16.2c8.9,0,16.3,7.2,16.4,16
		C923.9,219.8,916.7,227.1,907.7,227.1z"/>
	<path class="st0" d="M736.3,227.1c-9.1,0.1-16.5-7.2-16.5-16.4c0-8.8,6.9-15.8,15.7-15.9c9.1-0.1,16.9,7.2,17,16.1
		C752.7,219.5,745.1,227.1,736.3,227.1z"/>
	<path class="st0" d="M719.9,259c0-9,7.3-16.1,16.3-15.9c8.6,0.2,16.2,7.6,16.3,15.8c0.1,8.8-7.9,16.8-16.6,16.6
		C727.1,275.3,719.9,267.9,719.9,259z"/>
	<path class="st0" d="M1041.5,538.1c-9-0.1-16.4-7.4-16.4-16.2c0-8.9,7.4-16,16.4-16c9.1,0.1,16.3,7.2,16.3,16.1
		C1057.8,531,1050.5,538.2,1041.5,538.1z"/>
	<path class="st0" d="M1829.3,1068.9c-9-0.1-16.1-7.2-16.2-16.2c0-8.9,7.2-16.2,16.2-16.2c8.8,0,16.3,7.6,16.2,16.3
		C1845.4,1061.7,1838.2,1068.9,1829.3,1068.9z"/>
	<path class="st0" d="M881,173.3c0.1,8.8-7.3,16.3-16.1,16.5c-8.4,0.1-16.3-7.6-16.5-16.2c-0.2-8.7,7.3-16.3,16.1-16.3
		C873.5,157.3,880.9,164.5,881,173.3z"/>
	<path class="st0" d="M1974,524.7c-0.1,9.1-7.2,16.3-16.1,16.2c-9.1,0-16.2-7.6-16-16.9c0.2-8.8,7.6-16,16.1-15.8
		C1967.1,508.6,1974.1,515.8,1974,524.7z"/>
	<path class="st0" d="M1084.4,452.2c-9,0-16.4-7.3-16.3-16.1c0-8.9,7.4-16.2,16.3-16.1c8.9,0.1,16.3,7.4,16.4,16.2
		C1100.8,445,1093.4,452.2,1084.4,452.2z"/>
	<path class="st0" d="M275,350c0.1-8.8,7.7-16.2,16.5-16c8.6,0.2,16.2,8,16.2,16.6c0,8.7-7.9,16.2-16.6,15.9
		C282,366.2,274.8,358.9,275,350z"/>
	<path class="st0" d="M248.7,366.6c-8.9,0-16.5-7.2-16.7-15.9c-0.2-8.8,7.2-16.5,15.9-16.6c8.9-0.1,16.7,7.5,16.7,16.5
		C264.7,359,257.3,366.5,248.7,366.6z"/>
	<path class="st0" d="M1593.7,350.3c0-9.3,6.8-16.2,16-16.2c8.8,0,16.1,7.3,16.2,16.3c0.1,9-7.1,16.3-16.1,16.2
		C1600.6,366.5,1593.7,359.5,1593.7,350.3z"/>
	<path class="st0" d="M1191.8,1004.6c0,8.9-7.5,16.2-16.3,16c-8.7-0.1-16.3-7.8-16.3-16.3c0-8.6,7.8-16.1,16.5-16.1
		C1184.3,988.3,1191.8,995.9,1191.8,1004.6z"/>
	<path class="st0" d="M484.2,567.8c-0.1,9-7.3,16.2-16.1,16.2c-8.9-0.1-16.3-7.8-16.2-16.8c0.1-8.6,7.4-15.9,16-15.8
		C478.2,551.4,484.9,559.8,484.2,567.8z"/>
	<path class="st0" d="M1288,570.1c-0.1-8.9,6.7-15.8,15.7-16c9.3-0.2,16.7,7.1,16.7,16.2c0,8.8-7.5,16.2-16.3,16.2
		C1295.1,586.4,1288.1,579.2,1288,570.1z"/>
	<path class="st0" d="M1582.9,570.1c0,9.2-6.9,16.3-15.9,16.3c-9.1,0.1-16.2-7-16.2-16c-0.1-9.3,6.7-16.2,15.9-16.3
		C1575.8,554.1,1582.9,561,1582.9,570.1z"/>
	<path class="st0" d="M1593.7,570.2c0-9.4,6.7-16.2,16-16.1c9.2,0.1,16.2,7,16.2,16.1c0,9-7.1,16.2-16.1,16.2
		C1600.8,586.5,1593.7,579.3,1593.7,570.2z"/>
	<path class="st0" d="M1491.8,259.1c0.1,8.9-7.1,16.4-16,16.5c-8.7,0.1-16.1-7.3-16.4-16.2c-0.2-9,6.9-16.2,16-16.2
		C1484.7,243.1,1491.7,249.9,1491.8,259.1z"/>
	<path class="st0" d="M162.6,452.2c-9-0.1-16.3-7.2-16.4-16c-0.1-8.8,7.4-16.1,16.3-16.1c9.3,0,16.4,7.4,16.2,16.7
		C178.5,445.7,171.7,452.2,162.6,452.2z"/>
	<path class="st0" d="M1245,918.2c0.1-8.7,7.3-15.6,16.2-15.6c9.2,0,16.8,7.6,16.4,16.5c-0.3,8.7-7.6,15.7-16.2,15.7
		C1252.2,934.8,1244.8,927.3,1245,918.2z"/>
	<path class="st0" d="M1668.8,570.1c0.1,9-7.1,16.2-16,16.3c-8.8,0.1-16.2-7.2-16.3-16.1c-0.1-9.1,6.5-16,15.4-16.2
		C1661.2,553.9,1668.7,561,1668.8,570.1z"/>
	<path class="st0" d="M1175.8,859.8c9,0.1,16.2,7.5,16,16.3c-0.2,9-7.6,16-16.6,15.8c-8.8-0.2-16.2-7.8-16.1-16.5
		C1159.2,866.7,1166.7,859.7,1175.8,859.8z"/>
	<path class="st0" d="M1041.1,639.9c9-0.1,16.5,7,16.7,15.7c0.2,9-6.9,16.3-15.8,16.5c-9.2,0.1-16.8-7.2-16.8-16.2
		C1025.2,647.2,1032.4,640,1041.1,639.9z"/>
	<path class="st0" d="M1309.5,849c-8.9,0-16.4-7.3-16.4-16.1c0-8.9,7.3-16,16.3-16.1c8.9,0,16.3,7.2,16.3,16.1
		C1325.8,841.8,1318.6,849,1309.5,849z"/>
	<path class="st0" d="M1041.7,682.9c9,0.1,16.2,7.3,16.2,16.2c0,8.8-7.4,16-16.4,15.9c-8.9-0.1-16.3-7.5-16.3-16.2
		C1025.3,689.9,1032.7,682.8,1041.7,682.9z"/>
	<path class="st0" d="M436,130.7c0,8.9-7.4,16.2-16.3,16.2c-8.7,0-16.1-7.4-16.1-16.4c0-9,7.2-16.2,16.2-16.1
		C428.8,114.5,436.1,121.8,436,130.7z"/>
	<path class="st0" d="M393.1,130.6c0,9-7.1,16.3-16,16.3c-8.7,0-16.2-7.4-16.3-16.2c-0.1-9,7.1-16.3,16.1-16.2
		C386.1,114.5,393.1,121.5,393.1,130.6z"/>
	<path class="st0" d="M1041.5,816.9c8.9,0,16.4,7.3,16.4,16c0,8.9-7.3,16.1-16.3,16.1c-8.9,0-16.4-7.3-16.4-16
		C1025.2,824.1,1032.4,816.9,1041.5,816.9z"/>
	<path class="st0" d="M643.3,848.2c-8.9,0.1-16.1-7.1-16.2-16.1c-0.1-8.8,6.9-16.1,15.6-16.2c9.1-0.1,17,7.4,17,16.2
		C659.7,840.6,652.1,848.1,643.3,848.2z"/>
	<path class="st0" d="M135.8,350.5c0.1,8.8-6.8,15.9-15.7,16.1c-9,0.2-16.7-7.4-16.8-16.3c0-8.4,7.4-15.9,15.9-16.2
		C128.3,333.8,135.7,341.2,135.8,350.5z"/>
	<path class="st0" d="M1041.7,725.8c9,0.1,16.3,7.5,16.2,16.2c-0.2,9-7.5,16.1-16.5,15.9c-9-0.2-16.4-7.6-16.2-16.3
		C1025.3,732.7,1032.6,725.7,1041.7,725.8z"/>
	<path class="st0" d="M907.5,66.1c8.9,0,16.4,7.5,16.4,16.1c0,8.7-7.5,16.3-16.2,16.4c-8.8,0.1-16.6-7.9-16.4-16.7
		C891.5,73.3,898.9,66.1,907.5,66.1z"/>
	<path class="st0" d="M451.9,216.3c0-9,7.3-16.2,16.3-16.1c9,0.1,16.4,7.5,16.3,16.3c-0.1,8.7-7.8,16.3-16.4,16.3
		C459.4,232.7,451.9,225.1,451.9,216.3z"/>
	<path class="st0" d="M436,216.8c-0.2,8.5-7.6,16-16.1,15.9c-9.1-0.2-16.6-7.9-16.3-16.8c0.3-8.7,7.3-15.7,16.1-15.7
		C429,200.2,436.2,207.6,436,216.8z"/>
	<path class="st0" d="M248.4,409.4c-8.9-0.1-16.3-7.5-16.4-16.2c0-8.8,7.4-16.2,16.2-16.2c9,0,16.6,7.8,16.4,16.7
		C264.4,402.4,257.1,409.5,248.4,409.4z"/>
	<path class="st0" d="M551.8,772.9c8.8,0,16.4,7.4,16.6,16c0.1,8.7-7.9,16.7-16.7,16.6c-8.7-0.1-15.9-7.8-15.8-16.7
		C536,780.1,543.1,772.9,551.8,772.9z"/>
	<path class="st0" d="M1261.5,806c-9.1,0-16.4-6.9-16.5-15.8c-0.1-9,7-16.2,16-16.3c9.2-0.1,16.7,7.3,16.6,16.4
		C1277.4,799.1,1270.3,806,1261.5,806z"/>
	<path class="st0" d="M1127.5,806.1c-9.3,0-16.6-7.2-16.6-16.4c0-8.8,7.4-15.9,16.5-15.8c8.8,0.1,15.8,7.1,16,15.9
		C1143.7,798.8,1136.6,806.1,1127.5,806.1z"/>
	<path class="st0" d="M135.8,302.1c0.1,9.1-7.1,16.3-16,16.3c-8.7-0.1-16.2-7.5-16.3-16.2c-0.1-8.8,7.2-16.1,16.2-16.1
		C128.8,286,135.7,292.9,135.8,302.1z"/>
	<path class="st0" d="M317.8,259c0-8.7,7.2-15.7,16-15.8c8.8-0.1,16.6,7.3,16.6,15.9c0,8.9-7.8,16.7-16.6,16.5
		C325.1,275.4,317.8,267.7,317.8,259z"/>
	<path class="st0" d="M494.8,393c0-9,7.3-16.1,16.3-16c8.8,0.2,16.3,7.7,16.2,16.4c-0.2,9-7.4,16-16.5,15.9
		C501.7,409.3,494.8,402.2,494.8,393z"/>
	<path class="st0" d="M1041.8,806.1c-9,0.1-16.4-6.9-16.6-15.8c-0.2-8.8,7.1-16.2,16.1-16.3c8.9-0.1,16.5,7.2,16.6,15.9
		C1058,798.7,1050.8,806,1041.8,806.1z"/>
	<path class="st0" d="M1309.6,806c-9.1,0-16.4-7-16.5-15.9c-0.2-8.8,7.2-16.1,16.2-16.2c9,0,16.3,7.1,16.4,15.9
		C1325.9,798.9,1318.7,806,1309.6,806z"/>
	<path class="st0" d="M1111,81.6c0.3-8.8,8.1-15.9,16.9-15.5c8.9,0.4,15.9,8.1,15.5,16.9c-0.4,8.7-7.8,15.8-16.3,15.6
		C1118.2,98.4,1110.7,90.4,1111,81.6z"/>
	<path class="st0" d="M1325.8,742c-0.1,9-7.4,16-16.4,15.8c-9.1-0.2-16.3-7.5-16.2-16.3c0.2-8.9,7.4-15.9,16.5-15.8
		C1318.7,725.9,1325.9,733.1,1325.8,742z"/>
	<path class="st0" d="M1497,830.1c0.1,9.2-6.8,16.4-15.7,16.5c-8.9,0.1-16.6-7.5-16.6-16.4c-0.1-8.8,7.3-16.1,16.1-16.2
		C1489.8,814,1496.9,821.1,1497,830.1z"/>
	<path class="st0" d="M1127.6,848.9c-9.3,0.1-16.6-7.1-16.6-16.2c0-8.6,7.2-15.7,16-15.8c9.2-0.1,16.7,7.2,16.6,16.3
		C1143.4,842,1136.5,848.9,1127.6,848.9z"/>
	<path class="st0" d="M1325.8,393.3c0-9.4,6.7-16.3,15.9-16.2c9.1,0.1,16.2,7.1,16.2,16.1c0.1,9.1-6.9,16.2-16,16.2
		C1332.6,409.4,1325.8,402.6,1325.8,393.3z"/>
	<path class="st0" d="M484.2,701.8c0.6,8.5-7.4,16.2-16.1,16.1c-8.8-0.1-16.2-7.5-16.2-16.2c-0.1-8.8,7.3-16.6,16-16.4
		C477.9,685.4,484.8,693.9,484.2,701.8z"/>
	<path class="st0" d="M1218.4,849c-8.9-0.1-16.3-7.4-16.3-16.1c0-8.9,7.3-16,16.3-16c9,0,16.3,7.3,16.3,16.1
		C1234.7,841.8,1227.4,849.1,1218.4,849z"/>
	<path class="st0" d="M382.5,685.2c8.7,0.2,16,7.9,15.9,16.7c-0.2,9.2-7.3,16.2-16.3,16c-8.7-0.2-16.1-7.9-16-16.6
		C366.1,692.6,373.9,685,382.5,685.2z"/>
	<path class="st0" d="M1438.4,714.9c-9.1,0-16.5-7-16.6-15.8c-0.1-8.9,7.1-16.2,16.1-16.2c9.2-0.1,16.8,7.4,16.7,16.3
		C1454.4,707.9,1447.2,714.9,1438.4,714.9z"/>
	<path class="st0" d="M1582.9,393.2c0.1,9.1-6.9,16.2-16,16.2c-9.1,0-16.1-7-16.2-16.1c-0.1-9.2,6.8-16.2,16-16.2
		C1575.7,377.1,1582.8,384.2,1582.9,393.2z"/>
	<path class="st0" d="M1218.4,682.8c9,0.1,16.3,7.2,16.3,16.1c0,8.9-7.3,16-16.4,15.9c-9-0.1-16.3-7.3-16.3-16.1
		C1202.1,689.9,1209.3,682.8,1218.4,682.8z"/>
	<path class="st0" d="M1175.8,714.9c-9,0.1-16.4-7-16.7-15.8c-0.3-8.7,7.2-16.2,16.1-16.3c9.2-0.1,16.5,7.1,16.6,16.3
		C1191.8,707.8,1184.7,714.8,1175.8,714.9z"/>
	<path class="st0" d="M1084.4,714.9c-8.9,0-16.3-7.3-16.4-16.1c0-8.8,7.4-16,16.3-16c8.9,0,16.4,7.4,16.4,16.1
		C1100.8,707.7,1093.4,714.9,1084.4,714.9z"/>
	<path class="st0" d="M1261.5,849c-9,0.1-16.4-7.1-16.5-15.8c-0.1-9,6.9-16.2,16-16.3c8.8-0.1,16.4,7.1,16.6,15.9
		C1277.8,841.5,1270.5,848.9,1261.5,849z"/>
	<path class="st0" d="M613,658.8c-0.1,8.7-7.7,16.2-16.4,16.2c-8.8,0-15.9-7.3-15.8-16.5c0-8.9,6.9-16.1,15.6-16.2
		C605.4,642.2,613.1,649.9,613,658.8z"/>
	<path class="st0" d="M527.1,130.4c0,8.9-7.2,16.3-16,16.4c-8.7,0.1-16.2-7.3-16.3-16.1c-0.1-9.1,6.9-16.3,15.9-16.3
		C519.6,114.4,527.1,121.6,527.1,130.4z"/>
	<path class="st0" d="M1438.2,672.1c-9.1,0-16.5-7.3-16.5-16.4c0.1-8.5,7.3-15.7,15.9-15.9c9.2-0.1,16.8,7.2,16.8,16.1
		C1454.5,664.8,1447.2,672.1,1438.2,672.1z"/>
	<path class="st0" d="M1304.2,639.9c9,0.1,16.3,7.3,16.3,16.2c0,8.9-7.3,16.1-16.3,16c-9,0-16.1-7.1-16.1-16.2
		C1287.9,646.8,1295,639.9,1304.2,639.9z"/>
	<path class="st0" d="M1636.5,258.4c0.4-9,7.4-15.5,16.4-15.3c9.3,0.3,16.4,7.9,15.9,17c-0.5,8.8-8.2,15.9-17,15.4
		C1642.9,275.1,1636.2,267.5,1636.5,258.4z"/>
	<path class="st0" d="M510.8,599.8c9.3,0,16.3,6.7,16.4,15.7c0,9.4-7,16.6-16.2,16.6c-8.7,0-16.1-7.4-16.1-16.3
		C494.7,606.7,501.6,599.8,510.8,599.8z"/>
	<path class="st0" d="M736,318.2c-9,0-16.1-7.1-16.1-16.2c0-9,7.2-16.1,16.3-16c8.7,0.1,16.4,7.7,16.4,16.2
		C752.6,310.8,744.9,318.2,736,318.2z"/>
	<path class="st0" d="M1802.8,570.1c0,8.8-7.3,16.2-16.1,16.3c-9.1,0.1-16.4-7.3-16.3-16.6c0.1-8.9,7-15.7,15.9-15.7
		C1795.5,554.2,1802.8,561.3,1802.8,570.1z"/>
	<path class="st0" d="M1309.4,859.8c9,0,16.3,7.1,16.4,16c0.1,8.9-7.3,16.2-16.2,16.1c-8.9,0-16.4-7.3-16.4-16.1
		C1293.1,867,1300.3,859.8,1309.4,859.8z"/>
	<path class="st0" d="M334.1,200.2c8.8,0.1,16.6,7.8,16.4,16.2c-0.2,8.7-7.8,16.3-16.4,16.3c-8.9,0-16.3-7.8-16.2-16.9
		C318,207.2,325.3,200.1,334.1,200.2z"/>
	<path class="st0" d="M119.8,452.2c-9.1-0.1-16.4-7.2-16.3-16c0-9,7.2-16.1,16.2-16.1c9.1,0,16.1,7,16.1,16.1
		C135.8,445.5,129.1,452.2,119.8,452.2z"/>
	<path class="st0" d="M1534.7,259.1c0.2,8.8-7.1,16.3-16,16.5c-8.5,0.2-16.2-7.3-16.5-16.2c-0.3-8.8,7-16.2,16-16.3
		C1527.3,243.1,1534.6,250.1,1534.7,259.1z"/>
	<path class="st0" d="M1287.9,961.3c0.1-8.7,7.1-15.8,15.9-15.9c9-0.1,16.7,7.5,16.6,16.4c-0.1,8.5-7.5,15.9-16,16
		C1295.3,977.9,1287.9,970.4,1287.9,961.3z"/>
	<path class="st0" d="M923.9,259.4c-0.1,8.7-7.7,16.2-16.4,16.1c-8.7-0.1-16.2-7.7-16.2-16.4c0-8.8,7.4-16.1,16.4-15.9
		C916.7,243.3,924,250.6,923.9,259.4z"/>
	<path class="st0" d="M762.8,130.3c0.1-8.8,7.1-15.8,15.9-15.9c9.1-0.1,16.5,7.3,16.4,16.5c-0.1,8.8-7.6,16.1-16.4,16
		C770,146.8,762.7,139.2,762.8,130.3z"/>
	<path class="st0" d="M1406,570.3c0,9-7.1,16-16.2,16.1c-8.8,0.1-15.9-7.1-15.9-16.4c0-9.4,6.7-16.1,16-16
		C1399.1,554.2,1406.1,561.3,1406,570.3z"/>
	<path class="st0" d="M600.2,982.2c-8.9-0.1-16.1-7.3-16.1-16.3c-0.1-8.9,7.3-16,16.4-15.9c8.9,0.1,16.4,7.6,16.3,16.3
		C616.6,975.1,608.7,982.8,600.2,982.2z"/>
	<path class="st0" d="M1057.9,570.7c-0.3,8.8-8,16-16.8,15.7c-8.8-0.3-16.2-8-15.9-16.7c0.3-8.9,8-16,16.8-15.6
		C1050.9,554.5,1058.2,562.1,1057.9,570.7z"/>
	<path class="st0" d="M642.8,950c8.9-0.1,16.6,7.1,16.8,15.7c0.2,8.6-7.3,16.4-16,16.5c-9.2,0.1-16.6-7.2-16.6-16.3
		C627.1,957,634,950,642.8,950z"/>
	<path class="st0" d="M436,173.5c0,8.9-7.3,16.3-16.1,16.3c-8.6,0.1-16.1-7.5-16.2-16.3c-0.1-9,7.1-16.2,16.1-16.2
		C428.8,157.3,436,164.5,436,173.5z"/>
	<path class="st0" d="M1218.5,1020.6c-8.7,0.1-16.4-7.4-16.5-16.1c-0.1-8.7,7.4-16.3,16.1-16.3c8.8,0,16.3,7.3,16.5,16.1
		C1234.9,1012.9,1227.4,1020.6,1218.5,1020.6z"/>
	<path class="st0" d="M393.1,350.7c-0.1,8.8-7,15.7-16,15.8c-9.1,0.1-16.5-7.5-16.3-16.6c0.1-8.7,7.4-15.9,16-15.9
		C385.8,334,393.1,341.5,393.1,350.7z"/>
	<path class="st0" d="M537.8,216.4c0-9.1,7.1-16.2,16.1-16.2c8.9,0.1,16.3,7.4,16.2,16.2c0,8.8-7.6,16.3-16.2,16.3
		C545.1,232.7,537.8,225.3,537.8,216.4z"/>
	<path class="st0" d="M838,39.5c0,8.9-7.3,16.3-16.2,16.3c-8.8,0-16.1-7.4-16.2-16.3c-0.1-9,7.2-16.2,16.1-16.2
		C830.7,23.3,838,30.6,838,39.5z"/>
	<path class="st0" d="M923.9,173.2c0.1,8.8-7.3,16.4-16,16.6c-8.7,0.2-16.5-7.7-16.6-16.6c0-8.5,7.4-15.9,16-15.9
		C916.2,157.2,923.8,164.5,923.9,173.2z"/>
	<path class="st0" d="M1652.7,506c9.1,0.1,16.1,7.2,16.1,16.2c0,9-7.2,16-16.4,15.9c-9.1-0.1-16.1-7.1-16-16.2
		C1636.6,512.4,1643.3,505.9,1652.7,506z"/>
	<path class="st0" d="M1303.9,505.9c9.2,0,16.4,6.9,16.5,15.8c0.2,8.9-7,16.2-16,16.3c-9.3,0.1-16.5-7.1-16.4-16.4
		C1288.1,512.8,1294.9,506,1303.9,505.9z"/>
	<path class="st0" d="M735.7,361c-9-0.1-15.9-7.4-15.8-16.5c0.1-8.9,7.5-15.8,16.7-15.6c8.8,0.2,16.3,8,16,16.6
		C752.3,354.3,744.8,361.2,735.7,361z"/>
	<path class="st0" d="M1786.3,1079.3c8.9,0,16.5,7.7,16.4,16.7c-0.2,8.8-7.2,15.6-16.1,15.6c-9,0.1-16.2-7-16.3-16
		C1770.2,1086.7,1777.5,1079.3,1786.3,1079.3z"/>
	<path class="st0" d="M1518.9,452.2c-9.4,0.1-16.7-7.1-16.7-16.2c0.1-8.8,7.1-15.8,15.9-15.9c9.3-0.1,16.6,7.1,16.6,16.3
		C1534.7,445.3,1527.9,452.1,1518.9,452.2z"/>
	<path class="st0" d="M1566.8,452.2c-9.3-0.1-16-6.8-16-16.1c0-9.3,6.9-16.1,16.1-16c9.3,0.1,16.3,7.4,16.1,16.7
		C1582.8,445.7,1575.9,452.2,1566.8,452.2z"/>
	<path class="st0" d="M1668.8,173.4c0.1,8.8-7.3,16.3-16.1,16.4c-8.6,0.1-16.1-7.3-16.3-16.2c-0.1-9.2,6.7-16.2,15.9-16.2
		C1661.5,157.4,1668.7,164.4,1668.8,173.4z"/>
	<path class="st0" d="M580.8,481.4c0.1-8.9,6.9-15.9,15.7-16c9.1-0.1,16.6,7.3,16.6,16.4c0,9-7.4,16.3-16.7,16.2
		C587.6,497.9,580.7,490.7,580.8,481.4z"/>
	<path class="st0" d="M1872,1111.7c-9.1-0.1-16.1-7.3-16-16.3c0.1-9,7.6-16.3,16.3-16.1c8.9,0.3,16.1,7.7,16,16.5
		C1888.3,1104.9,1881.2,1111.8,1872,1111.7z"/>
	<path class="st0" d="M585.9,39.4c0-9,7.2-16.4,16.1-16.3c8.6,0.1,16.5,7.9,16.5,16.3c0,8.4-7.9,16.2-16.5,16.3
		C593.3,55.8,586,48.4,585.9,39.4z"/>
	<path class="st0" d="M570.1,39.2c0.1,8.8-7.2,16.4-15.9,16.6c-8.7,0.2-16.2-7.2-16.3-16.1c-0.1-9.1,6.8-16.3,15.8-16.4
		C562.4,23.1,570,30.5,570.1,39.2z"/>
	<path class="st0" d="M317.8,350.3c0-8.8,7.3-16.2,16.1-16.3c8.8-0.1,16.6,7.8,16.6,16.5c-0.1,8.5-7.4,15.9-16,16
		C325.4,366.7,317.8,359.3,317.8,350.3z"/>
	<path class="st0" d="M1325.8,478.8c0-9.4,6.6-15.9,16.1-15.8c9.1,0.1,16.1,7.2,16,16.3c-0.1,9.2-7.1,15.9-16.4,15.8
		C1332.2,495,1325.7,488.3,1325.8,478.8z"/>
	<path class="st0" d="M424.9,334c8.7-0.1,16.3,7.2,16.5,16.1c0.3,8.9-7.1,16.4-16,16.4c-8.9,0-16.4-7.2-16.5-16
		C408.8,341.7,416.2,334.1,424.9,334z"/>
	<path class="st0" d="M982.7,570.2c0-9.1,6.5-15.9,15.5-16c9.1-0.1,16.7,7.2,16.7,16.2c0,8.9-7.2,16-16.3,16.1
		C989.8,586.5,982.7,579.3,982.7,570.2z"/>
	<path class="st0" d="M1652.5,377.1c9.1,0.1,16.5,7.6,16.3,16.7c-0.2,8.7-7.3,15.7-16.1,15.7c-9,0-16.2-7.2-16.2-16.2
		C1636.5,384.1,1643.4,377,1652.5,377.1z"/>
	<path class="st0" d="M1625.9,393.2c0.1,9.1-7,16.2-16.1,16.2c-9.2,0-16-6.9-16.1-16.1c0-9.1,6.5-16.1,15.4-16.2
		C1618.3,376.9,1625.8,384.1,1625.9,393.2z"/>
	<path class="st0" d="M1395.5,714.9c-9.3,0.1-16.2-6.5-16.4-15.8c-0.2-8.9,7-16.2,16-16.3c9,0,16.4,7.1,16.6,15.8
		C1411.9,707.4,1404.5,714.8,1395.5,714.9z"/>
	<path class="st0" d="M570.1,130.8c-0.1,8.8-7.5,16.1-16.3,16.1c-8.7,0-16-7.5-16-16.4c0-9.1,7.2-16.2,16.2-16
		C562.9,114.6,570.2,122,570.1,130.8z"/>
	<path class="st0" d="M1272,350.4c0,9.1-7,16-16.2,16c-9,0-16.1-7.1-16.1-16.2c0-8.8,6.9-16,15.6-16.1
		C1264.6,334,1272,341.3,1272,350.4z"/>
	<path class="st0" d="M1282.8,350.2c0-9.1,7.1-16.2,16.1-16.1c8.9,0.1,16.1,7.4,16,16.4c0,9-7.2,16.1-16.2,16
		C1289.6,366.4,1282.8,359.4,1282.8,350.2z"/>
	<path class="st0" d="M601.8,318.2c-9-0.1-16-7.3-15.9-16.4c0.1-8.9,7.2-15.8,16-15.8c9.2,0.1,16.8,7.6,16.7,16.5
		C618.4,311.2,610.9,318.3,601.8,318.2z"/>
	<path class="st0" d="M580.8,347.5c0-9.1,7.3-16.5,16.1-16.2c8.8,0.2,16.1,7.7,16.1,16.5c0,9-7.3,16.2-16.3,16
		C587.6,363.7,580.7,356.7,580.8,347.5z"/>
	<path class="st0" d="M1368.7,741.7c0.1,8.7-7.5,16.2-16.3,16.1c-9.1,0-16.2-7-16.4-16c-0.2-8.8,7.2-16.1,16.2-16.1
		C1361.2,725.8,1368.7,733,1368.7,741.7z"/>
	<path class="st0" d="M1974,393.2c0.1,9.2-6.7,16.2-15.9,16.2c-9,0.1-16.1-7-16.2-16.1c-0.1-9.1,6.9-16.3,15.9-16.3
		C1966.8,377,1973.9,384.2,1974,393.2z"/>
	<path class="st0" d="M1802.7,1053c-0.1,8.8-7.6,16.1-16.5,15.9c-9-0.2-16.1-7.5-16-16.4c0.1-8.9,7.5-16.1,16.4-15.9
		C1795.5,1036.7,1802.8,1044.1,1802.7,1053z"/>
	<path class="st0" d="M317.8,393.1c0-8.9,7.4-16.2,16.3-16.1c8.8,0.1,16.3,7.6,16.3,16.3c0,8.8-7.5,16.1-16.5,16
		C325.1,409.3,317.8,402,317.8,393.1z"/>
	<path class="st0" d="M135.8,393.6c-0.1,9-6.9,15.8-15.8,15.8c-9.1,0-16.7-7.6-16.5-16.5c0.2-8.9,7.6-16,16.5-15.9
		C128.9,377.2,135.8,384.5,135.8,393.6z"/>
	<path class="st0" d="M686.3,1068c-9,0.1-16.3-7-16.4-16c-0.1-8.8,7.2-16.5,15.9-16.6c8.6-0.1,16.4,7.5,16.6,16.1
		C702.6,1060.3,695.2,1067.9,686.3,1068z"/>
	<path class="st0" d="M1566.9,629.2c-9.3,0-16.1-6.7-16.1-16c0-9.4,6.7-16.1,16-16.1c9.3,0,16.2,6.9,16.2,16
		C1582.9,622.3,1576.1,629.2,1566.9,629.2z"/>
	<path class="st0" d="M92.8,350.5c0,9-6.6,15.8-15.6,16c-9,0.2-16.5-7.2-16.5-16.4c0-8.9,7.4-16.2,16.2-16.1
		C85.9,334.2,92.8,341.4,92.8,350.5z"/>
	<path class="st0" d="M923.8,388c0,8.9-7.2,16-16.3,16c-9-0.1-16.3-7.3-16.2-16.2c0.1-9.1,7.2-16,16.3-16
		C916.6,371.9,923.8,379.1,923.8,388z"/>
	<path class="st0" d="M881,82.5c0,8.8-7.6,16.3-16.3,16.2c-8.6-0.1-16.3-7.9-16.2-16.4c0-8.6,7.3-16,15.9-16.1
		C873.4,66,881,73.5,881,82.5z"/>
	<path class="st0" d="M1738.2,495.1c-9.1,0-16.1-7.1-16-16.2c0.1-9.3,6.9-16,16.2-15.9c9.1,0.1,16.1,7.1,16.1,16.2
		C1754.6,488.1,1747.4,495.2,1738.2,495.1z"/>
	<path class="st0" d="M1695.5,243.2c9,0.1,16.3,7.5,16.2,16.2c-0.1,8.8-7.5,16.2-16.3,16.2c-9,0-16.3-7.7-16.1-16.9
		C1679.6,249.7,1686.5,243,1695.5,243.2z"/>
	<path class="st0" d="M1593.7,259.1c0-9.1,6.5-15.8,15.6-16c9.3-0.1,16.6,7,16.6,16.3c0,8.8-7.5,16.3-16.3,16.2
		C1600.7,275.5,1593.7,268.2,1593.7,259.1z"/>
	<path class="st0" d="M1577.6,259.3c0,8.8-7.5,16.3-16.2,16.3c-8.5,0-16.2-7.7-16.3-16.3c-0.1-8.8,7.3-16.2,16.2-16.1
		C1570.3,243.2,1577.7,250.5,1577.6,259.3z"/>
	<path class="st0" d="M1287.9,1004.5c-0.1-9,7.1-16.2,16.1-16.2c8.9,0,16.3,7.3,16.4,16.1c0.1,8.7-7.5,16.3-16.2,16.2
		C1295.2,1020.5,1288,1013.4,1287.9,1004.5z"/>
	<path class="st0" d="M393.1,216.5c-0.1,8.9-7.5,16.3-16.3,16.2c-8.7-0.1-16.1-7.7-16.1-16.5c0-8.9,7.3-16.2,16.3-16
		C386.1,200.4,393.1,207.5,393.1,216.5z"/>
	<path class="st0" d="M1272,570.2c0.1,9.1-6.9,16.1-16,16.2c-9,0.1-16.1-7-16.2-16.1c-0.1-9.3,6.7-16.2,15.9-16.2
		C1264.9,554.1,1272,561.1,1272,570.2z"/>
	<path class="st0" d="M1261.2,891.9c-9.1-0.1-16.4-7.7-16.2-16.7c0.2-8.6,7.4-15.4,16.3-15.4c9,0,16.4,7.3,16.3,16.1
		C1277.5,884.8,1270.1,892,1261.2,891.9z"/>
	<path class="st0" d="M907.7,318.2c-8.9,0-16.2-7.1-16.4-16c-0.2-8.9,7.1-16.2,16.2-16.1c9,0,16.3,7.2,16.4,16
		C924,310.9,916.7,318.2,907.7,318.2z"/>
	<path class="st0" d="M2016.9,350.7c-0.1,8.9-7,15.8-15.9,15.9c-9.2,0.1-16.3-7.1-16.2-16.6c0.1-9.1,7.3-16.1,16.3-15.9
		C2010,334.3,2017,341.6,2016.9,350.7z"/>
	<path class="st0" d="M1234.7,918.9c-0.1,8.7-7.7,16.1-16.5,16c-8.8-0.2-16.2-7.6-16.2-16.4c0.1-8.7,7.6-16,16.5-15.9
		C1227.4,902.7,1234.7,910.1,1234.7,918.9z"/>
	<path class="st0" d="M436,259.2c0,9-7.2,16.3-16,16.4c-8.8,0.1-16.2-7.3-16.3-16.2c-0.1-9,7.1-16.3,16-16.3
		C428.8,243.2,436,250.2,436,259.2z"/>
	<path class="st0" d="M1974,350.3c0.1,9.2-6.7,16.1-15.9,16.3c-8.9,0.2-16.1-7-16.2-16.1c-0.1-9.1,6.9-16.3,15.9-16.3
		C1966.7,334.1,1974,341.3,1974,350.3z"/>
	<path class="st0" d="M1845.5,961.5c-0.1,9-7.3,16.3-16.1,16.3c-8.9,0-16.5-7.8-16.2-16.7c0.3-8.8,7.5-15.8,16.1-15.7
		C1838.2,945.5,1845.6,952.9,1845.5,961.5z"/>
	<path class="st0" d="M1427.7,318.2c-7.1,0.6-15.9-5.3-16.5-16c-0.5-8.8,7.1-16.2,16.1-16.2c9.2,0,16.6,7.4,16.5,16.5
		C1443.6,311.1,1436.4,318.2,1427.7,318.2z"/>
	<path class="st0" d="M570.1,82.3c0,9-7.6,16.5-16.6,16.4c-8.5-0.1-15.6-7.5-15.7-16.2c-0.1-9.1,7.1-16.4,16-16.3
		C562.7,66.2,570.1,73.5,570.1,82.3z"/>
	<path class="st0" d="M494.8,81.9c0.1-8.6,7.4-15.8,16-15.8c8.9,0.1,16.5,7.5,16.4,16.1c0,8.9-7.9,16.7-16.7,16.4
		C501.9,98.4,494.7,90.8,494.8,81.9z"/>
	<path class="st0" d="M1298.8,452.2c-9.4-0.1-16-6.7-16-16.1c0-9.3,6.8-16.1,16.1-16c9.1,0.1,16.1,7.1,16.1,16.2
		C1315,445.5,1308.1,452.2,1298.8,452.2z"/>
	<path class="st0" d="M1829.3,506c9.2,0,16.2,6.9,16.2,16c0.1,9-7.1,16.1-16.1,16.1c-9,0-16.1-7.1-16.2-16.1
		C1813.1,512.9,1820.1,505.9,1829.3,506z"/>
	<path class="st0" d="M1110.9,961.4c0-8.8,7.7-16.2,16.4-16c8.9,0.2,16.1,7.5,16.1,16.4c0,8.5-7.3,15.9-15.9,16
		C1118.6,977.9,1110.9,970.3,1110.9,961.4z"/>
	<path class="st0" d="M1893.7,350.2c0-9.1,7.1-16.2,16.1-16.1c8.8,0.1,16,7.4,16,16.4c0,9.1-7.2,16.3-16.2,16.1
		C1900.6,366.4,1893.7,359.3,1893.7,350.2z"/>
	<path class="st0" d="M803.9,922.8c0.1-8.7,7.2-15.8,16-15.8c8.9,0,16.4,7.3,16.4,16c0,8.8-7.6,16.6-16.1,16.6
		C811.5,939.6,803.8,931.7,803.9,922.8z"/>
	<path class="st0" d="M1850.8,350.1c0-9,7.4-16.2,16.2-16.1c8.8,0.1,15.9,7.5,15.8,16.5c-0.1,9.2-7.2,16.2-16.2,16
		C1857.7,366.3,1850.8,359.2,1850.8,350.1z"/>
	<path class="st0" d="M745.1,923.1c0,8.8-7.4,16.4-16.1,16.5c-8.9,0.1-16.4-7.7-16.3-16.8c0.1-8.8,7.3-15.8,16-15.8
		C737.7,907.1,745.1,914.4,745.1,923.1z"/>
	<path class="st0" d="M2118.8,350.2c0-9,7.2-16.2,16.1-16.1c8.7,0.1,16,7.6,16,16.4c0,9-7.3,16.2-16.2,16.1
		C2125.6,366.4,2118.8,359.4,2118.8,350.2z"/>
	<path class="st0" d="M1523.9,505.9c9.4,0,16.1,6.7,16.1,16c0,9.4-6.7,16.1-16,16.1c-9.1,0-16.2-7-16.2-16.1
		C1507.7,512.8,1514.5,506,1523.9,505.9z"/>
	<path class="st0" d="M2006.5,1170.8c8.9,0.2,16.1,7.5,15.9,16.4c-0.2,9.1-7.3,15.9-16.5,15.7c-9.1-0.2-16-7.3-15.9-16.4
		C1990.2,1177.5,1997.5,1170.6,2006.5,1170.8z"/>
	<path class="st0" d="M1384.6,452.2c-9.4,0-15.8-6.6-15.8-16.2c0-9.5,6.6-16.1,15.9-16c9.1,0.1,16.1,7.3,16.1,16.2
		C1400.8,445.4,1393.8,452.2,1384.6,452.2z"/>
	<path class="st0" d="M1872.4,1127.8c9.1,0.1,16,7.2,15.9,16.3c-0.1,9.1-7.2,16-16.3,15.8c-9.1-0.1-16-7.2-15.9-16.4
		C1856.1,1134.4,1863.1,1127.7,1872.4,1127.8z"/>
	<path class="st0" d="M1261.1,714.9c-9.1-0.1-16.2-7.2-16.1-16.1c0-8.9,7.3-16,16.3-15.9c9,0.1,16.2,7.2,16.2,16.2
		C1277.5,707.9,1270.2,715,1261.1,714.9z"/>
	<path class="st0" d="M527.2,259.1c0,9-7.2,16.3-16,16.5c-8.9,0.1-16.4-7.5-16.3-16.7c0.1-8.8,7-15.7,16-15.8
		C519.8,243.1,527.2,250.3,527.2,259.1z"/>
	<path class="st0" d="M1786.6,538c-9.3,0-16.4-7.2-16.2-16.6c0.1-8.9,7-15.6,16.1-15.5c9.2,0,16.3,7,16.3,16
		C1802.8,530.9,1795.6,538,1786.6,538z"/>
	<path class="st0" d="M1191.8,961.8c-0.1,8.9-7.7,16.2-16.4,15.9c-8.8-0.3-16.2-7.7-16.2-16.4c0-8.5,7.8-16.1,16.6-15.9
		C1184.5,945.6,1191.9,953.1,1191.8,961.8z"/>
	<path class="st0" d="M1625.9,173.6c0,8.9-7.4,16.2-16.2,16.2c-8.7,0-15.9-7.4-15.9-16.4c0-9.1,7.1-16.3,16-16.1
		C1618.7,157.5,1625.9,164.7,1625.9,173.6z"/>
	<path class="st0" d="M1170.3,538.1c-9.2,0-16.5-7.2-16.4-16.4c0-8.7,7.2-15.6,16-15.7c9.2-0.1,16.3,6.8,16.4,15.9
		C1186.4,530.9,1179.4,538.1,1170.3,538.1z"/>
	<path class="st0" d="M451.9,130.6c-0.1-9,7.2-16.2,16.2-16.1c9.2,0.1,16.1,7.1,16.1,16.2c0,8.9-7.3,16.2-16.1,16.2
		C459.4,146.9,451.9,139.3,451.9,130.6z"/>
	<path class="st0" d="M1840,350.7c-0.1,8.9-6.9,15.8-15.8,15.8c-9.1,0.1-16.4-7.4-16.2-16.6c0.2-8.8,7.3-15.9,15.9-15.9
		C1832.8,334,1840,341.5,1840,350.7z"/>
	<path class="st0" d="M795.1,173.5c0,8.9-7.5,16.4-16.1,16.3c-8.7-0.1-16.1-7.6-16.2-16.4c0-9,7.2-16.2,16.2-16.1
		C788,157.4,795.1,164.5,795.1,173.5z"/>
	<path class="st0" d="M1754.6,302.5c-0.2,8.8-7.7,16-16.6,15.8c-8.7-0.1-16-7.8-15.7-16.7c0.2-9.2,7.3-15.9,16.4-15.7
		C1747.5,286.2,1754.7,293.8,1754.6,302.5z"/>
	<path class="st0" d="M881,345.2c0,8.9-7.3,15.9-16.4,15.9c-9.1-0.1-16-7-16.1-16.2c-0.1-8.9,7.2-16,16.3-15.9
		C873.8,329.1,881,336.3,881,345.2z"/>
	<path class="st0" d="M982.7,478.8c0-9.1,6.6-15.8,15.6-15.9c9.2,0,16.7,7.3,16.6,16.3c-0.1,9-7.3,15.9-16.4,15.8
		C989.3,495.1,982.7,488.3,982.7,478.8z"/>
	<path class="st0" d="M1743.4,1111.7c-9.1-0.1-16.1-7.3-16-16.4c0.1-9,7.6-16.3,16.3-16c9,0.3,16,7.6,16,16.5
		C1759.8,1104.7,1752.5,1111.8,1743.4,1111.7z"/>
	<path class="st0" d="M1476,452.2c-9.6,0-16.3-6.7-16.3-16.3c0-9,6.7-15.8,15.7-15.9c9.2-0.1,16.3,6.8,16.4,15.8
		C1491.9,445.1,1485.1,452.1,1476,452.2z"/>
	<path class="st0" d="M1829.2,902.6c9.1,0.1,16.3,7.1,16.4,16c0.1,8.8-7.3,16.2-16.1,16.2c-9.1,0-16.5-7.5-16.3-16.6
		C1813.4,909.3,1820.3,902.6,1829.2,902.6z"/>
	<path class="st0" d="M1127.3,452.2c-9.1,0-16.3-7.1-16.3-16c0-9,7.2-16.1,16.2-16.1c9.1,0,16.3,7.2,16.2,16.1
		C1143.4,445.3,1136.4,452.2,1127.3,452.2z"/>
	<path class="st0" d="M1384.1,377c9.2-0.1,16.7,7.2,16.7,16.2c0,8.9-6.9,15.9-15.7,16.1c-9.5,0.2-16.3-6.6-16.4-16.2
		C1368.7,384,1375.2,377.1,1384.1,377z"/>
	<path class="st0" d="M1593.7,656.2c-0.1-9.5,6.4-16.3,15.7-16.3c9.2,0,16.3,6.8,16.5,15.8c0.2,9-6.9,16.2-16,16.4
		C1600.6,672.2,1593.8,665.5,1593.7,656.2z"/>
	<path class="st0" d="M1609.7,452.2c-9.3,0-16-6.7-16-16.1c0-9.3,6.8-16.2,16-16c9.1,0.1,16.1,7.1,16.2,16.2
		C1625.9,445.4,1619,452.2,1609.7,452.2z"/>
	<path class="st0" d="M393.1,173.6c0,8.9-7.4,16.3-16.2,16.2c-8.6,0-16.1-7.7-16.1-16.4c0-9,7.3-16.2,16.2-16.1
		C386,157.4,393.1,164.5,393.1,173.6z"/>
	<path class="st0" d="M1298.9,409.2c-9.4,0-16-6.6-16.1-15.9c0-9.3,6.7-16.2,15.9-16.2c9,0,16.2,7.1,16.2,16.1
		C1315,402.4,1308.2,409.2,1298.9,409.2z"/>
	<path class="st0" d="M1239.8,392.6c0.2-8.8,7.3-15.6,16.2-15.5c9.2,0.1,16.2,7.5,16,16.8c-0.2,8.8-7.3,15.6-16.2,15.5
		C1246.5,409.3,1239.6,402,1239.8,392.6z"/>
	<path class="st0" d="M923.9,130.8c-0.1,8.7-7.7,16.2-16.4,16.1c-8.6-0.1-16.2-7.8-16.2-16.5c0-8.7,7.7-16.2,16.4-16
		C916.5,114.7,924,122.2,923.9,130.8z"/>
	<path class="st0" d="M881,130.6c0,8.7-7.5,16.3-16.2,16.3c-8.6,0-16.2-7.5-16.4-16.3c-0.2-8.7,7.4-16.2,16.2-16.2
		C873.5,114.4,880.9,121.8,881,130.6z"/>
	<path class="st0" d="M1127.7,714.9c-9.3,0.1-16.7-7-16.7-16.1c0-8.6,7.2-15.8,15.9-15.9c9.3-0.2,16.6,7,16.6,16.2
		C1143.4,707.9,1136.6,714.8,1127.7,714.9z"/>
	<path class="st0" d="M1175.7,725.8c8.9,0.1,16.1,7.4,16.1,16.3c-0.1,8.9-7.5,16-16.5,15.8c-8.8-0.2-16.4-7.8-16.1-16.4
		C1159.3,732.1,1167.5,725.2,1175.7,725.8z"/>
	<path class="st0" d="M1110.9,1004.1c0.1-8.8,7.8-16.1,16.5-15.9c8.9,0.3,16.2,7.8,16,16.5c-0.2,8.7-7.3,15.8-16,15.9
		C1118.6,1020.7,1110.8,1013,1110.9,1004.1z"/>
	<path class="st0" d="M1652.2,334.1c9-0.1,16.6,7.3,16.6,16.4c0,8.7-7.1,15.9-15.8,16.1c-8.9,0.2-16.3-6.9-16.5-15.9
		C1636.3,341.6,1643.2,334.2,1652.2,334.1z"/>
	<path class="st0" d="M1218.7,891.9c-9.1,0.1-16.7-7.4-16.7-16.3c0-8.6,7.1-15.7,16-15.8c9-0.1,16.4,6.8,16.7,15.7
		C1235,884.2,1227.6,891.8,1218.7,891.9z"/>
	<path class="st0" d="M1229.1,570.6c-0.1,8.9-7.1,15.9-15.9,15.9c-9.3,0-16.4-7.2-16.4-16.5c0.1-8.9,7.4-16,16.4-15.8
		C1222.3,554.3,1229.2,561.5,1229.1,570.6z"/>
	<path class="st0" d="M1475.8,366.6c-8.9,0-16.3-7.3-16.4-16.1c-0.1-8.9,7.2-16.3,16-16.4c9-0.1,16.4,7.5,16.3,16.6
		C1491.7,359.5,1484.6,366.6,1475.8,366.6z"/>
	<path class="st0" d="M2027.8,350c0.1-9.2,7.2-16.1,16.2-16c8.8,0.2,15.9,7.7,15.8,16.6c-0.1,8.8-7.1,15.8-15.9,15.9
		C2034.7,366.6,2027.7,359.5,2027.8,350z"/>
	<path class="st0" d="M1127.3,891.9c-9.1-0.1-16.5-7.6-16.4-16.6c0.1-8.7,7.6-15.6,16.8-15.5c8.8,0.1,15.7,7.1,15.8,16
		C1143.6,884.7,1136.3,892,1127.3,891.9z"/>
	<path class="st0" d="M334.1,452.2c-9.1-0.1-16.3-7.1-16.3-16.1c0-8.9,7.3-16.1,16.3-16c8.9,0.1,16.4,7.6,16.4,16.2
		C350.5,445.2,343.2,452.2,334.1,452.2z"/>
	<path class="st0" d="M1261,725.8c9.1,0,16.4,7,16.4,15.9c0,9.1-7,16.2-16.1,16.2c-9.1,0-16.3-7-16.4-15.9
		C1244.8,733,1252,725.8,1261,725.8z"/>
	<path class="st0" d="M1497,570.6c-0.1,9.2-7.2,16.1-16.3,15.8c-8.9-0.2-16-7.6-16-16.5c0.1-8.9,7.5-15.9,16.6-15.8
		C1490.5,554.3,1497.1,561.2,1497,570.6z"/>
	<path class="st0" d="M291,452.2c-9-0.1-16.1-7.4-16.1-16.3c0.1-9,7.3-16,16.4-15.9c8.8,0.1,16.2,7.6,16.2,16.4
		C307.6,445.2,300.2,452.3,291,452.2z"/>
	<path class="st0" d="M686.1,891.1c-8.8,0-16.2-7.3-16.2-16.2c-0.1-8.8,6.9-16,15.6-16.1c9.2-0.1,16.9,7.2,16.9,16.1
		C702.4,883.7,695,891.1,686.1,891.1z"/>
	<path class="st0" d="M205.6,452.2c-9,0-16.4-7-16.5-15.9c-0.2-8.7,7.3-16.2,16.2-16.2c9.2,0,16.6,7.3,16.5,16.4
		C221.6,445.2,214.5,452.1,205.6,452.2z"/>
	<path class="st0" d="M291.2,286c8.8,0,16.2,7.2,16.4,16.1c0.2,8.7-7.3,16.1-16.3,16.1c-9,0-16.3-7.2-16.3-16.1
		C274.9,293.2,282,286,291.2,286z"/>
	<path class="st0" d="M393.1,259.5c-0.1,8.9-7.6,16.3-16.3,16.1c-8.8-0.2-16-7.7-16-16.6c0-8.8,7.1-15.9,15.9-15.9
		C386,243.1,393.2,250.2,393.1,259.5z"/>
	<path class="st0" d="M2016.9,393.2c0.1,8.9-6.7,16-15.5,16.3c-9.3,0.2-16.5-6.8-16.6-16.1c-0.1-9.2,6.8-16.2,15.9-16.3
		C2009.7,377,2016.8,384.1,2016.9,393.2z"/>
	<path class="st0" d="M1786.5,993.8c9.1,0.1,16.2,7.1,16.2,16.1c0,8.9-7.3,16.1-16.3,16c-9,0-16.1-7.2-16.2-16.2
		C1770.2,1000.8,1777.4,993.8,1786.5,993.8z"/>
	<path class="st0" d="M1845.6,570.4c0,8.9-7.5,16.2-16.3,16.1c-8.8-0.2-16.1-7.6-16.1-16.4c0-9.1,7.2-16.1,16.3-15.9
		C1838.6,554.3,1845.6,561.3,1845.6,570.4z"/>
	<path class="st0" d="M2108,350.4c0,9.1-6.9,16-16.1,16.1c-9,0-15.9-7.1-15.9-16.3c0-9.2,7-16.2,16-16.2
		C2100.9,334.2,2108,341.5,2108,350.4z"/>
	<path class="st0" d="M1175.3,774c9.3,0,16.6,7.2,16.5,16.4c-0.1,8.7-7.2,15.7-16,15.7c-9,0-16.4-7.1-16.6-15.9
		C1158.9,781.4,1166.3,774,1175.3,774z"/>
	<path class="st0" d="M382.2,599.8c9.3,0,16.1,6.7,16.3,16c0.1,8.9-7.2,16.4-16.1,16.3c-8.7,0-16.3-7.6-16.4-16.2
		C365.9,607,373.1,599.8,382.2,599.8z"/>
	<path class="st0" d="M1433,495.1c-9.2,0-16.3-6.9-16.5-15.9c-0.2-9,6.9-16.2,16-16.3c9.2,0,16.3,6.9,16.4,15.9
		C1449.1,488.1,1442.2,495.1,1433,495.1z"/>
	<path class="st0" d="M1786.5,629.2c-9,0-16-7-16.1-16.2c-0.1-9.1,6.9-16,16.2-15.9c9.1,0.1,16.3,7.3,16.2,16.1
		C1802.7,622.1,1795.5,629.2,1786.5,629.2z"/>
	<path class="st0" d="M1652.6,629.2c-9.1,0-16-6.9-16.1-16.1c-0.1-9.3,6.7-16.1,16-16c9.3,0.1,16.2,6.9,16.2,16
		C1668.8,622.1,1661.6,629.2,1652.6,629.2z"/>
	<path class="st0" d="M1652.6,463.1c9.1,0.1,16.1,7.1,16.1,16.1c0,8.9-7.2,16-16.3,16c-9.2,0-16-7-16-16.2
		C1636.6,469.6,1643.3,463,1652.6,463.1z"/>
	<path class="st0" d="M950.5,371.9c8.9,0,16.3,7.4,16.3,16.1c0,8.8-7.4,16.1-16.3,16c-9.1,0-16.2-7.1-16.2-16.1
		C934.3,378.7,941.3,371.8,950.5,371.9z"/>
	<path class="st0" d="M1609.3,597.1c9.4-0.1,16.4,6.5,16.6,15.6c0.2,9.1-6.7,16.3-15.8,16.5c-9.3,0.2-16.3-6.5-16.4-15.7
		C1593.5,604,1600,597.2,1609.3,597.1z"/>
	<path class="st0" d="M1438.4,629.2c-9.2,0.1-16.6-7.1-16.6-16.2c0-8.8,7.2-15.9,16.3-15.9c9,0,16.4,7.2,16.4,15.9
		C1454.5,622,1447.4,629.1,1438.4,629.2z"/>
	<path class="st0" d="M1797.2,259.7c-0.3,8.9-8.1,16.3-16.5,15.9c-8.9-0.5-16-8.4-15.7-17.4c0.4-8.7,7.7-15.5,16.5-15.1
		C1790.6,243.5,1797.6,250.9,1797.2,259.7z"/>
	<path class="st0" d="M1368.7,350.5c-0.1-9.2,6.4-16.2,15.2-16.4c9.1-0.2,16.7,7.1,16.9,16.1c0.1,9-7,16.3-16,16.3
		C1375.7,366.6,1368.8,359.7,1368.7,350.5z"/>
	<path class="st0" d="M1550.7,478.5c0.1-9,7-15.6,16.1-15.5c9.4,0.1,16.3,7.2,16.1,16.6c-0.2,9-7.3,15.7-16.6,15.5
		C1557.3,494.9,1550.6,487.8,1550.7,478.5z"/>
	<path class="st0" d="M1754.6,259.3c0.1,8.5-7.7,16.3-16.3,16.3c-8.6,0-16-7.6-16.1-16.4c-0.1-9.1,7-16.2,16.1-16.1
		C1747.1,243.2,1754.5,250.6,1754.6,259.3z"/>
	<path class="st0" d="M1872.5,993.8c8.9,0.1,15.9,7.1,15.9,15.8c0,9.2-7.3,16.5-16.5,16.3c-8.9-0.2-16-7.5-15.8-16.5
		C1856.2,1000.3,1863.2,993.7,1872.5,993.8z"/>
	<path class="st0" d="M1110.9,1052.4c0.1-8.5,7.4-15.8,16.1-15.8c9.2,0,16.6,7.3,16.5,16.4c-0.1,8.7-7.3,15.8-16,15.8
		C1118.4,1068.9,1110.8,1061.4,1110.9,1052.4z"/>
	<path class="st0" d="M1738.2,629.2c-9,0-16.1-7.2-16-16.2c0-9.2,6.9-16,16.2-15.9c9,0.1,16.2,7.2,16.2,16.1
		C1754.6,622.1,1747.3,629.2,1738.2,629.2z"/>
	<path class="st0" d="M1781,463c9.2,0,16.2,6.8,16.3,15.9c0.1,9.1-6.8,16.2-15.9,16.2c-9.1,0-16.2-6.9-16.3-15.9
		C1764.9,470.1,1771.9,463,1781,463z"/>
	<path class="st0" d="M1840,216.1c0.1,9-6.9,16.4-15.7,16.6c-8.5,0.2-16.1-7.3-16.3-16.2c-0.2-9.1,6.7-16.2,15.8-16.4
		C1832.6,200,1839.9,207.1,1840,216.1z"/>
	<path class="st0" d="M881,302c0.1,8.9-7.1,16.2-16,16.3c-9,0.1-16.3-7-16.4-16c-0.2-9,7-16.2,16-16.2
		C873.5,286,880.9,293.1,881,302z"/>
	<path class="st0" d="M1497,522.2c-0.1,9.3-7,16-16.3,15.9c-9-0.1-16.1-7.3-16.1-16.3c0-9,7.1-15.8,16.4-15.8
		C1490.4,506,1497.1,512.8,1497,522.2z"/>
	<path class="st0" d="M393.1,393.7c-0.1,8.9-7,15.7-16,15.7c-9.2,0-16.5-7.3-16.3-16.6c0.1-8.7,7.3-15.7,16.1-15.8
		C386,377.1,393.2,384.4,393.1,393.7z"/>
	<path class="st0" d="M838,259.4c-0.1,8.9-7.5,16.4-16.2,16.2c-10.7-0.3-16.5-9.6-16.1-16.8c0.4-8.7,7.5-15.7,16.2-15.5
		C831,243.4,838.1,250.5,838,259.4z"/>
	<path class="st0" d="M553.7,599.8c9.3,0,16.3,6.8,16.3,15.8c0,9.2-7.2,16.6-16.3,16.5c-8.8,0-15.9-7.3-16-16.3
		C537.7,606.5,544.4,599.8,553.7,599.8z"/>
	<path class="st0" d="M596.7,599.8c9.3,0,16.3,6.9,16.3,15.9c0,8.8-7.4,16.4-16.2,16.4c-9.2,0-16.2-7.3-16.1-16.7
		C580.9,606.2,587.5,599.8,596.7,599.8z"/>
	<path class="st0" d="M484.2,393.8c-0.1,9.1-7.4,15.9-16.6,15.6c-9-0.3-15.9-7.6-15.7-16.7c0.2-8.8,7.4-15.6,16.2-15.7
		C476.1,377,484.9,384.2,484.2,393.8z"/>
	<path class="st0" d="M1711.7,570.1c0.1,8.7-7.3,16.3-16.1,16.4c-8.8,0.1-16.1-7.2-16.3-16.2c-0.2-9.1,6.8-16.2,15.9-16.2
		C1704.3,554.2,1711.6,561.3,1711.7,570.1z"/>
	<path class="st0" d="M1357.9,350.6c0,8.8-7,15.8-15.9,15.9c-9.3,0.1-16.3-7-16.2-16.5c0.1-9,6.9-15.9,15.7-16
		C1350.5,334,1357.9,341.5,1357.9,350.6z"/>
	<path class="st0" d="M1674,784.8c0,8.9-7.4,16.1-16.3,16c-9-0.1-15.9-7.3-15.9-16.4c0.1-9.1,7.3-16.2,16.2-16
		C1667.1,768.7,1674.1,775.8,1674,784.8z"/>
	<path class="st0" d="M881,211c0,8.9-7.3,16.2-16.2,16.1c-9,0-16.2-7.3-16.2-16.2c0-9,7.1-16.1,16.3-16.1
		C873.7,194.8,881,202.1,881,211z"/>
	<path class="st0" d="M1315,479.2c0,9.2-6.9,16-16.1,16c-9.3-0.1-16-6.8-16-16.1c0-9.3,6.8-16.1,16.1-16
		C1308,463,1315,470.1,1315,479.2z"/>
	<path class="st0" d="M805.7,130.2c0.1-8.8,7.1-15.8,15.9-15.8c9.1,0,16.5,7.5,16.4,16.6c-0.2,8.8-7.8,16.1-16.5,15.9
		C812.8,146.7,805.7,139.1,805.7,130.2z"/>
	<path class="st0" d="M425.1,452.2c-9-0.1-16.2-7.3-16.2-16.2c0-8.9,7.3-16,16.4-15.9c9,0.1,16.3,7.5,16.2,16.3
		C441.3,445.5,434.3,452.3,425.1,452.2z"/>
	<path class="st0" d="M1084.1,725.8c9-0.1,16.5,7,16.7,15.7c0.2,8.8-7,16.2-16,16.4c-9,0.2-16.8-7.4-16.7-16.3
		C1068.1,733,1075.4,725.9,1084.1,725.8z"/>
	<path class="st0" d="M1143.4,130.7c0,8.9-7.4,16.3-16.2,16.2c-8.6-0.1-16.3-7.8-16.3-16.4c-0.1-8.7,7.5-16.3,16.3-16.2
		C1136.1,114.5,1143.5,121.8,1143.4,130.7z"/>
	<path class="st0" d="M334.4,318.2c-8.9,0.1-16.4-7.1-16.6-15.8c-0.2-8.9,7-16.3,16-16.4c8.8-0.1,16.5,7.2,16.7,15.9
		C350.6,310.7,343.3,318.1,334.4,318.2z"/>
	<path class="st0" d="M1127.3,725.6c9,0.1,16.1,7.3,16.1,16.3c0,8.9-7.3,16.1-16.3,16c-9.2-0.2-16.4-7.7-16.2-16.7
		C1111.2,732.6,1118.7,725.5,1127.3,725.6z"/>
	<path class="st0" d="M777.4,982.2c-8.9,0.1-16.3-7.1-16.4-16c-0.1-9,7-16.3,16-16.3c8.9,0,16.5,7.3,16.6,15.9
		C793.6,974.7,786.2,982.1,777.4,982.2z"/>
	<path class="st0" d="M1695.5,366.6c-9.2-0.1-16.5-7.7-16.2-16.8c0.3-8.9,7.4-15.9,16-15.8c8.7,0.1,16.3,7.7,16.4,16.3
		C1711.7,359.1,1704.1,366.7,1695.5,366.6z"/>
	<path class="st0" d="M1636.7,655.8c0-9.3,6.5-15.9,15.5-16c9.3,0,16.7,7.2,16.6,16.2c-0.1,8.9-7.4,16-16.3,16
		C1643.2,672.1,1636.6,665.3,1636.7,655.8z"/>
	<path class="st0" d="M1357.9,302.3c0,8.8-7.5,16.2-16.3,16.1c-8.9-0.1-15.8-7.3-15.8-16.5c0-9.2,6.6-15.9,15.6-15.9
		C1350.7,285.9,1357.9,293.1,1357.9,302.3z"/>
	<path class="st0" d="M1872.1,1036.5c8.7-0.1,16.3,7.4,16.3,16.2c0,9-7.2,16.2-16.1,16.2c-9,0-16.1-7.1-16.2-16.1
		C1856,1043.8,1863.1,1036.6,1872.1,1036.5z"/>
	<path class="st0" d="M1561.5,318.2c-7.3,0.7-16-5.7-16.3-16c-0.3-8.9,7-16.2,16.1-16.2c9,0,16.3,7.1,16.3,16.1
		C1577.7,311,1570.5,318.2,1561.5,318.2z"/>
	<path class="st0" d="M553.4,318.2c-9-0.2-15.8-7.3-15.7-16.6c0.1-8.9,7.1-15.7,16-15.6c9.3,0.1,16.5,7.4,16.3,16.6
		C569.9,311.6,562.7,318.4,553.4,318.2z"/>
	<path class="st0" d="M1175.5,902.8c9,0,16.3,7.2,16.2,16c0,8.9-7.4,16.2-16.3,16.1c-8.7-0.1-16.3-7.6-16.4-16.2
		C1159,910,1166.5,902.8,1175.5,902.8z"/>
	<path class="st0" d="M795.1,82.6c-0.1,9-7.4,16.2-16.3,16.1c-8.8-0.1-16-7.7-16-16.5c0-8.8,7.2-15.9,15.9-16
		C787.9,66.1,795.2,73.4,795.1,82.6z"/>
	<path class="st0" d="M1357.9,259.1c0.1,8.9-7.2,16.3-16,16.5c-8.8,0.1-16-7.2-16.1-16.2c-0.1-9.5,6.4-16.2,15.8-16.2
		C1350.7,243.1,1357.8,250.1,1357.9,259.1z"/>
	<path class="st0" d="M1738.5,538.1c-9.1,0-16.2-6.9-16.3-16c-0.1-9.2,6.7-16.2,15.9-16.1c9.2,0,16.3,6.9,16.4,15.9
		C1754.6,530.8,1747.5,538,1738.5,538.1z"/>
	<path class="st0" d="M1695.7,538.1c-9.1,0.1-16.2-6.7-16.4-15.9c-0.2-9.2,6.6-16.2,15.8-16.2c9.2,0,16.3,6.8,16.5,15.8
		C1711.9,530.6,1704.7,538,1695.7,538.1z"/>
	<path class="st0" d="M1341.9,452.2c-9.4,0.1-16-6.5-16.1-15.9s6.6-16.3,15.8-16.3c9.1,0,16.2,7,16.3,16
		C1358,445.3,1351.2,452.1,1341.9,452.2z"/>
	<path class="st0" d="M1566.9,505.9c9.2,0,16,6.9,16.1,16.1c0,9.2-6.9,16.1-16.1,16c-9.2-0.1-16.1-7-16-16.2
		C1550.7,512.6,1557.6,505.9,1566.9,505.9z"/>
	<path class="st0" d="M1127.4,629.1c-9.1,0-16.2-7-16.4-15.9c-0.1-8.9,7-16.1,16.1-16.1c9.1,0,16.3,7,16.4,15.9
		C1143.5,622.1,1136.5,629.1,1127.4,629.1z"/>
	<path class="st0" d="M2000.9,452.2c-9.3,0-16-6.7-16.1-16c-0.1-9.3,6.7-16.2,15.9-16.2c9.1,0.1,16.1,7.1,16.2,16.1
		C2017,445.3,2010.2,452.2,2000.9,452.2z"/>
	<path class="st0" d="M1652.1,286c9.1-0.1,16.4,6.8,16.6,15.7c0.2,8.9-7.4,16.8-16.3,16.7c-8.6,0-15.6-7.1-15.8-16
		C1636.5,293,1642.9,286.1,1652.1,286z"/>
	<path class="st0" d="M1390,538.1c-9.2,0-16-6.7-16.1-16c-0.1-9.5,6.4-16.1,15.9-16.1c9.3,0,16.2,6.8,16.2,15.9
		C1406.1,531.1,1399.2,538,1390,538.1z"/>
	<path class="st0" d="M1363.1,522.4c-0.2,9.1-7.2,15.8-16.5,15.7c-9.1-0.1-15.8-7.2-15.7-16.5c0.1-9.3,6.9-15.8,16.4-15.6
		C1356.6,506.1,1363.3,513.1,1363.1,522.4z"/>
	<path class="st0" d="M468.1,318.2c-9.2-0.1-16.4-7.4-16.2-16.6c0.1-8.8,7.2-15.6,16.2-15.5c9,0,16.3,7.3,16.4,16.1
		C484.5,311,477.1,318.3,468.1,318.2z"/>
	<path class="st0" d="M1041.8,629.1c-9.1,0.1-16.7-7.4-16.7-16.3c0.1-8.5,7.4-15.7,16.1-15.7c9,0,16.5,7.1,16.6,15.8
		C1057.9,621.8,1050.7,629.1,1041.8,629.1z"/>
	<path class="st0" d="M955.6,505.9c9.1,0,16.4,7.1,16.5,15.9c0.1,9.1-6.9,16.2-16,16.2c-9.4,0.1-16.3-6.9-16.3-16.4
		C939.8,512.6,946.5,505.9,955.6,505.9z"/>
	<path class="st0" d="M1256.1,629.2c-9.2,0.1-16.1-6.7-16.3-15.9c-0.1-9.3,6.6-16.1,15.9-16.2c9.2,0,16.2,6.9,16.3,15.9
		C1272.1,622.2,1265.3,629.1,1256.1,629.2z"/>
	<path class="st0" d="M494.8,302.1c0-9.1,7.1-16.1,16.2-16c9.1,0.1,16.2,7.2,16.1,16.2c-0.1,9.1-7.2,16.2-16.2,16.2
		C502.1,318.3,494.8,311,494.8,302.1z"/>
	<path class="st0" d="M1229.1,350.8c-0.1,8.8-7.1,15.7-16,15.7c-9.1,0-16.4-7.5-16.3-16.7c0.1-8.6,7.4-15.7,16.1-15.7
		C1222.1,334.2,1229.2,341.5,1229.1,350.8z"/>
	<path class="st0" d="M1303.8,629.2c-9-0.1-15.9-7.3-15.8-16.4c0.1-9.1,7.3-15.9,16.5-15.6c8.8,0.2,15.9,7.3,15.9,15.9
		C1320.5,622.2,1313.1,629.3,1303.8,629.2z"/>
	<path class="st0" d="M1652.6,452.2c-9.2,0-16.2-7-16.1-16c0.1-9.3,7-16.2,16.1-16.1c9,0.1,16.1,7.1,16.2,16.1
		C1668.9,445,1661.7,452.2,1652.6,452.2z"/>
	<path class="st0" d="M1497,613c0.1,9.3-6.7,16.2-15.9,16.2c-9.1,0-16.3-6.9-16.4-15.9c-0.1-9,7-16.2,16.1-16.2
		C1490.2,597.1,1497,603.7,1497,613z"/>
	<path class="st0" d="M777,1025.1c-8.8-0.1-16.1-7.6-16.1-16.4c0.1-8.9,7.4-16,16.4-15.9c8.9,0.1,16.3,7.6,16.2,16.3
		C793.4,1018,785.9,1025.2,777,1025.1z"/>
	<path class="st0" d="M1840,259.4c0,8.9-7.5,16.5-16,16.3c-8.7-0.2-16-7.7-16-16.5c0-9.1,7-16.1,16.1-16
		C1833.2,243.2,1840,250.2,1840,259.4z"/>
	<path class="st0" d="M1743.6,993.8c9,0.1,16.2,7.2,16.2,16.1c0,8.9-7.2,16.1-16.2,16.1c-9,0-16.1-7.1-16.2-16.2
		C1727.4,1000.7,1734.4,993.8,1743.6,993.8z"/>
	<path class="st0" d="M1695.3,495.1c-9.1,0-16-7-15.9-16.2c0.1-9.3,6.9-16,16.2-15.9c9,0.1,16.2,7.4,16.1,16.2
		C1711.6,488.2,1704.4,495.2,1695.3,495.1z"/>
	<path class="st0" d="M1738.3,672.1c-9,0-16.1-7.1-16.1-16.1c0-9.1,7-16.2,16.1-16.1c9,0.1,16.2,7.3,16.2,16.2
		C1754.5,665,1747.3,672.1,1738.3,672.1z"/>
	<path class="st0" d="M1695.5,672.1c-9.1,0-16.1-7-16.2-16.1c0-9,6.7-16,15.5-16.2c9.2-0.1,16.8,7.1,16.9,16.1
		C1711.8,664.8,1704.5,672.1,1695.5,672.1z"/>
	<path class="st0" d="M1593.7,478.8c0.1-9.3,6.9-16,16.2-15.8c9.1,0.2,16,7.3,15.9,16.4c-0.1,9-7.2,15.9-16.4,15.8
		C1600.3,495,1593.7,488.1,1593.7,478.8z"/>
	<path class="st0" d="M998.7,639.9c9,0.1,16.2,7.2,16.2,16.1c0,8.9-7.2,16-16.2,16c-9.2,0-16-6.8-16-16.1
		C982.7,646.6,989.4,639.9,998.7,639.9z"/>
	<path class="st0" d="M1497,656.3c-0.1,9.3-6.9,15.9-16.2,15.8c-9.2-0.1-16.3-7.4-16.1-16.6c0.1-8.8,7.6-15.8,16.6-15.6
		C1490.5,640,1497.1,647,1497,656.3z"/>
	<path class="st0" d="M1164.6,639.9c9-0.1,16.2,6.9,16.3,16c0.2,9.2-6.7,16.2-15.9,16.2c-9.2,0.1-16.1-6.7-16.2-15.9
		C1148.6,647,1155.4,640,1164.6,639.9z"/>
	<path class="st0" d="M795.1,39.4c0,9-7.2,16.3-16.1,16.3c-8.9,0-16.3-7.7-16.2-16.8c0.1-8.6,7.4-15.8,16.1-15.8
		C787.8,23.2,795.1,30.6,795.1,39.4z"/>
	<path class="st0" d="M795.1,259c0.1,9-7,16.3-15.8,16.5c-8.6,0.2-16.3-7.3-16.5-16c-0.2-9,6.9-16.4,15.8-16.4
		C787.7,243.1,795,250.2,795.1,259z"/>
	<path class="st0" d="M1368.8,478.8c0-9.3,6.4-15.8,15.6-15.8c9.3,0,16.6,7.1,16.5,16.3c-0.1,9-7.3,15.9-16.4,15.8
		C1375,495,1368.7,488.4,1368.8,478.8z"/>
	<path class="st0" d="M1256.1,463c9.1,0.1,16,7.2,15.9,16.3c0,9.2-7,16-16.3,15.8c-9.2-0.1-16-7-15.9-16.3
		C1239.9,469.6,1246.8,462.9,1256.1,463z"/>
	<path class="st0" d="M1507.7,741.5c0.1-9.1,7.1-15.8,16.4-15.7c9.2,0.1,15.9,7,15.8,16.3c-0.1,9-7.4,16-16.4,15.8
		C1514.5,757.7,1507.6,750.5,1507.7,741.5z"/>
	<path class="st0" d="M1481.2,725.8c9.2,0.1,15.9,6.9,15.9,16.2c0,9.1-7.1,16-16.3,15.9c-9-0.1-16.1-7.4-16-16.3
		C1464.8,732.6,1472,725.7,1481.2,725.8z"/>
	<path class="st0" d="M1829.5,993.8c9.1,0.1,16.2,7.2,16,16.2c-0.1,9-7.3,16-16.4,15.9c-9-0.1-16.2-7.4-16-16.3
		C1813.3,1000.6,1820.3,993.7,1829.5,993.8z"/>
	<path class="st0" d="M1213.2,409.2c-9.3,0-16.3-6.7-16.5-15.8c-0.1-9,7-16.3,16-16.4c9.1-0.1,16.2,6.9,16.3,16
		C1229.2,402.5,1222.6,409.2,1213.2,409.2z"/>
	<path class="st0" d="M1872,902.8c9.2,0,16.3,6.8,16.3,15.8c0,9-7.1,16.2-16,16.3c-8.9,0.1-16.1-7-16.3-16
		C1855.9,909.7,1862.7,902.8,1872,902.8z"/>
	<path class="st0" d="M1695.1,318.2c-9-0.1-16-7.4-15.8-16.4c0.2-9,7-15.8,15.9-15.8c9.2,0,16.9,7.6,16.4,16.5
		C1711.2,313.4,1702,318.9,1695.1,318.2z"/>
	<path class="st0" d="M1658.3,902.8c9.1,0.2,15.9,7.3,15.7,16.4c-0.2,8.8-7.7,15.9-16.7,15.6c-9-0.2-15.6-7.4-15.5-16.7
		C1642,908.8,1648.8,902.5,1658.3,902.8z"/>
	<path class="st0" d="M1936.7,1052.8c-0.2,8.9-7.5,16.2-16.3,16.1c-9.2-0.1-16.3-7.6-16-16.8c0.3-8.9,7.4-15.7,16.1-15.6
		C1929.4,1036.7,1936.9,1044.2,1936.7,1052.8z"/>
	<path class="st0" d="M1175.7,1036.7c8.9,0.1,16.2,7.5,16,16.3c-0.2,8.9-7.7,16.1-16.5,15.9c-8.7-0.2-16.5-8-16.1-16.4
		C1159.6,1041.9,1168.5,1036.1,1175.7,1036.7z"/>
	<path class="st0" d="M1867.1,452.2c-9.4,0-16.4-7-16.3-16.4c0.1-8.9,6.9-15.7,15.8-15.8c9.1,0,16.2,6.9,16.2,16
		C1883,445.4,1876.3,452.2,1867.1,452.2z"/>
	<path class="st0" d="M1389.8,672.1c-9.3,0-15.9-6.8-15.9-16.3c0-9.1,6.6-15.9,15.6-15.9c9.4,0,16.6,7,16.5,16.3
		C1406,665.4,1399.1,672.1,1389.8,672.1z"/>
	<path class="st0" d="M1695.1,377.1c8.9-0.1,16.3,7.1,16.6,15.9c0.2,8.7-7.1,16.3-15.9,16.5c-9.1,0.2-16.5-7.2-16.4-16.5
		C1679.4,384.1,1686.3,377.1,1695.1,377.1z"/>
	<path class="st0" d="M1110.9,918.6c-0.1-8.8,7.2-15.9,16.3-15.9c9.1,0,16,6.9,16.2,16c0.1,8.6-7,15.9-15.7,16
		C1118.7,935,1111,927.6,1110.9,918.6z"/>
	<path class="st0" d="M468.3,452.2c-9.1,0-16.3-6.9-16.4-15.9c-0.1-9.1,7-16.2,16-16.3c8.9,0,16.3,7.2,16.5,16
		C484.6,445,477.5,452.1,468.3,452.2z"/>
	<path class="st0" d="M1255.8,452.2c-9.3-0.1-16-6.9-15.9-16.2c0-9.2,7.1-16.1,16.2-16c9.1,0.1,16,7.2,16,16.3
		C1272,445.5,1265.1,452.3,1255.8,452.2z"/>
	<path class="st0" d="M1566.5,672.1c-9.1-0.1-15.8-7.2-15.7-16.5c0.1-9.2,7.1-15.9,16.3-15.8c9.1,0.2,16,7.3,15.8,16.4
		C1582.8,665.4,1575.7,672.2,1566.5,672.1z"/>
	<path class="st0" d="M1840,393.2c0.1,9.3-6.8,16.3-15.8,16.3c-9-0.1-16.1-7.1-16.2-16.1c-0.1-9.1,6.9-16.3,15.9-16.3
		C1832.9,377,1839.9,384.1,1840,393.2z"/>
	<path class="st0" d="M1186.1,350.5c0,9.2-6.9,16.1-16.1,16c-9-0.1-16.2-7.3-16.1-16.3c0-8.9,7.4-16.1,16.3-16.1
		C1179.1,334.2,1186.1,341.4,1186.1,350.5z"/>
	<path class="st0" d="M1186.2,570.7c-0.2,8.9-7.2,15.8-16,15.7c-9.2-0.1-16.4-7.5-16.3-16.7c0.1-8.8,7.6-15.9,16.7-15.6
		C1179.7,554.3,1186.3,561.4,1186.2,570.7z"/>
	<path class="st0" d="M425.1,409.4c-9.1-0.2-16.4-7.8-16.2-16.8c0.2-8.6,7.6-15.6,16.4-15.5c8.9,0.1,16.2,7.5,16.2,16.3
		C441.5,402.3,434.1,409.6,425.1,409.4z"/>
	<path class="st0" d="M1164.7,495.1c-9.5-0.1-16.1-7.1-15.9-16.7c0.2-9,7-15.5,16.1-15.5c9.1,0.1,16,7.1,16,16.2
		C1180.9,488.4,1174,495.2,1164.7,495.1z"/>
	<path class="st0" d="M1363.1,570.7c-0.2,9.1-7.4,15.9-16.5,15.7c-9-0.2-15.8-7.5-15.6-16.7c0.1-9,7-15.7,16-15.6
		C1356.3,554.2,1363.3,561.4,1363.1,570.7z"/>
	<path class="st0" d="M982.7,613.2c-0.1-9.3,6.6-16.1,15.9-16.1c8.9,0,16.3,7.2,16.3,16c0,8.9-7.1,16-16.1,16.1
		C989.5,629.1,982.8,622.5,982.7,613.2z"/>
	<path class="st0" d="M1593.7,699.1c-0.1-9.5,6.4-16.2,15.7-16.2c9.1,0,16.3,6.9,16.4,15.8c0.1,9-6.8,16.1-16,16.3
		C1600.6,715.1,1593.8,708.4,1593.7,699.1z"/>
	<path class="st0" d="M291.3,409.2c-9.1,0-16.3-7-16.4-15.9c-0.1-8.9,7.2-16.2,16.1-16.2c8.9,0,16.8,7.8,16.5,16.6
		C307.2,403.5,298.9,409.8,291.3,409.2z"/>
	<path class="st0" d="M1727.8,832.8c0-9.3,6.4-15.9,15.4-15.9c9.4-0.1,16.7,7,16.7,16.1c0,9-7.2,15.9-16.3,16
		C1734.3,849,1727.8,842.4,1727.8,832.8z"/>
	<path class="st0" d="M1797.1,350.7c-0.1,9-7.3,16-16.4,15.8c-8.9-0.2-15.9-7.7-15.7-16.6c0.2-8.8,7.3-15.9,16-15.8
		C1790,334.1,1797.2,341.5,1797.1,350.7z"/>
	<path class="st0" d="M1765,392.7c0.2-9,7.6-16,16.5-15.7c8.8,0.3,16,7.9,15.8,16.7c-0.2,8.7-7.5,15.8-16.1,15.7
		C1772.1,409.4,1764.8,401.9,1765,392.7z"/>
	<path class="st0" d="M1390.1,629.2c-9.3,0.1-16-6.6-16.1-15.9c-0.1-9.5,6.3-16.1,15.8-16.2c9.2,0,16.3,6.9,16.3,15.9
		C1406.1,622.2,1399.3,629.1,1390.1,629.2z"/>
	<path class="st0" d="M1363.1,613.2c-0.1,9.2-6.9,16-16.1,15.9c-9.2,0-15.9-6.9-15.9-16.2c0-9.3,6.7-16,16.1-15.9
		C1356.3,597.2,1363.1,604,1363.1,613.2z"/>
	<path class="st0" d="M998.5,506c9.1,0,16.4,7,16.5,15.8c0.1,9-7,16.2-16,16.2c-9.4,0.1-16.3-6.9-16.2-16.4
		C982.8,512.4,989.3,506,998.5,506z"/>
	<path class="st0" d="M1695.3,452.2c-9.1,0-16.1-7.1-16-16.2c0.1-9.2,7-16.1,16.2-16c8.9,0.1,16.2,7.4,16.2,16.2
		C1711.6,445.3,1704.5,452.2,1695.3,452.2z"/>
	<path class="st0" d="M1138,479.8c-0.3,9.1-7.4,15.7-16.7,15.3c-9.1-0.3-15.7-7.4-15.4-16.7c0.2-9,7.5-15.7,16.8-15.4
		C1131.5,463.3,1138.2,470.5,1138,479.8z"/>
	<path class="st0" d="M1464.7,698.8c0-9,7.2-16,16.3-16c9.3,0.1,16.1,6.9,16,16.1c0,9.4-6.7,16-16.1,15.9
		C1471.8,714.8,1464.7,707.8,1464.7,698.8z"/>
	<path class="st0" d="M1738.4,366.6c-8.7,0.2-16.2-7.2-16.2-16.2c-0.1-8.8,6.9-16.2,15.4-16.4c8.9-0.2,16.6,7.2,16.8,16.2
		C1754.6,359.1,1747.4,366.4,1738.4,366.6z"/>
	<path class="st0" d="M686.3,982.2c-9,0-16.3-7.1-16.4-16c-0.1-9.1,6.9-16.2,16-16.2c8.9,0,16.5,7.3,16.5,15.9
		C702.5,974.7,695.1,982.1,686.3,982.2z"/>
	<path class="st0" d="M436,302.1c0.1,9.1-7,16.2-16.1,16.1c-9.1,0-16.2-7-16.3-16c-0.1-9.1,7-16.2,16.1-16.2
		C428.8,286,436,293.1,436,302.1z"/>
	<path class="st0" d="M377.3,318.2c-9.4,0.1-16.6-7.1-16.5-16.3c0-8.8,7-15.8,15.9-15.9c9.1-0.1,16.3,6.9,16.5,15.9
		C393.2,311.1,386.4,318.2,377.3,318.2z"/>
	<path class="st0" d="M685.9,992.8c8.9,0,16.4,7.3,16.5,16c0.1,8.8-7.2,16.2-16.2,16.3c-9,0.1-16.4-7.4-16.3-16.6
		C670,999.8,677.1,992.8,685.9,992.8z"/>
	<path class="st0" d="M1550.7,698.5c0.1-9.2,7-15.8,16.4-15.6c9.1,0.2,15.9,7.2,15.8,16.4c-0.1,9-7.3,15.9-16.5,15.7
		C1557.3,714.8,1550.6,707.8,1550.7,698.5z"/>
	<path class="st0" d="M1523.8,629.2c-9.3-0.1-16.3-7.3-16.1-16.7c0.2-8.7,7.4-15.5,16.3-15.4c9.3,0.1,16,6.9,16,16.2
		C1539.9,622.6,1533.2,629.2,1523.8,629.2z"/>
	<path class="st0" d="M1695.6,629.2c-9.1,0.1-16.1-6.8-16.3-15.9c-0.2-9.3,6.6-16.1,15.9-16.2c9.1,0,16.4,7,16.5,15.9
		C1711.8,621.7,1704.5,629.1,1695.6,629.2z"/>
	<path class="st0" d="M1674,699.1c0,9-7.2,16-16.3,15.9c-9.1-0.1-15.9-7.1-15.9-16.3c0.1-9.1,6.7-15.8,15.7-15.8
		C1667,682.8,1674.1,689.8,1674,699.1z"/>
	<path class="st0" d="M2092.2,409.2c-9.3,0.1-16.1-6.5-16.2-15.8c-0.1-9.2,6.7-16.3,15.8-16.4c8.9-0.1,16.2,7.1,16.3,16
		C2108.1,402.4,2101.5,409.1,2092.2,409.2z"/>
	<path class="st0" d="M1909.6,318.2c-9.3-0.1-16.1-7.2-15.9-16.7c0.2-9,7-15.6,16.1-15.5c9,0.1,16,7.2,16,16.3
		C1925.8,310.5,1919.1,318.8,1909.6,318.2z"/>
	<path class="st0" d="M1229.1,522.5c-0.1,9.1-7.3,15.8-16.5,15.6c-9-0.2-15.9-7.5-15.7-16.6c0.1-9,7.4-15.7,16.6-15.5
		C1222.6,506.1,1229.2,513.1,1229.1,522.5z"/>
	<path class="st0" d="M1255.8,538.1c-9.1-0.1-16-7.1-16-16.2c0-9.3,6.8-16,16.2-15.9c9.1,0.1,16.1,7.1,16,16.2
		C1272,531.3,1265,538.2,1255.8,538.1z"/>
	<path class="st0" d="M1700.4,993.8c9.4,0,16.6,7,16.6,16.2c0,8.9-7.2,15.9-16.3,15.9c-9.2,0-15.8-6.9-15.8-16.3
		C1684.9,1000.3,1691.3,993.9,1700.4,993.8z"/>
	<path class="st0" d="M393.1,436.4c-0.1,9.2-7,15.9-16.3,15.7c-9.1-0.1-16-7.2-16-16.3c0.1-9,7.3-16,16.4-15.8
		C386.2,420.2,393.2,427.4,393.1,436.4z"/>
	<path class="st0" d="M1255.9,639.9c9.1,0.1,16.1,7.1,16.1,16.2c0,9.1-7,16-16.2,16c-9.1,0-16-7-16.1-16.2
		C1239.8,646.7,1246.7,639.9,1255.9,639.9z"/>
	<path class="st0" d="M982.7,789.9c0-9.1,6.6-15.9,15.6-16c9.3-0.1,16.8,7.2,16.7,16.1c-0.1,8.9-7.3,16-16.3,16
		C989.5,806,982.7,799.2,982.7,789.9z"/>
	<path class="st0" d="M1127.1,334.1c8.8-0.1,16.2,7.3,16.3,16.2c0.1,8.9-7.1,16.3-16.1,16.3c-8.8,0-16.3-7.3-16.4-16.1
		C1110.8,341.7,1118.2,334.2,1127.1,334.1z"/>
	<path class="st0" d="M1593.7,521.9c0-9.4,6.6-16,16-16c9.1,0,16.1,7.1,16.2,16.1c0,9-7.1,16.1-16.2,16
		C1600.5,538,1593.7,531.1,1593.7,521.9z"/>
	<path class="st0" d="M1229.1,479.2c0,9-6.7,15.8-15.7,15.9c-9.4,0.1-16.6-6.9-16.5-16.2c0-9.1,7.1-16,16.3-15.9
		C1222.3,463,1229.1,470,1229.1,479.2z"/>
	<path class="st0" d="M1781.2,452.2c-9,0-16.1-7.1-16.1-16.1c0-9.1,7.1-16.1,16.1-16.1c8.9,0,16.2,7.3,16.2,16.2
		C1797.3,445.4,1790.4,452.2,1781.2,452.2z"/>
	<path class="st0" d="M779,452.2c-9.4-0.1-16.3-7.1-16.2-16.5c0.1-8.7,7.2-15.6,16.1-15.6c9,0,16.2,7.2,16.2,16.1
		C795.1,445.4,788.2,452.2,779,452.2z"/>
	<path class="st0" d="M1229.1,436.5c-0.1,9-6.9,15.7-15.9,15.6c-9.5,0-16.5-7-16.4-16.4c0.1-8.9,7.4-15.9,16.5-15.8
		C1222.3,420.2,1229.2,427.4,1229.1,436.5z"/>
	<path class="st0" d="M972.1,741.7c0,8.9-7.3,16.2-16.1,16.1c-9.1,0-16.1-7-16.1-16.1c0-9.2,6.8-16,16-16
		C964.9,725.8,972,732.8,972.1,741.7z"/>
	<path class="st0" d="M1684.8,1052.5c0-9.1,6.6-15.9,15.5-16c9.1-0.1,16.6,7.3,16.6,16.3c0,8.9-7.4,16.1-16.3,16
		C1691.4,1068.8,1684.8,1061.9,1684.8,1052.5z"/>
	<path class="st0" d="M1593.7,741.9c-0.1-9.5,6.4-16.1,15.8-16.1c9.3,0,16.2,6.8,16.4,15.8c0.1,9-6.9,16.2-16,16.2
		C1600.6,757.9,1593.8,751.2,1593.7,741.9z"/>
	<path class="st0" d="M1550.7,741.5c0.1-9.3,6.9-15.9,16.2-15.8c9.2,0.1,16,7,16,16.2c0,9-7.2,16-16.3,15.9
		C1557.6,757.8,1550.7,750.7,1550.7,741.5z"/>
	<path class="st0" d="M1931.1,393.5c0,9-6.7,15.9-15.6,16c-9.1,0.1-16.5-7.2-16.4-16.4c0-9.1,7.2-16.1,16.2-16
		C1924.2,377.2,1931.1,384.4,1931.1,393.5z"/>
	<path class="st0" d="M1786.3,902.8c9.1,0,16.3,7,16.5,15.8c0.1,8.8-7.2,16.2-16.1,16.3c-9,0.1-16.6-7.5-16.4-16.5
		C1770.4,909.5,1777.3,902.8,1786.3,902.8z"/>
	<path class="st0" d="M1754.4,393.7c0,8.5-7.3,15.8-16,15.8c-8.9,0-16.1-7.1-16.2-16.2c-0.2-9,6.9-16.3,15.9-16.3
		C1747.3,377.1,1754.4,384.3,1754.4,393.7z"/>
	<path class="st0" d="M2065.1,393.3c0,9.2-6.8,16.1-16,16.1c-9,0-16-7.1-16-16.2c0-9.1,7-16.2,16.1-16.1
		C2058,377.1,2065.1,384.2,2065.1,393.3z"/>
	<path class="st0" d="M1674,741.8c0,9.1-7,16.1-16.1,16.1c-9.1,0-16.1-7-16.1-16.1c0-9.3,6.7-16,16-16
		C1667.1,725.8,1674,732.7,1674,741.8z"/>
	<path class="st0" d="M982.7,698.6c0.1-9.3,6.9-15.9,16.2-15.7c8.9,0.2,16.1,7.6,16,16.3c-0.1,8.9-7.5,15.9-16.5,15.7
		C989.2,714.7,982.7,707.9,982.7,698.6z"/>
	<path class="st0" d="M1609.4,859.8c9.2,0,16.3,6.9,16.4,15.8c0.1,9-6.9,16.1-16,16.3c-9.4,0.1-16.2-6.7-16.1-16.4
		C1593.7,866.3,1600.2,859.9,1609.4,859.8z"/>
	<path class="st0" d="M1700.6,725.8c9.3,0,16.4,7.1,16.3,16.4c-0.1,8.7-7.2,15.6-16,15.7c-9.3,0.1-16.1-6.6-16.1-15.9
		C1684.8,732.5,1691.4,725.8,1700.6,725.8z"/>
	<path class="st0" d="M1593.7,130.3c0-8.9,6.9-15.8,15.7-15.9c9.1,0,16.6,7.4,16.4,16.4c-0.1,8.8-7.7,16.1-16.4,16
		C1600.7,146.7,1593.7,139.4,1593.7,130.3z"/>
	<path class="st0" d="M1229.1,656.4c-0.1,9.1-7.1,15.9-16.4,15.7c-9-0.2-15.9-7.3-15.8-16.4c0.1-9,7.3-15.9,16.4-15.8
		C1222.4,640.1,1229.1,647.1,1229.1,656.4z"/>
	<path class="st0" d="M2049.3,452.2c-9.3,0-16.1-6.6-16.2-15.9c-0.2-9.1,6.8-16.3,15.9-16.3c9,0,16.1,7,16.2,16
		C2065.2,445.4,2058.5,452.1,2049.3,452.2z"/>
	<path class="st0" d="M1727.7,1052.5c0.1-9.3,7-16.2,16.1-16c8.9,0.2,16.1,7.5,16.1,16.4c0,8.8-7.4,16.1-16.4,16
		C1734.3,1068.7,1727.6,1061.9,1727.7,1052.5z"/>
	<path class="st0" d="M1866.8,409.2c-9.4-0.1-16.2-7.1-16-16.6c0.2-8.7,7.4-15.7,16.1-15.6c8.9,0.1,16,7.3,16,16.3
		C1882.9,402.7,1876.2,409.3,1866.8,409.2z"/>
	<path class="st0" d="M1127.4,409.2c-9.1,0-16.3-7-16.4-15.9c-0.1-8.9,7.2-16.3,16.1-16.2c9,0,16.2,7.1,16.3,16.1
		C1143.6,402.2,1136.5,409.2,1127.4,409.2z"/>
	<path class="st0" d="M1539.9,656.6c-0.2,9.2-7.2,15.7-16.6,15.5c-8.9-0.2-15.8-7.6-15.6-16.7c0.2-8.9,7.6-15.7,16.8-15.5
		C1533.5,640.1,1540.1,647.3,1539.9,656.6z"/>
	<path class="st0" d="M1700.7,682.8c9.3,0.1,16.4,7.3,16.3,16.5c-0.1,9-7.3,15.7-16.6,15.6c-9-0.1-15.6-6.8-15.6-16
		C1684.8,689.5,1691.4,682.8,1700.7,682.8z"/>
	<path class="st0" d="M779,286c9,0.1,16.1,7.3,16.1,16.3c0,9.2-7,16-16.2,16c-9.1-0.1-16.1-7.1-16.1-16.2
		C762.8,293,770,285.9,779,286z"/>
	<path class="st0" d="M1186.2,613.2c0,9.3-6.8,15.9-16.1,15.9c-9-0.1-16.1-7.1-16.2-16.1c-0.1-8.9,7.2-16,16.3-15.9
		C1179.5,597.2,1186.2,604,1186.2,613.2z"/>
	<path class="st0" d="M686.2,848.2c-8.8,0.1-16.2-7.2-16.3-16.1c-0.1-8.8,6.9-16,15.6-16.2c9-0.2,17,7.4,17,16.1
		C702.5,840.7,695,848.1,686.2,848.2z"/>
	<path class="st0" d="M1738.4,452.2c-9.1,0-16.1-6.9-16.2-16c-0.1-9.1,6.9-16.2,16-16.2c8.9,0,16.2,7.1,16.4,16.1
		C1754.7,444.9,1747.5,452.1,1738.4,452.2z"/>
	<path class="st0" d="M982.7,832.5c0.1-9.2,7-15.8,16.3-15.6c8.9,0.2,16.1,7.6,15.9,16.4c-0.2,8.9-7.6,15.8-16.6,15.7
		C989.3,848.9,982.6,841.8,982.7,832.5z"/>
	<path class="st0" d="M1963.3,484.2c-7.9,0.7-16-6-16-16.2c0-8.9,7.2-15.9,15.9-16c8.8,0,16.5,7.4,16.4,16.2
		C1979.5,478.3,1971.2,484.9,1963.3,484.2z"/>
	<path class="st0" d="M119.5,463c9.2-0.1,16.1,6.7,16.3,15.9c0.2,9.3-6.5,16.2-15.8,16.2c-9.2,0-16.2-6.8-16.3-15.8
		C103.5,470.1,110.3,463.1,119.5,463z"/>
	<path class="st0" d="M795.1,210.9c0.1,9-7,16.3-16,16.3c-8.9,0-16.3-7.3-16.3-16.1c0-9.2,6.9-16.1,16.1-16.2
		C787.9,194.8,795,201.8,795.1,210.9z"/>
	<path class="st0" d="M1406,210.9c0.1,9.1-6.8,16.2-15.9,16.3c-9,0.1-16.1-6.9-16.2-16c-0.1-9.5,6.4-16.1,15.8-16.1
		C1398.9,195,1405.9,201.8,1406,210.9z"/>
	<path class="st0" d="M838,302.2c0,9-7.2,16.1-16.2,16c-9.1,0-16-7.1-16.1-16.1c0-9.2,6.9-16.1,16.1-16
		C830.7,286.1,838.1,293.4,838,302.2z"/>
	<path class="st0" d="M795.1,387.7c0.1,9.2-6.8,16.2-15.9,16.3c-9.1,0-16.3-6.9-16.4-15.9c-0.1-9.2,6.8-16.2,15.9-16.2
		C787.9,371.8,795,378.7,795.1,387.7z"/>
	<path class="st0" d="M1540,698.7c0.1,9.1-6.9,16.1-16,16.2c-9.1,0-16.2-7-16.3-15.9c-0.1-9,7-16.1,16.1-16.1
		C1533,682.8,1539.9,689.6,1540,698.7z"/>
	<path class="st0" d="M1931.1,436.3c0,9.3-6.8,15.9-16.1,15.8c-9.1-0.1-16-7.1-15.9-16.2c0-9.1,7-16,16.2-15.9
		C1924.2,420.1,1931.1,427.2,1931.1,436.3z"/>
	<path class="st0" d="M1882.9,615.9c-0.1,9.1-7.1,16.2-16,16.2c-8.8,0-16-7.4-16-16.3c0-9.2,6.8-16,16.1-16
		C1876.2,599.9,1882.9,606.7,1882.9,615.9z"/>
	<path class="st0" d="M1738,586.2c-8.9-0.1-16-7.4-15.8-16.3c0.2-9.1,6.8-15.7,15.8-15.8c9.2,0,16.9,7.5,16.4,16.4
		C1754,581,1745.4,586.9,1738,586.2z"/>
	<path class="st0" d="M745.1,1052c-0.1,8.8-7.5,16.1-16.4,16c-8.9-0.1-16-7.4-15.9-16.4c0.1-9,7.3-16.2,16.2-16
		C737.8,1035.7,745.2,1043.3,745.1,1052z"/>
	<path class="st0" d="M1170,409.2c-9.2-0.1-16.2-7.1-16.1-16.1c0.1-9,7.3-16.1,16.3-16c9.2,0.1,16.2,7.4,16,16.8
		C1186,402.9,1179.2,409.3,1170,409.2z"/>
	<path class="st0" d="M1824.3,318.2c-9.3,0.1-16.5-7-16.4-16.3c0-8.9,6.9-15.8,15.7-15.9c9.2-0.1,16.2,6.7,16.3,15.8
		C1840.1,311.2,1833.5,318.2,1824.3,318.2z"/>
	<path class="st0" d="M1363.1,655.8c0.1,9.2-6.7,16.2-15.9,16.3c-9.1,0.1-16.1-6.7-16.3-15.9c-0.1-9.3,6.7-16.3,15.8-16.3
		C1355.9,639.9,1363,646.8,1363.1,655.8z"/>
	<path class="st0" d="M2065.1,1144c0,9.1-6.7,15.8-15.8,15.9c-9.3,0.1-16.5-7.2-16.3-16.5c0.2-8.9,7.1-15.6,16.1-15.6
		C2058.3,1127.9,2065.1,1134.8,2065.1,1144z"/>
	<path class="st0" d="M838,388c0,8.9-7.1,16-16.2,16c-9.1,0-16.1-7-16.1-16.1c0-9.3,6.8-16.1,16.1-16C830.7,371.9,838,379.1,838,388
		z"/>
	<path class="st0" d="M838,345.2c0,9-7.1,15.9-16.3,15.8c-9.2-0.1-16-7-16-16.2c0-9.2,7-16,16.2-15.9
		C830.9,329.1,838.1,336.3,838,345.2z"/>
	<path class="st0" d="M1674,832.8c0.1,9-7,16.1-16,16.2c-9.2,0.1-16.1-6.8-16.2-16c-0.1-9.3,6.6-16.1,15.9-16.1
		C1667,816.9,1674,823.7,1674,832.8z"/>
	<path class="st0" d="M982.7,741.6c0-9.3,6.8-15.9,16.1-15.8c8.9,0.1,16.3,7.5,16.1,16.2c-0.1,8.9-7.5,16-16.4,15.9
		C989.3,757.7,982.7,750.9,982.7,741.6z"/>
	<path class="st0" d="M1824.1,452.2c-9.3,0-16.3-7.1-16.1-16.5c0.1-8.8,7.2-15.7,16-15.7c9.1,0,16,7,16,16.1
		C1840,445.5,1833.3,452.2,1824.1,452.2z"/>
	<path class="st0" d="M1867,286c9.1,0.1,16,7.1,15.9,16.3c0,9.2-7,16.1-16.1,16c-9.1-0.1-16-7.1-16-16.2
		C1850.8,292.9,1857.9,285.9,1867,286z"/>
	<path class="st0" d="M955.7,682.8c9,0,16.3,7.1,16.4,15.9c0,9-7,16.1-16.1,16.1c-9.4,0-16.3-6.9-16.2-16.4
		C939.9,689.6,946.8,682.8,955.7,682.8z"/>
	<path class="st0" d="M1143.2,570.2c0,9.5-6.5,16.1-15.9,16c-9,0-16.2-7.1-16.3-16c-0.1-8.9,7.1-16.1,16.1-16.1
		C1136.4,554.1,1143.2,560.9,1143.2,570.2z"/>
	<path class="st0" d="M1797.2,302.3c0,9.2-7,16-16.1,16c-8.9-0.1-16-7.3-16-16.2c0-9,7.2-16.1,16.2-16
		C1790.3,286.1,1797.2,293.1,1797.2,302.3z"/>
	<path class="st0" d="M1684.8,918.4c0.1-9.5,6.7-15.8,16.2-15.6c9.2,0.2,16,7.2,15.9,16.3c-0.1,8.9-7.4,15.9-16.5,15.8
		C1691.5,934.8,1684.7,927.5,1684.8,918.4z"/>
	<path class="st0" d="M955.9,806.1c-9.2,0-16.1-6.8-16.1-16c0-9.3,6.8-16.2,16-16.1c9.1,0.1,16.3,7.1,16.3,16
		C972.1,798.8,964.8,806.1,955.9,806.1z"/>
	<path class="st0" d="M1824.1,495.1c-9.3,0-16.3-7.1-16.2-16.5c0.1-8.8,7-15.7,15.9-15.6c9.2,0,16.1,6.8,16.1,16
		C1840,488.4,1833.4,495.1,1824.1,495.1z"/>
	<path class="st0" d="M805.7,210.6c0.1-9.1,7.2-15.9,16.5-15.7c8.9,0.1,16,7.5,15.9,16.5c-0.1,8.9-7.6,16-16.5,15.8
		C812.6,227,805.6,219.6,805.7,210.6z"/>
	<path class="st0" d="M1716.9,875.8c0,8.9-7.1,16.1-16.1,16.1c-9.2,0-15.9-6.8-16-16.1c0-9.5,6.4-16,15.9-16
		C1709.9,859.9,1716.9,866.8,1716.9,875.8z"/>
	<path class="st0" d="M1593.7,784.4c0-9.4,6.7-15.8,16.1-15.7c9.1,0.1,16,7.1,16,16.2c-0.1,9-7.3,16-16.4,15.9
		C1600.5,800.7,1593.7,793.6,1593.7,784.4z"/>
	<path class="st0" d="M939.8,832.5c0.1-9.1,7.2-15.7,16.5-15.5c8.9,0.2,16,7.6,15.8,16.5c-0.2,8.9-7.5,15.7-16.6,15.6
		C946.5,848.9,939.7,841.6,939.8,832.5z"/>
	<path class="st0" d="M1743.9,902.8c9,0.2,16.1,7.4,15.9,16.3c-0.2,8.9-7.6,15.9-16.5,15.8c-8.9-0.1-16-7.5-15.9-16.5
		C1727.6,909.3,1734.7,902.6,1743.9,902.8z"/>
	<path class="st0" d="M1480.9,765.9c9-0.1,16.1,7,16.2,16.1c0.1,9.3-6.7,16.1-15.9,16.1c-8.9,0-16.3-7.2-16.3-16
		C1464.7,773.3,1471.9,766,1480.9,765.9z"/>
	<path class="st0" d="M779,361c-9.1,0-16.2-6.9-16.2-16c0-9.1,6.9-16.1,16-16.1c9,0,16.2,7.1,16.2,16C795.1,354.1,788.3,361,779,361
		z"/>
	<path class="st0" d="M728.7,858.8c9,0,16.4,7.2,16.4,15.9c0,8.9-7.2,16.3-16,16.3c-9,0.1-16.4-7.4-16.3-16.6
		C712.9,865.7,719.8,858.8,728.7,858.8z"/>
	<path class="st0" d="M728.8,950c9,0.1,16.3,7.3,16.3,16c0,9.1-7.1,16.1-16.1,16.2c-9.1,0-16.4-7.4-16.2-16.6
		C712.9,956.8,720,949.9,728.8,950z"/>
	<path class="st0" d="M728.7,992.8c8.9,0,16.3,7.2,16.4,16c0.1,8.9-7.2,16.3-16,16.3c-8.9,0.1-16.2-7.1-16.3-16
		C712.7,1000,719.8,992.8,728.7,992.8z"/>
</g>
</svg>
