<svg id="Layer_1" data-name="Layer 1" xmlns="http://www.w3.org/2000/svg" viewBox="0 0 300 80"><defs><style>.cls-1{fill:#1ecad3;}</style></defs><path class="cls-1" d="M216.63,58.34c-10.92,0-19.47-6.42-26.63-12.44l-.65-.55-.66.55c-7.16,6-15.71,12.44-26.62,12.44a28.28,28.28,0,0,1-3.45-.22c-10.85-1.37-19-9.16-19-18.12s8.18-16.75,19-18.12a26.53,26.53,0,0,1,3.45-.22,30.68,30.68,0,0,1,14.71,4l-5.91,5.6a19.55,19.55,0,0,0-8.8-2.32c-7.34,0-13.31,5-13.31,11.1s6,11.1,13.31,11.1,14.26-5.35,20.19-10.36l9.5-8.09c7-5.7,14.85-11,24.87-11a26.26,26.26,0,0,1,3.44.22c10.85,1.37,19,9.16,19,18.12s-8.18,16.75-19,18.12A28.12,28.12,0,0,1,216.63,58.34Zm0-29.44c-7.32,0-14.27,5.35-20.2,10.36l-.88.74.88.74c5.93,5,12.88,10.36,20.2,10.36s13.3-5,13.3-11.1S224,28.9,216.63,28.9Z"/><path class="cls-1" d="M268.6,22.32c-8.74,0-15.06,3.16-18.34,9.17V24.05a.44.44,0,0,0-.5-.43l-8.24,1.11a.42.42,0,0,0-.37.44v31a.43.43,0,0,0,.44.44H250a.42.42,0,0,0,.43-.44V42.33c0-7.81,5.33-12.58,14-12.95,10.35-.43,13.88,5.88,13.88,13.44V56.14a.41.41,0,0,0,.43.43h8.37a.42.42,0,0,0,.43-.43V40.59c.06-12-6.51-18.27-18.89-18.27"/><path class="cls-1" d="M51,36.81C51.74,31.36,57.38,28,65.68,28c8.12,0,14.5,3.29,14.62,8.86Zm38.65,3.47c0-11.15-9-17.9-24-17.9-14.19,0-23.79,6.38-23.79,18.15C41.83,51.43,51.06,58,66.11,58c10.41,0,17.72-3,22.24-8.61a.48.48,0,0,0-.18-.75l-6.44-3a.49.49,0,0,0-.56.12c-3,3.72-8.12,5.64-14.81,5.64-9.17,0-14.68-3.34-15.42-9H89.16a.49.49,0,0,0,.49-.5V40.28Z"/><path class="cls-1" d="M128.19,42.51c0,6.07-6.87,9.79-16.6,9.79-6.56,0-10.16-1.61-10.16-4.77s2.36-4.77,10.16-5.27l16.6-1Zm9.23,3.22V37c0-9.48-7-14.44-21.37-14.44-12.82,0-21.56,4.65-23.17,11.77a.5.5,0,0,0,.56.56l10.1-2c.12,0,.18-.06.25-.19,1.92-2.66,6.13-4.09,12.26-4.09,7.5,0,12,2.54,12,7.07v.74l-19.08,1c-7.68.44-11,1.61-13.44,3.22a8.42,8.42,0,0,0-3.78,7.25c0,6.51,6.19,10.16,16.47,10.16s16.73-2.66,20.08-7.81a45.73,45.73,0,0,0,.37,6.14.44.44,0,0,0,.43.37h8.43a.44.44,0,0,0,.43-.56,73.38,73.38,0,0,1-.5-10.47"/><path class="cls-1" d="M20.67,33.28v-9.1a.53.53,0,0,0-.62-.5L12.8,24.73a.52.52,0,0,0-.43.5V56.14a.49.49,0,0,0,.49.5H21.1a.49.49,0,0,0,.5-.5V45.05c0-4.46,1-8.18,3.53-10.72C27.3,32,30.27,30.74,35,30.74a22.83,22.83,0,0,1,4.21.37.52.52,0,0,0,.62-.49V23.31a.48.48,0,0,0-.43-.5,22,22,0,0,0-3.78-.25c-7.44,0-13,4.22-14.93,10.72"/></svg>